G75*
%MOIN*%
%OFA0B0*%
%FSLAX25Y25*%
%IPPOS*%
%LPD*%
%AMOC8*
5,1,8,0,0,1.08239X$1,22.5*
%
%ADD10R,0.00060X0.01980*%
%ADD11R,0.00060X0.01200*%
%ADD12R,0.00060X0.02460*%
%ADD13R,0.00060X0.02280*%
%ADD14R,0.00060X0.02520*%
%ADD15R,0.00060X0.00240*%
%ADD16R,0.00060X0.02760*%
%ADD17R,0.00060X0.03240*%
%ADD18R,0.00060X0.03000*%
%ADD19R,0.00060X0.02700*%
%ADD20R,0.00060X0.00240*%
%ADD21R,0.00060X0.01740*%
%ADD22R,0.00060X0.02040*%
%ADD23R,0.00060X0.02220*%
%ADD24R,0.00060X0.03300*%
%ADD25R,0.00060X0.03480*%
%ADD26R,0.00060X0.05520*%
%ADD27R,0.00060X0.03540*%
%ADD28R,0.00060X0.05760*%
%ADD29R,0.00060X0.06000*%
%ADD30R,0.00060X0.04020*%
%ADD31R,0.00060X0.04260*%
%ADD32R,0.00060X0.05520*%
%ADD33R,0.00060X0.04500*%
%ADD34R,0.00060X0.04740*%
%ADD35R,0.00060X0.04980*%
%ADD36R,0.00060X0.05220*%
%ADD37R,0.00060X0.07020*%
%ADD38R,0.00060X0.10020*%
%ADD39R,0.00060X0.06240*%
%ADD40R,0.00060X0.12240*%
%ADD41R,0.00060X0.06480*%
%ADD42R,0.00060X0.14040*%
%ADD43R,0.00060X0.06720*%
%ADD44R,0.00060X0.09000*%
%ADD45R,0.00060X0.15720*%
%ADD46R,0.00060X0.07260*%
%ADD47R,0.00060X0.10980*%
%ADD48R,0.00060X0.06780*%
%ADD49R,0.00060X0.24000*%
%ADD50R,0.00060X0.12480*%
%ADD51R,0.00060X0.31740*%
%ADD52R,0.00060X0.45720*%
%ADD53R,0.00060X0.46260*%
%ADD54R,0.00060X0.46500*%
%ADD55R,0.00060X0.46740*%
%ADD56R,0.00060X0.46740*%
%ADD57R,0.00060X0.45780*%
%ADD58R,0.00060X0.45240*%
%ADD59R,0.00060X0.44760*%
%ADD60R,0.00060X0.44520*%
%ADD61R,0.00060X0.44220*%
%ADD62R,0.00060X0.43980*%
%ADD63R,0.00060X0.43740*%
%ADD64R,0.00060X0.43500*%
%ADD65R,0.00060X0.43200*%
%ADD66R,0.00060X0.42960*%
%ADD67R,0.00060X0.43260*%
%ADD68R,0.00060X0.38760*%
%ADD69R,0.00060X0.37980*%
%ADD70R,0.00060X0.01500*%
%ADD71R,0.00060X0.37500*%
%ADD72R,0.00060X0.37200*%
%ADD73R,0.00060X0.01260*%
%ADD74R,0.00060X0.00780*%
%ADD75R,0.00060X0.37020*%
%ADD76R,0.00060X0.00540*%
%ADD77R,0.00060X0.36780*%
%ADD78R,0.00060X0.34260*%
%ADD79R,0.00060X0.00480*%
%ADD80R,0.00060X0.33240*%
%ADD81R,0.00060X0.02220*%
%ADD82R,0.00060X0.32220*%
%ADD83R,0.00060X0.31260*%
%ADD84R,0.00060X0.30000*%
%ADD85R,0.00060X0.02520*%
%ADD86R,0.00060X0.01020*%
%ADD87R,0.00060X0.28740*%
%ADD88R,0.00060X0.27780*%
%ADD89R,0.00060X0.26280*%
%ADD90R,0.00060X0.24480*%
%ADD91R,0.00060X0.22800*%
%ADD92R,0.00060X0.20520*%
%ADD93R,0.00060X0.17280*%
%ADD94R,0.00060X0.10500*%
%ADD95C,0.01000*%
%ADD96C,0.00300*%
D10*
X0144308Y0056040D03*
X0144368Y0056040D03*
X0144428Y0056040D03*
X0144488Y0056040D03*
X0150308Y0080280D03*
X0150368Y0080280D03*
X0150428Y0080280D03*
X0150488Y0080280D03*
X0150548Y0080280D03*
X0150608Y0080280D03*
X0150668Y0080280D03*
X0150728Y0080280D03*
X0169268Y0084780D03*
X0169328Y0084780D03*
X0169388Y0084780D03*
X0169448Y0084780D03*
X0169508Y0084780D03*
D11*
X0144488Y0082170D03*
X0144428Y0082170D03*
X0144368Y0082170D03*
X0144308Y0082170D03*
D12*
X0147308Y0083040D03*
X0147368Y0083040D03*
X0147428Y0083040D03*
X0147488Y0083040D03*
X0147548Y0083040D03*
X0147608Y0083040D03*
X0147668Y0083040D03*
X0147728Y0083040D03*
X0147788Y0083040D03*
X0147848Y0083040D03*
X0147908Y0083040D03*
X0147968Y0083040D03*
X0148028Y0083040D03*
X0148088Y0083040D03*
X0148148Y0083040D03*
X0148208Y0083040D03*
X0148268Y0083040D03*
X0148328Y0083040D03*
X0148388Y0083040D03*
X0148448Y0083040D03*
X0148508Y0083040D03*
X0170528Y0069540D03*
X0170588Y0069540D03*
X0170648Y0069540D03*
X0170708Y0069540D03*
X0149468Y0057300D03*
X0149408Y0057300D03*
X0149348Y0057300D03*
X0149288Y0057300D03*
X0149228Y0057300D03*
X0149168Y0057300D03*
X0149108Y0057300D03*
X0149048Y0057300D03*
X0148988Y0057300D03*
X0148928Y0057300D03*
X0148868Y0057300D03*
X0148808Y0057300D03*
X0148748Y0057300D03*
X0148688Y0057300D03*
X0148628Y0057300D03*
X0148568Y0057300D03*
X0144968Y0056040D03*
X0144908Y0056040D03*
X0144848Y0056040D03*
X0144788Y0056040D03*
X0144728Y0056040D03*
X0144668Y0056040D03*
X0144608Y0056040D03*
X0144548Y0056040D03*
D13*
X0147788Y0079410D03*
X0147848Y0079410D03*
X0147908Y0079410D03*
X0147968Y0079410D03*
X0149528Y0080430D03*
X0149588Y0080430D03*
X0149648Y0080430D03*
X0149708Y0080430D03*
X0149768Y0080430D03*
X0149828Y0080430D03*
X0149888Y0080430D03*
X0149948Y0080430D03*
X0150008Y0080430D03*
X0150068Y0080430D03*
X0150128Y0080430D03*
X0150188Y0080430D03*
X0150248Y0080430D03*
X0144728Y0081930D03*
X0144668Y0081930D03*
X0144608Y0081930D03*
X0144548Y0081930D03*
X0169028Y0084930D03*
X0169088Y0084930D03*
X0169148Y0084930D03*
X0169208Y0084930D03*
D14*
X0168968Y0085050D03*
X0168908Y0085050D03*
X0168848Y0085050D03*
X0168788Y0085050D03*
X0168728Y0085050D03*
X0168668Y0085050D03*
X0168608Y0085050D03*
X0168548Y0085050D03*
X0149708Y0083310D03*
X0149648Y0083310D03*
X0149588Y0083310D03*
X0149528Y0083310D03*
X0149468Y0080310D03*
X0149408Y0080310D03*
X0149348Y0080310D03*
X0149288Y0080310D03*
X0149228Y0080310D03*
X0149168Y0080310D03*
X0149108Y0080310D03*
X0149048Y0080310D03*
X0148988Y0080310D03*
X0148928Y0080310D03*
X0148868Y0080310D03*
X0148808Y0080310D03*
X0144968Y0081810D03*
X0144908Y0081810D03*
X0144848Y0081810D03*
X0144788Y0081810D03*
X0145028Y0056310D03*
X0145088Y0056310D03*
X0145148Y0056310D03*
X0145208Y0056310D03*
D15*
X0145208Y0057930D03*
X0145148Y0057930D03*
X0145088Y0057930D03*
X0145028Y0057930D03*
D16*
X0147788Y0056910D03*
X0147848Y0056910D03*
X0147908Y0056910D03*
X0147968Y0056910D03*
X0148028Y0057150D03*
X0148088Y0057150D03*
X0148148Y0057150D03*
X0148208Y0057150D03*
X0148268Y0057150D03*
X0148328Y0057150D03*
X0148388Y0057150D03*
X0148448Y0057150D03*
X0148508Y0057150D03*
X0148568Y0080190D03*
X0148628Y0080190D03*
X0148688Y0080190D03*
X0148748Y0080190D03*
X0145208Y0081930D03*
X0145148Y0081930D03*
X0145088Y0081930D03*
X0145028Y0081930D03*
X0149768Y0083190D03*
X0149828Y0083190D03*
X0149888Y0083190D03*
X0149948Y0083190D03*
X0150008Y0083190D03*
X0150068Y0083190D03*
X0150128Y0083190D03*
X0150188Y0083190D03*
X0150248Y0083190D03*
D17*
X0145988Y0082650D03*
X0145928Y0082650D03*
X0145868Y0082650D03*
X0145808Y0082650D03*
X0145748Y0082410D03*
X0145688Y0082410D03*
X0145628Y0082410D03*
X0145568Y0082410D03*
X0145508Y0082410D03*
X0145448Y0082410D03*
X0145388Y0082410D03*
X0145328Y0082410D03*
X0145268Y0082410D03*
X0146768Y0056910D03*
X0146828Y0056910D03*
X0146888Y0056910D03*
X0146948Y0056910D03*
X0147008Y0056910D03*
X0147068Y0056910D03*
X0147128Y0056910D03*
X0147188Y0056910D03*
X0147248Y0056910D03*
X0147308Y0056910D03*
X0147368Y0056910D03*
X0147428Y0056910D03*
X0147488Y0056910D03*
X0145508Y0056670D03*
X0145448Y0056670D03*
X0145388Y0056670D03*
X0145328Y0056670D03*
X0145268Y0056670D03*
D18*
X0145568Y0056790D03*
X0145628Y0056790D03*
X0145688Y0056790D03*
X0145748Y0056790D03*
X0145808Y0057030D03*
X0145868Y0057030D03*
X0145928Y0057030D03*
X0145988Y0057030D03*
X0146048Y0057030D03*
X0146108Y0057030D03*
X0146168Y0057030D03*
X0146228Y0057030D03*
X0146288Y0057030D03*
X0146348Y0057030D03*
X0146408Y0057030D03*
X0146468Y0057030D03*
X0146528Y0057030D03*
X0146588Y0057030D03*
X0146648Y0057030D03*
X0146708Y0057030D03*
X0147548Y0056790D03*
X0147608Y0056790D03*
X0147668Y0056790D03*
X0147728Y0056790D03*
X0149768Y0057270D03*
X0149828Y0057270D03*
X0149888Y0057270D03*
X0149948Y0057270D03*
X0150008Y0057270D03*
X0148208Y0079770D03*
X0148148Y0079770D03*
X0148088Y0079770D03*
X0148028Y0079770D03*
X0148268Y0080070D03*
X0148328Y0080070D03*
X0148388Y0080070D03*
X0148448Y0080070D03*
X0148508Y0080070D03*
X0146708Y0082770D03*
X0146648Y0082770D03*
X0146588Y0082770D03*
X0146528Y0082770D03*
X0146468Y0082770D03*
X0146408Y0082770D03*
X0146348Y0082770D03*
X0146288Y0082770D03*
X0146228Y0082770D03*
X0146168Y0082770D03*
X0146108Y0082770D03*
X0146048Y0082770D03*
X0150308Y0083310D03*
X0150368Y0083310D03*
X0150428Y0083310D03*
X0150488Y0083310D03*
X0150548Y0083310D03*
X0150608Y0083310D03*
X0150668Y0083310D03*
X0150728Y0083310D03*
D19*
X0147248Y0082920D03*
X0147188Y0082920D03*
X0147128Y0082920D03*
X0147068Y0082920D03*
X0147008Y0082920D03*
X0146948Y0082920D03*
X0146888Y0082920D03*
X0146828Y0082920D03*
X0146768Y0082920D03*
X0167768Y0085920D03*
X0167828Y0085920D03*
X0167888Y0085920D03*
X0167948Y0085920D03*
X0168008Y0085920D03*
X0149708Y0057420D03*
X0149648Y0057420D03*
X0149588Y0057420D03*
X0149528Y0057420D03*
D20*
X0167768Y0044910D03*
X0167828Y0044910D03*
X0167888Y0044910D03*
X0167948Y0044910D03*
X0168008Y0044910D03*
X0167468Y0042150D03*
X0167408Y0042150D03*
X0167348Y0042150D03*
X0167288Y0042150D03*
X0147248Y0079410D03*
X0147188Y0079410D03*
X0147128Y0079410D03*
X0147068Y0079410D03*
X0169808Y0084690D03*
X0169868Y0084690D03*
X0169928Y0084690D03*
X0169988Y0084690D03*
X0169208Y0087690D03*
X0169148Y0087690D03*
X0169088Y0087690D03*
X0169028Y0087690D03*
D21*
X0150968Y0080400D03*
X0150908Y0080400D03*
X0150848Y0080400D03*
X0150788Y0080400D03*
X0147488Y0079440D03*
X0147428Y0079440D03*
X0147368Y0079440D03*
X0147308Y0079440D03*
X0166268Y0045660D03*
X0166328Y0045660D03*
X0166388Y0045660D03*
X0166448Y0045660D03*
X0166508Y0045660D03*
X0165968Y0043440D03*
X0165908Y0043440D03*
X0165848Y0043440D03*
X0165788Y0043440D03*
D22*
X0147728Y0079290D03*
X0147668Y0079290D03*
X0147608Y0079290D03*
X0147548Y0079290D03*
D23*
X0148568Y0083160D03*
X0148628Y0083160D03*
X0148688Y0083160D03*
X0148748Y0083160D03*
X0148808Y0083160D03*
X0148868Y0083160D03*
X0148928Y0083160D03*
X0148988Y0083160D03*
X0149048Y0083160D03*
X0149108Y0083160D03*
X0149168Y0083160D03*
X0149228Y0083160D03*
X0149288Y0083160D03*
X0149348Y0083160D03*
X0149408Y0083160D03*
X0149468Y0083160D03*
X0165788Y0045660D03*
X0165848Y0045660D03*
X0165908Y0045660D03*
X0165968Y0045660D03*
X0166028Y0045660D03*
X0166088Y0045660D03*
X0166148Y0045660D03*
X0166208Y0045660D03*
D24*
X0151208Y0057420D03*
X0151148Y0057420D03*
X0151088Y0057420D03*
X0151028Y0057420D03*
X0150968Y0057420D03*
X0150908Y0057420D03*
X0150848Y0057420D03*
X0150788Y0057420D03*
X0150728Y0057420D03*
X0150668Y0057420D03*
X0150608Y0057420D03*
X0150548Y0057420D03*
X0150488Y0057420D03*
X0150428Y0057420D03*
X0150368Y0057420D03*
X0150308Y0057420D03*
X0150248Y0057420D03*
X0150188Y0057420D03*
X0150128Y0057420D03*
X0150068Y0057420D03*
D25*
X0154568Y0042810D03*
X0154628Y0042810D03*
X0154688Y0042810D03*
X0154748Y0042810D03*
X0150968Y0083310D03*
X0150908Y0083310D03*
X0150848Y0083310D03*
X0150788Y0083310D03*
D26*
X0151028Y0082290D03*
X0151088Y0082290D03*
X0151148Y0082290D03*
X0151208Y0082290D03*
D27*
X0168068Y0085800D03*
X0168128Y0085800D03*
X0168188Y0085800D03*
X0168248Y0085800D03*
X0151988Y0057540D03*
X0151928Y0057540D03*
X0151868Y0057540D03*
X0151808Y0057540D03*
X0151748Y0057540D03*
X0151688Y0057540D03*
X0151628Y0057540D03*
X0151568Y0057540D03*
X0151508Y0057540D03*
X0151448Y0057540D03*
X0151388Y0057540D03*
X0151328Y0057540D03*
X0151268Y0057540D03*
D28*
X0153308Y0081930D03*
X0153368Y0081930D03*
X0153428Y0081930D03*
X0153488Y0081930D03*
X0153548Y0081930D03*
X0153608Y0081930D03*
X0153668Y0081930D03*
X0153728Y0081930D03*
X0152468Y0082170D03*
X0152408Y0082170D03*
X0152348Y0082170D03*
X0152288Y0082170D03*
X0152228Y0082170D03*
X0152168Y0082170D03*
X0152108Y0082170D03*
X0152048Y0082170D03*
X0151748Y0082410D03*
X0151688Y0082410D03*
X0151628Y0082410D03*
X0151568Y0082410D03*
X0151508Y0082410D03*
X0151448Y0082410D03*
X0151388Y0082410D03*
X0151328Y0082410D03*
X0151268Y0082410D03*
D29*
X0151808Y0082290D03*
X0151868Y0082290D03*
X0151928Y0082290D03*
X0151988Y0082290D03*
X0153788Y0082050D03*
X0153848Y0082050D03*
X0153908Y0082050D03*
X0153968Y0082050D03*
X0154568Y0057810D03*
X0154628Y0057810D03*
X0154688Y0057810D03*
X0154748Y0057810D03*
D30*
X0152468Y0057540D03*
X0152408Y0057540D03*
X0152348Y0057540D03*
X0152288Y0057540D03*
X0152228Y0057540D03*
X0152168Y0057540D03*
X0152108Y0057540D03*
X0152048Y0057540D03*
X0153548Y0069780D03*
X0153608Y0069780D03*
X0153668Y0069780D03*
X0153728Y0069780D03*
D31*
X0152708Y0057660D03*
X0152648Y0057660D03*
X0152588Y0057660D03*
X0152528Y0057660D03*
D32*
X0154028Y0057810D03*
X0154088Y0057810D03*
X0154148Y0057810D03*
X0154208Y0057810D03*
X0154268Y0057810D03*
X0154328Y0057810D03*
X0154388Y0057810D03*
X0154448Y0057810D03*
X0154508Y0057810D03*
X0153248Y0082050D03*
X0153188Y0082050D03*
X0153128Y0082050D03*
X0153068Y0082050D03*
X0153008Y0082050D03*
X0152948Y0082050D03*
X0152888Y0082050D03*
X0152828Y0082050D03*
X0152768Y0082050D03*
X0152708Y0082050D03*
X0152648Y0082050D03*
X0152588Y0082050D03*
X0152528Y0082050D03*
D33*
X0152768Y0057540D03*
X0152828Y0057540D03*
X0152888Y0057540D03*
X0152948Y0057540D03*
X0153008Y0057540D03*
X0165548Y0044820D03*
X0165608Y0044820D03*
X0165668Y0044820D03*
X0165728Y0044820D03*
D34*
X0153488Y0057660D03*
X0153428Y0057660D03*
X0153368Y0057660D03*
X0153308Y0057660D03*
X0153248Y0057660D03*
X0153188Y0057660D03*
X0153128Y0057660D03*
X0153068Y0057660D03*
D35*
X0153548Y0057780D03*
X0153608Y0057780D03*
X0153668Y0057780D03*
X0153728Y0057780D03*
D36*
X0153788Y0057660D03*
X0153848Y0057660D03*
X0153908Y0057660D03*
X0153968Y0057660D03*
D37*
X0153968Y0069780D03*
X0153908Y0069780D03*
X0153848Y0069780D03*
X0153788Y0069780D03*
D38*
X0154028Y0069780D03*
X0154088Y0069780D03*
X0154148Y0069780D03*
X0154208Y0069780D03*
D39*
X0154208Y0081930D03*
X0154148Y0081930D03*
X0154088Y0081930D03*
X0154028Y0081930D03*
D40*
X0154268Y0069930D03*
X0154328Y0069930D03*
X0154388Y0069930D03*
X0154448Y0069930D03*
X0154508Y0069930D03*
D41*
X0154508Y0082050D03*
X0154448Y0082050D03*
X0154388Y0082050D03*
X0154328Y0082050D03*
X0154268Y0082050D03*
X0154808Y0057810D03*
X0154868Y0057810D03*
X0154928Y0057810D03*
X0154988Y0057810D03*
D42*
X0154748Y0070050D03*
X0154688Y0070050D03*
X0154628Y0070050D03*
X0154568Y0070050D03*
D43*
X0154568Y0081930D03*
X0154628Y0081930D03*
X0154688Y0081930D03*
X0154748Y0081930D03*
D44*
X0154808Y0045270D03*
X0154868Y0045270D03*
X0154928Y0045270D03*
X0154988Y0045270D03*
D45*
X0154988Y0070170D03*
X0154928Y0070170D03*
X0154868Y0070170D03*
X0154808Y0070170D03*
D46*
X0154808Y0081900D03*
X0154868Y0081900D03*
X0154928Y0081900D03*
X0154988Y0081900D03*
D47*
X0155048Y0045540D03*
X0155108Y0045540D03*
X0155168Y0045540D03*
X0155228Y0045540D03*
D48*
X0155228Y0057660D03*
X0155168Y0057660D03*
X0155108Y0057660D03*
X0155048Y0057660D03*
D49*
X0155048Y0073530D03*
X0155108Y0073530D03*
X0155168Y0073530D03*
X0155228Y0073530D03*
D50*
X0155288Y0046290D03*
X0155348Y0046290D03*
X0155408Y0046290D03*
X0155468Y0046290D03*
D51*
X0155468Y0069900D03*
X0155408Y0069900D03*
X0155348Y0069900D03*
X0155288Y0069900D03*
D52*
X0155528Y0062910D03*
X0155588Y0062910D03*
X0155648Y0062910D03*
X0155708Y0062910D03*
X0155768Y0062910D03*
X0155828Y0062910D03*
X0155888Y0062910D03*
X0155948Y0062910D03*
X0156008Y0062910D03*
D53*
X0156068Y0062940D03*
X0156128Y0062940D03*
X0156188Y0062940D03*
X0156248Y0062940D03*
X0156308Y0062940D03*
X0156368Y0062940D03*
X0156428Y0062940D03*
X0156488Y0062940D03*
D54*
X0156548Y0063060D03*
X0156608Y0063060D03*
X0156668Y0063060D03*
X0156728Y0063060D03*
X0156788Y0063060D03*
X0156848Y0063060D03*
X0156908Y0063060D03*
X0156968Y0063060D03*
D55*
X0157028Y0062940D03*
X0157088Y0062940D03*
X0157148Y0062940D03*
X0157208Y0062940D03*
D56*
X0157268Y0063180D03*
X0157328Y0063180D03*
X0157388Y0063180D03*
X0157448Y0063180D03*
X0157508Y0063180D03*
D57*
X0157568Y0063660D03*
X0157628Y0063660D03*
X0157688Y0063660D03*
X0157748Y0063660D03*
D58*
X0157808Y0063930D03*
X0157868Y0063930D03*
X0157928Y0063930D03*
X0157988Y0063930D03*
D59*
X0158048Y0064170D03*
X0158108Y0064170D03*
X0158168Y0064170D03*
X0158228Y0064170D03*
X0158288Y0064410D03*
X0158348Y0064410D03*
X0158408Y0064410D03*
X0158468Y0064410D03*
D60*
X0158528Y0064530D03*
X0158588Y0064530D03*
X0158648Y0064530D03*
X0158708Y0064530D03*
D61*
X0158768Y0064680D03*
X0158828Y0064680D03*
X0158888Y0064680D03*
X0158948Y0064680D03*
X0159008Y0064680D03*
X0159068Y0064680D03*
X0159128Y0064680D03*
X0159188Y0064680D03*
X0159248Y0064680D03*
X0159308Y0064920D03*
X0159368Y0064920D03*
X0159428Y0064920D03*
X0159488Y0064920D03*
D62*
X0159548Y0065040D03*
X0159608Y0065040D03*
X0159668Y0065040D03*
X0159728Y0065040D03*
X0159788Y0065040D03*
X0159848Y0065040D03*
X0159908Y0065040D03*
X0159968Y0065040D03*
D63*
X0160028Y0065160D03*
X0160088Y0065160D03*
X0160148Y0065160D03*
X0160208Y0065160D03*
X0160268Y0065160D03*
X0160328Y0065160D03*
X0160388Y0065160D03*
X0160448Y0065160D03*
X0160508Y0065160D03*
X0160568Y0065400D03*
X0160628Y0065400D03*
X0160688Y0065400D03*
X0160748Y0065400D03*
X0160808Y0065400D03*
X0160868Y0065400D03*
X0160928Y0065400D03*
X0160988Y0065400D03*
X0161048Y0065400D03*
X0161108Y0065400D03*
X0161168Y0065400D03*
X0161228Y0065400D03*
X0161288Y0065400D03*
X0161348Y0065400D03*
X0161408Y0065400D03*
X0161468Y0065400D03*
X0164288Y0064920D03*
X0164348Y0064920D03*
X0164408Y0064920D03*
X0164468Y0064920D03*
D64*
X0164528Y0064800D03*
X0164588Y0064800D03*
X0164648Y0064800D03*
X0164708Y0064800D03*
X0164768Y0064560D03*
X0164828Y0064560D03*
X0164888Y0064560D03*
X0164948Y0064560D03*
X0165008Y0064560D03*
X0165068Y0064560D03*
X0165128Y0064560D03*
X0165188Y0064560D03*
X0165248Y0064560D03*
X0164228Y0065040D03*
X0164168Y0065040D03*
X0164108Y0065040D03*
X0164048Y0065040D03*
X0163988Y0065040D03*
X0163928Y0065040D03*
X0163868Y0065040D03*
X0163808Y0065040D03*
X0163748Y0065280D03*
X0163688Y0065280D03*
X0163628Y0065280D03*
X0163568Y0065280D03*
X0162488Y0065520D03*
X0162428Y0065520D03*
X0162368Y0065520D03*
X0162308Y0065520D03*
X0162248Y0065520D03*
X0162188Y0065520D03*
X0162128Y0065520D03*
X0162068Y0065520D03*
X0162008Y0065520D03*
X0161948Y0065520D03*
X0161888Y0065520D03*
X0161828Y0065520D03*
X0161768Y0065520D03*
X0161708Y0065520D03*
X0161648Y0065520D03*
X0161588Y0065520D03*
X0161528Y0065520D03*
D65*
X0162548Y0065670D03*
X0162608Y0065670D03*
X0162668Y0065670D03*
X0162728Y0065670D03*
X0162788Y0065670D03*
X0162848Y0065670D03*
X0162908Y0065670D03*
X0162968Y0065670D03*
D66*
X0163028Y0065550D03*
X0163088Y0065550D03*
X0163148Y0065550D03*
X0163208Y0065550D03*
D67*
X0163268Y0065400D03*
X0163328Y0065400D03*
X0163388Y0065400D03*
X0163448Y0065400D03*
X0163508Y0065400D03*
X0165308Y0064440D03*
X0165368Y0064440D03*
X0165428Y0064440D03*
X0165488Y0064440D03*
D68*
X0165548Y0066690D03*
X0165608Y0066690D03*
X0165668Y0066690D03*
X0165728Y0066690D03*
D69*
X0165788Y0066780D03*
X0165848Y0066780D03*
X0165908Y0066780D03*
X0165968Y0066780D03*
D70*
X0169568Y0084780D03*
X0169628Y0084780D03*
X0169688Y0084780D03*
X0169748Y0084780D03*
X0166988Y0045540D03*
X0166928Y0045540D03*
X0166868Y0045540D03*
X0166808Y0045540D03*
X0166748Y0045540D03*
X0166688Y0045540D03*
X0166628Y0045540D03*
X0166568Y0045540D03*
X0166208Y0043320D03*
X0166148Y0043320D03*
X0166088Y0043320D03*
X0166028Y0043320D03*
X0166268Y0043020D03*
X0166328Y0043020D03*
X0166388Y0043020D03*
X0166448Y0043020D03*
X0166508Y0043020D03*
D71*
X0166208Y0066780D03*
X0166148Y0066780D03*
X0166088Y0066780D03*
X0166028Y0066780D03*
X0166568Y0067560D03*
X0166628Y0067560D03*
X0166688Y0067560D03*
X0166748Y0067560D03*
D72*
X0166508Y0067170D03*
X0166448Y0067170D03*
X0166388Y0067170D03*
X0166328Y0067170D03*
X0166268Y0067170D03*
D73*
X0167288Y0085920D03*
X0167348Y0085920D03*
X0167408Y0085920D03*
X0167468Y0085920D03*
X0167228Y0045420D03*
X0167168Y0045420D03*
X0167108Y0045420D03*
X0167048Y0045420D03*
X0166748Y0042900D03*
X0166688Y0042900D03*
X0166628Y0042900D03*
X0166568Y0042900D03*
D74*
X0166808Y0042660D03*
X0166868Y0042660D03*
X0166928Y0042660D03*
X0166988Y0042660D03*
X0167288Y0045180D03*
X0167348Y0045180D03*
X0167408Y0045180D03*
X0167468Y0045180D03*
X0168548Y0087420D03*
X0168608Y0087420D03*
X0168668Y0087420D03*
X0168728Y0087420D03*
X0168788Y0087660D03*
X0168848Y0087660D03*
X0168908Y0087660D03*
X0168968Y0087660D03*
D75*
X0166988Y0067800D03*
X0166928Y0067800D03*
X0166868Y0067800D03*
X0166808Y0067800D03*
D76*
X0167048Y0042300D03*
X0167108Y0042300D03*
X0167168Y0042300D03*
X0167228Y0042300D03*
D77*
X0167228Y0068160D03*
X0167168Y0068160D03*
X0167108Y0068160D03*
X0167048Y0068160D03*
D78*
X0167288Y0067440D03*
X0167348Y0067440D03*
X0167408Y0067440D03*
X0167468Y0067440D03*
D79*
X0167528Y0045030D03*
X0167588Y0045030D03*
X0167648Y0045030D03*
X0167708Y0045030D03*
D80*
X0167708Y0067650D03*
X0167648Y0067650D03*
X0167588Y0067650D03*
X0167528Y0067650D03*
D81*
X0167528Y0085920D03*
X0167588Y0085920D03*
X0167648Y0085920D03*
X0167708Y0085920D03*
D82*
X0167768Y0067920D03*
X0167828Y0067920D03*
X0167888Y0067920D03*
X0167948Y0067920D03*
X0168008Y0067920D03*
D83*
X0168068Y0067920D03*
X0168128Y0067920D03*
X0168188Y0067920D03*
X0168248Y0067920D03*
D84*
X0168308Y0068070D03*
X0168368Y0068070D03*
X0168428Y0068070D03*
X0168488Y0068070D03*
D85*
X0168488Y0085290D03*
X0168428Y0085290D03*
X0168368Y0085290D03*
X0168308Y0085290D03*
D86*
X0168308Y0087300D03*
X0168368Y0087300D03*
X0168428Y0087300D03*
X0168488Y0087300D03*
D87*
X0168548Y0068160D03*
X0168608Y0068160D03*
X0168668Y0068160D03*
X0168728Y0068160D03*
D88*
X0168788Y0068160D03*
X0168848Y0068160D03*
X0168908Y0068160D03*
X0168968Y0068160D03*
D89*
X0169028Y0068430D03*
X0169088Y0068430D03*
X0169148Y0068430D03*
X0169208Y0068430D03*
D90*
X0169268Y0068550D03*
X0169328Y0068550D03*
X0169388Y0068550D03*
X0169448Y0068550D03*
X0169508Y0068550D03*
D91*
X0169568Y0068670D03*
X0169628Y0068670D03*
X0169688Y0068670D03*
X0169748Y0068670D03*
D92*
X0169808Y0068550D03*
X0169868Y0068550D03*
X0169928Y0068550D03*
X0169988Y0068550D03*
D93*
X0170048Y0068430D03*
X0170108Y0068430D03*
X0170168Y0068430D03*
X0170228Y0068430D03*
D94*
X0170288Y0069060D03*
X0170348Y0069060D03*
X0170408Y0069060D03*
X0170468Y0069060D03*
D95*
X0174494Y0088210D02*
X0174613Y0025460D01*
X0141134Y0026555D02*
X0141014Y0088055D01*
X0132929Y0088235D02*
X0133048Y0026735D01*
D96*
X0103515Y0040352D02*
X0101580Y0040352D01*
X0102548Y0040352D02*
X0102548Y0037450D01*
X0104527Y0037934D02*
X0105010Y0037450D01*
X0105978Y0037450D01*
X0106462Y0037934D01*
X0105978Y0038901D02*
X0105010Y0038901D01*
X0104527Y0038417D01*
X0104527Y0037934D01*
X0105978Y0038901D02*
X0106462Y0039385D01*
X0106462Y0039869D01*
X0105978Y0040352D01*
X0105010Y0040352D01*
X0104527Y0039869D01*
X0107473Y0039869D02*
X0107473Y0038901D01*
X0107957Y0038417D01*
X0109408Y0038417D01*
X0109408Y0037450D02*
X0109408Y0040352D01*
X0107957Y0040352D01*
X0107473Y0039869D01*
X0108441Y0038417D02*
X0107473Y0037450D01*
X0113248Y0038590D02*
X0113248Y0040131D01*
X0113762Y0040645D01*
X0115817Y0040645D01*
X0116331Y0040131D01*
X0116331Y0038590D01*
X0113248Y0038590D01*
X0113762Y0041702D02*
X0114790Y0041702D01*
X0115304Y0042216D01*
X0115304Y0043244D01*
X0114790Y0043757D01*
X0114276Y0043757D01*
X0114276Y0041702D01*
X0113762Y0041702D02*
X0113248Y0042216D01*
X0113248Y0043244D01*
X0115304Y0044815D02*
X0113248Y0045842D01*
X0115304Y0046870D01*
X0114790Y0047927D02*
X0115304Y0048441D01*
X0115304Y0049468D01*
X0114790Y0049982D01*
X0114276Y0049982D01*
X0114276Y0047927D01*
X0113762Y0047927D02*
X0114790Y0047927D01*
X0113762Y0047927D02*
X0113248Y0048441D01*
X0113248Y0049468D01*
X0113248Y0051039D02*
X0113248Y0052067D01*
X0113248Y0051553D02*
X0116331Y0051553D01*
X0116331Y0051039D01*
X0118318Y0051024D02*
X0118318Y0049483D01*
X0118318Y0048436D02*
X0118318Y0047408D01*
X0118318Y0047922D02*
X0120374Y0047922D01*
X0120374Y0047408D01*
X0120374Y0046356D02*
X0120374Y0045842D01*
X0119346Y0044815D01*
X0118318Y0044815D02*
X0120374Y0044815D01*
X0119860Y0043757D02*
X0118318Y0043757D01*
X0118318Y0042216D01*
X0118832Y0041702D01*
X0119346Y0042216D01*
X0119346Y0043757D01*
X0119860Y0043757D02*
X0120374Y0043244D01*
X0120374Y0042216D01*
X0121401Y0040141D02*
X0118318Y0040141D01*
X0118318Y0039627D02*
X0118318Y0040655D01*
X0118318Y0038570D02*
X0120374Y0038570D01*
X0121401Y0039627D02*
X0121401Y0040141D01*
X0118318Y0038570D02*
X0118318Y0037029D01*
X0118832Y0036515D01*
X0120374Y0036515D01*
X0120374Y0035458D02*
X0120374Y0033917D01*
X0119860Y0033403D01*
X0118832Y0033403D01*
X0118318Y0033917D01*
X0118318Y0035458D01*
X0121401Y0035458D01*
X0116331Y0034421D02*
X0116331Y0032365D01*
X0116331Y0033393D02*
X0113248Y0033393D01*
X0113762Y0031308D02*
X0115817Y0031308D01*
X0116331Y0030795D01*
X0116331Y0029767D01*
X0115817Y0029253D01*
X0113762Y0029253D01*
X0113248Y0029767D01*
X0113248Y0030795D01*
X0113762Y0031308D01*
X0113248Y0028206D02*
X0113248Y0027178D01*
X0113248Y0027692D02*
X0116331Y0027692D01*
X0116331Y0027178D02*
X0116331Y0028206D01*
X0118318Y0029233D02*
X0121401Y0029233D01*
X0120374Y0028206D01*
X0121401Y0027178D01*
X0118318Y0027178D01*
X0118832Y0030291D02*
X0118318Y0030804D01*
X0118318Y0031832D01*
X0118832Y0032346D01*
X0119860Y0032346D01*
X0120374Y0031832D01*
X0120374Y0030804D01*
X0119860Y0030291D01*
X0118832Y0030291D01*
X0127854Y0030763D02*
X0128367Y0031277D01*
X0127854Y0031790D01*
X0128367Y0032304D01*
X0129909Y0032304D01*
X0129909Y0033361D02*
X0128367Y0033361D01*
X0127854Y0033875D01*
X0128367Y0034389D01*
X0127854Y0034903D01*
X0128367Y0035416D01*
X0129909Y0035416D01*
X0128367Y0036474D02*
X0128367Y0036987D01*
X0127854Y0036987D01*
X0127854Y0036474D01*
X0128367Y0036474D01*
X0127854Y0038030D02*
X0127854Y0039057D01*
X0127854Y0038543D02*
X0130936Y0038543D01*
X0130936Y0038030D02*
X0130936Y0039057D01*
X0130422Y0040105D02*
X0128367Y0040105D01*
X0127854Y0040618D01*
X0127854Y0041646D01*
X0128367Y0042160D01*
X0130422Y0042160D01*
X0130936Y0041646D01*
X0130936Y0040618D01*
X0130422Y0040105D01*
X0135458Y0040455D02*
X0135458Y0038400D01*
X0138541Y0038400D01*
X0138541Y0040455D01*
X0138541Y0041513D02*
X0138541Y0043568D01*
X0138541Y0042540D02*
X0135458Y0042540D01*
X0130936Y0043217D02*
X0130936Y0045272D01*
X0130936Y0044244D02*
X0127854Y0044244D01*
X0127854Y0046329D02*
X0130936Y0046329D01*
X0129909Y0047357D01*
X0130936Y0048384D01*
X0127854Y0048384D01*
X0128367Y0049441D02*
X0127854Y0049955D01*
X0127854Y0050983D01*
X0128367Y0051496D01*
X0129395Y0051496D01*
X0129909Y0050983D01*
X0129909Y0049955D01*
X0129395Y0049441D01*
X0128367Y0049441D01*
X0121915Y0047922D02*
X0121401Y0047922D01*
X0119860Y0049483D02*
X0120374Y0049997D01*
X0120374Y0051538D01*
X0119346Y0051024D02*
X0118832Y0051538D01*
X0118318Y0051024D01*
X0119346Y0051024D02*
X0119346Y0049997D01*
X0119860Y0049483D01*
X0119860Y0052595D02*
X0120374Y0053109D01*
X0120374Y0054136D01*
X0119860Y0054650D01*
X0119346Y0054650D01*
X0119346Y0052595D01*
X0118832Y0052595D02*
X0119860Y0052595D01*
X0118832Y0052595D02*
X0118318Y0053109D01*
X0118318Y0054136D01*
X0118832Y0055707D02*
X0119860Y0055707D01*
X0120374Y0056221D01*
X0120374Y0057762D01*
X0121401Y0057762D02*
X0118318Y0057762D01*
X0118318Y0056221D01*
X0118832Y0055707D01*
X0115304Y0056226D02*
X0115304Y0057767D01*
X0114790Y0058281D01*
X0113762Y0058281D01*
X0113248Y0057767D01*
X0113248Y0056226D01*
X0112221Y0056226D02*
X0115304Y0056226D01*
X0114790Y0055169D02*
X0115304Y0054655D01*
X0115304Y0053628D01*
X0114790Y0053114D01*
X0113762Y0053114D01*
X0113248Y0053628D01*
X0113248Y0054655D01*
X0113762Y0055169D01*
X0114790Y0055169D01*
X0115304Y0059338D02*
X0113248Y0059338D01*
X0113248Y0060366D02*
X0114790Y0060366D01*
X0115304Y0060880D01*
X0114790Y0061393D01*
X0113248Y0061393D01*
X0113762Y0062451D02*
X0114790Y0062451D01*
X0115304Y0062964D01*
X0115304Y0063992D01*
X0114790Y0064506D01*
X0114276Y0064506D01*
X0114276Y0062451D01*
X0113762Y0062451D02*
X0113248Y0062964D01*
X0113248Y0063992D01*
X0113248Y0065563D02*
X0115304Y0065563D01*
X0115304Y0067104D01*
X0114790Y0067618D01*
X0113248Y0067618D01*
X0113762Y0069189D02*
X0113248Y0069703D01*
X0113762Y0069189D02*
X0115817Y0069189D01*
X0115304Y0068675D02*
X0115304Y0069703D01*
X0127854Y0069147D02*
X0127854Y0070689D01*
X0128367Y0071746D02*
X0127854Y0072260D01*
X0127854Y0073287D01*
X0128367Y0073801D01*
X0129395Y0073801D01*
X0129909Y0073287D01*
X0129909Y0072260D01*
X0129395Y0071746D01*
X0128367Y0071746D01*
X0129909Y0070689D02*
X0129909Y0069147D01*
X0129395Y0068634D01*
X0128367Y0068634D01*
X0127854Y0069147D01*
X0127854Y0067591D02*
X0127854Y0067077D01*
X0128367Y0067077D01*
X0128367Y0067591D01*
X0127854Y0067591D01*
X0128367Y0066020D02*
X0128881Y0065506D01*
X0128881Y0064479D01*
X0129395Y0063965D01*
X0129909Y0064479D01*
X0129909Y0066020D01*
X0128367Y0066020D02*
X0127854Y0065506D01*
X0127854Y0063965D01*
X0128881Y0062908D02*
X0128881Y0060853D01*
X0128367Y0060853D02*
X0129395Y0060853D01*
X0129909Y0061367D01*
X0129909Y0062394D01*
X0129395Y0062908D01*
X0128881Y0062908D01*
X0127854Y0062394D02*
X0127854Y0061367D01*
X0128367Y0060853D01*
X0127854Y0059806D02*
X0127854Y0058778D01*
X0127854Y0059292D02*
X0130936Y0059292D01*
X0130936Y0058778D01*
X0129909Y0057721D02*
X0127854Y0057721D01*
X0127854Y0056180D01*
X0128367Y0055666D01*
X0129909Y0055666D01*
X0129909Y0054609D02*
X0129909Y0053067D01*
X0129395Y0052554D01*
X0128367Y0052554D01*
X0127854Y0053067D01*
X0127854Y0054609D01*
X0130936Y0054609D01*
X0135458Y0054475D02*
X0135458Y0053962D01*
X0135972Y0053962D01*
X0135972Y0054475D01*
X0135458Y0054475D01*
X0135972Y0055518D02*
X0135458Y0056031D01*
X0135458Y0057059D01*
X0135972Y0057573D01*
X0137000Y0057573D01*
X0137514Y0057059D01*
X0137514Y0056545D01*
X0137000Y0055518D01*
X0138541Y0055518D01*
X0138541Y0057573D01*
X0135458Y0052904D02*
X0135458Y0050849D01*
X0135458Y0051877D02*
X0138541Y0051877D01*
X0137514Y0050849D01*
X0137514Y0049792D02*
X0135458Y0048765D01*
X0137514Y0047737D01*
X0137000Y0039428D02*
X0137000Y0038400D01*
X0135458Y0037343D02*
X0135458Y0035288D01*
X0138541Y0035288D01*
X0138027Y0034231D02*
X0138541Y0033717D01*
X0138541Y0032690D01*
X0138027Y0032176D01*
X0135972Y0032176D01*
X0135458Y0032690D01*
X0135458Y0033717D01*
X0135972Y0034231D01*
X0137000Y0034231D01*
X0137000Y0033203D01*
X0138541Y0031129D02*
X0138541Y0030101D01*
X0138541Y0030615D02*
X0135458Y0030615D01*
X0135458Y0030101D02*
X0135458Y0031129D01*
X0137000Y0029044D02*
X0136486Y0028530D01*
X0136486Y0026989D01*
X0135458Y0026989D02*
X0138541Y0026989D01*
X0138541Y0028530D01*
X0138027Y0029044D01*
X0137000Y0029044D01*
X0129909Y0029192D02*
X0128367Y0029192D01*
X0127854Y0028678D01*
X0128367Y0028164D01*
X0127854Y0027651D01*
X0128367Y0027137D01*
X0129909Y0027137D01*
X0129909Y0030249D02*
X0128367Y0030249D01*
X0127854Y0030763D01*
X0176406Y0030115D02*
X0176406Y0029601D01*
X0176406Y0030115D02*
X0176920Y0030629D01*
X0179489Y0030629D01*
X0177434Y0030629D02*
X0177434Y0029088D01*
X0177947Y0028574D01*
X0179489Y0028574D01*
X0178975Y0027517D02*
X0177947Y0027517D01*
X0177434Y0027003D01*
X0177434Y0025462D01*
X0180516Y0025462D01*
X0179489Y0025462D02*
X0179489Y0027003D01*
X0178975Y0027517D01*
X0182504Y0027003D02*
X0183017Y0027517D01*
X0185072Y0027517D01*
X0185586Y0027003D01*
X0185586Y0025462D01*
X0182504Y0025462D01*
X0182504Y0027003D01*
X0183017Y0028574D02*
X0184045Y0028574D01*
X0184559Y0029088D01*
X0184559Y0030115D01*
X0184045Y0030629D01*
X0183531Y0030629D01*
X0183531Y0028574D01*
X0183017Y0028574D02*
X0182504Y0029088D01*
X0182504Y0030115D01*
X0182504Y0031686D02*
X0182504Y0033227D01*
X0183017Y0033741D01*
X0183531Y0033227D01*
X0183531Y0032200D01*
X0184045Y0031686D01*
X0184559Y0032200D01*
X0184559Y0033741D01*
X0184559Y0034798D02*
X0184559Y0035312D01*
X0182504Y0035312D01*
X0182504Y0034798D02*
X0182504Y0035826D01*
X0183017Y0036873D02*
X0182504Y0037387D01*
X0182504Y0038928D01*
X0181990Y0038928D02*
X0184559Y0038928D01*
X0184559Y0037387D01*
X0184045Y0036873D01*
X0183017Y0036873D01*
X0181476Y0037901D02*
X0181476Y0038415D01*
X0181990Y0038928D01*
X0182504Y0039986D02*
X0184559Y0039986D01*
X0184559Y0041527D01*
X0184045Y0042041D01*
X0182504Y0042041D01*
X0183017Y0043098D02*
X0184045Y0043098D01*
X0184559Y0043612D01*
X0184559Y0044639D01*
X0184045Y0045153D01*
X0183531Y0045153D01*
X0183531Y0043098D01*
X0183017Y0043098D02*
X0182504Y0043612D01*
X0182504Y0044639D01*
X0183017Y0046210D02*
X0184045Y0046210D01*
X0184559Y0046724D01*
X0184559Y0048265D01*
X0185586Y0048265D02*
X0182504Y0048265D01*
X0182504Y0046724D01*
X0183017Y0046210D01*
X0180516Y0045153D02*
X0177434Y0045153D01*
X0177947Y0046210D02*
X0177434Y0046724D01*
X0177434Y0047751D01*
X0177947Y0048265D01*
X0178975Y0048265D01*
X0179489Y0047751D01*
X0179489Y0046724D01*
X0178975Y0046210D01*
X0177947Y0046210D01*
X0179489Y0044125D02*
X0180516Y0045153D01*
X0179489Y0044125D02*
X0180516Y0043098D01*
X0177434Y0043098D01*
X0180516Y0042041D02*
X0180516Y0039986D01*
X0180516Y0041013D02*
X0177434Y0041013D01*
X0177947Y0038928D02*
X0180002Y0038928D01*
X0180516Y0038415D01*
X0180516Y0037387D01*
X0180002Y0036873D01*
X0177947Y0036873D01*
X0177434Y0037387D01*
X0177434Y0038415D01*
X0177947Y0038928D01*
X0177434Y0035826D02*
X0177434Y0034798D01*
X0177434Y0035312D02*
X0180516Y0035312D01*
X0180516Y0034798D02*
X0180516Y0035826D01*
X0185586Y0035312D02*
X0186100Y0035312D01*
X0178975Y0049322D02*
X0177947Y0049322D01*
X0177434Y0049836D01*
X0177434Y0051377D01*
X0180516Y0051377D01*
X0179489Y0051377D02*
X0179489Y0049836D01*
X0178975Y0049322D01*
X0179489Y0052435D02*
X0177947Y0052435D01*
X0177434Y0052948D01*
X0177434Y0054490D01*
X0179489Y0054490D01*
X0180516Y0055547D02*
X0180516Y0056061D01*
X0177434Y0056061D01*
X0177434Y0056574D02*
X0177434Y0055547D01*
X0177947Y0057622D02*
X0178975Y0057622D01*
X0179489Y0058135D01*
X0179489Y0059163D01*
X0178975Y0059677D01*
X0178461Y0059677D01*
X0178461Y0057622D01*
X0177947Y0057622D02*
X0177434Y0058135D01*
X0177434Y0059163D01*
X0177434Y0060734D02*
X0177434Y0062275D01*
X0177947Y0062789D01*
X0178461Y0062275D01*
X0178461Y0061248D01*
X0178975Y0060734D01*
X0179489Y0061248D01*
X0179489Y0062789D01*
X0182504Y0062809D02*
X0185586Y0062809D01*
X0184559Y0063322D02*
X0184559Y0064350D01*
X0184045Y0064864D01*
X0182504Y0064864D01*
X0183017Y0065921D02*
X0184045Y0065921D01*
X0184559Y0066435D01*
X0184559Y0067462D01*
X0184045Y0067976D01*
X0183531Y0067976D01*
X0183531Y0065921D01*
X0183017Y0065921D02*
X0182504Y0066435D01*
X0182504Y0067462D01*
X0184559Y0063322D02*
X0184045Y0062809D01*
X0184559Y0061761D02*
X0184559Y0060734D01*
X0185072Y0061248D02*
X0183017Y0061248D01*
X0182504Y0061761D01*
X0182504Y0056564D02*
X0184045Y0056564D01*
X0184559Y0056051D01*
X0184559Y0054509D01*
X0182504Y0054509D01*
X0182504Y0053462D02*
X0182504Y0052435D01*
X0182504Y0052948D02*
X0184559Y0052948D01*
X0184559Y0052435D01*
X0185586Y0052948D02*
X0186100Y0052948D01*
X0185586Y0072145D02*
X0183017Y0072145D01*
X0182504Y0072659D01*
X0182504Y0073687D01*
X0183017Y0074201D01*
X0185586Y0074201D01*
X0185586Y0075258D02*
X0182504Y0075258D01*
X0183531Y0075258D02*
X0185586Y0077313D01*
X0184045Y0075771D02*
X0182504Y0077313D01*
X0130936Y0079526D02*
X0127854Y0079526D01*
X0128881Y0079526D02*
X0127854Y0081068D01*
X0128881Y0079526D02*
X0129909Y0081068D01*
X0129909Y0078469D02*
X0127854Y0078469D01*
X0127854Y0076928D01*
X0128367Y0076414D01*
X0129909Y0076414D01*
X0128367Y0075372D02*
X0127854Y0075372D01*
X0127854Y0074858D01*
X0128367Y0074858D01*
X0128367Y0075372D01*
X0114790Y0060366D02*
X0115304Y0059852D01*
X0115304Y0059338D01*
X0022935Y0069638D02*
X0021484Y0069638D01*
X0021000Y0070121D01*
X0021000Y0072056D01*
X0021484Y0072540D01*
X0022935Y0072540D01*
X0022935Y0069638D01*
X0019988Y0069638D02*
X0019021Y0069638D01*
X0019505Y0069638D02*
X0019505Y0072540D01*
X0019988Y0072540D02*
X0019021Y0072540D01*
X0018024Y0072056D02*
X0017540Y0072540D01*
X0016573Y0072540D01*
X0016089Y0072056D01*
X0018024Y0070121D01*
X0017540Y0069638D01*
X0016573Y0069638D01*
X0016089Y0070121D01*
X0016089Y0072056D01*
X0015078Y0071572D02*
X0014110Y0072540D01*
X0014110Y0069638D01*
X0013143Y0069638D02*
X0015078Y0069638D01*
X0018024Y0070121D02*
X0018024Y0072056D01*
X0017905Y0090650D02*
X0018872Y0090650D01*
X0018388Y0090650D02*
X0018388Y0093552D01*
X0017905Y0093552D02*
X0018872Y0093552D01*
X0019884Y0093069D02*
X0020367Y0093552D01*
X0021819Y0093552D01*
X0021819Y0090650D01*
X0020367Y0090650D01*
X0019884Y0091134D01*
X0019884Y0093069D01*
X0016908Y0093069D02*
X0016424Y0093552D01*
X0015456Y0093552D01*
X0014973Y0093069D01*
X0016908Y0091134D01*
X0016424Y0090650D01*
X0015456Y0090650D01*
X0014973Y0091134D01*
X0014973Y0093069D01*
X0013961Y0093069D02*
X0013477Y0093552D01*
X0012510Y0093552D01*
X0012026Y0093069D01*
X0012026Y0092585D01*
X0013961Y0090650D01*
X0012026Y0090650D01*
X0016908Y0091134D02*
X0016908Y0093069D01*
M02*
