G75*
%MOIN*%
%OFA0B0*%
%FSLAX25Y25*%
%IPPOS*%
%LPD*%
%AMOC8*
5,1,8,0,0,1.08239X$1,22.5*
%
%ADD10R,0.04724X0.03150*%
%ADD11R,0.05000X0.02500*%
%ADD12R,0.07874X0.05000*%
%ADD13R,0.03150X0.04724*%
%ADD14R,0.02400X0.08700*%
%ADD15R,0.05000X0.02200*%
%ADD16R,0.02200X0.05000*%
%ADD17R,0.04724X0.04724*%
%ADD18R,0.03937X0.05669*%
%ADD19R,0.04724X0.05669*%
%ADD20R,0.08661X0.04134*%
%ADD21R,0.04134X0.03937*%
%ADD22C,0.07400*%
%ADD23R,0.06693X0.09449*%
%ADD24R,0.02500X0.05000*%
%ADD25R,0.06500X0.06500*%
%ADD26C,0.06500*%
%ADD27R,0.05200X0.02200*%
%ADD28C,0.01000*%
%ADD29C,0.02400*%
%ADD30C,0.02381*%
%ADD31C,0.01200*%
%ADD32C,0.03169*%
%ADD33C,0.04000*%
%ADD34C,0.01600*%
D10*
X0023219Y0057269D03*
X0031656Y0057269D03*
X0039781Y0057269D03*
X0039781Y0064356D03*
X0031656Y0064356D03*
X0023219Y0064356D03*
X0025406Y0076332D03*
X0025406Y0083418D03*
X0049781Y0082793D03*
X0049781Y0075707D03*
X0063219Y0080707D03*
X0071969Y0080707D03*
X0071969Y0087793D03*
X0063219Y0087793D03*
X0115719Y0087793D03*
X0124469Y0087793D03*
X0124469Y0080707D03*
X0115719Y0080707D03*
D11*
X0018376Y0073974D03*
X0018376Y0069053D03*
D12*
X0008533Y0059211D03*
X0008533Y0083817D03*
D13*
X0055300Y0046750D03*
X0062387Y0046750D03*
X0061550Y0027375D03*
X0056137Y0027375D03*
X0049050Y0027375D03*
X0068637Y0027375D03*
X0142175Y0033000D03*
X0149262Y0033000D03*
X0149262Y0041125D03*
X0142175Y0041125D03*
X0142175Y0049250D03*
X0149262Y0049250D03*
X0149262Y0058000D03*
X0142175Y0058000D03*
D14*
X0160719Y0057700D03*
X0165719Y0057700D03*
X0170719Y0057700D03*
X0175719Y0057700D03*
X0175719Y0044550D03*
X0170719Y0044550D03*
X0165719Y0044550D03*
X0160719Y0044550D03*
X0160719Y0023950D03*
X0165719Y0023950D03*
X0170719Y0023950D03*
X0175719Y0023950D03*
X0175719Y0078300D03*
X0170719Y0078300D03*
X0165719Y0078300D03*
X0160719Y0078300D03*
D15*
G36*
X0117702Y0051300D02*
X0114168Y0054834D01*
X0115724Y0056390D01*
X0119258Y0052856D01*
X0117702Y0051300D01*
G37*
G36*
X0115475Y0049073D02*
X0111941Y0052607D01*
X0113497Y0054163D01*
X0117031Y0050629D01*
X0115475Y0049073D01*
G37*
G36*
X0113248Y0046846D02*
X0109714Y0050380D01*
X0111270Y0051936D01*
X0114804Y0048402D01*
X0113248Y0046846D01*
G37*
G36*
X0111021Y0044618D02*
X0107487Y0048152D01*
X0109043Y0049708D01*
X0112577Y0046174D01*
X0111021Y0044618D01*
G37*
G36*
X0108794Y0042391D02*
X0105260Y0045925D01*
X0106816Y0047481D01*
X0110350Y0043947D01*
X0108794Y0042391D01*
G37*
G36*
X0106567Y0040164D02*
X0103033Y0043698D01*
X0104589Y0045254D01*
X0108123Y0041720D01*
X0106567Y0040164D01*
G37*
G36*
X0104340Y0037937D02*
X0100806Y0041471D01*
X0102362Y0043027D01*
X0105896Y0039493D01*
X0104340Y0037937D01*
G37*
G36*
X0102113Y0035710D02*
X0098579Y0039244D01*
X0100135Y0040800D01*
X0103669Y0037266D01*
X0102113Y0035710D01*
G37*
G36*
X0078213Y0059610D02*
X0074679Y0063144D01*
X0076235Y0064700D01*
X0079769Y0061166D01*
X0078213Y0059610D01*
G37*
G36*
X0080440Y0061837D02*
X0076906Y0065371D01*
X0078462Y0066927D01*
X0081996Y0063393D01*
X0080440Y0061837D01*
G37*
G36*
X0082667Y0064064D02*
X0079133Y0067598D01*
X0080689Y0069154D01*
X0084223Y0065620D01*
X0082667Y0064064D01*
G37*
G36*
X0084894Y0066292D02*
X0081360Y0069826D01*
X0082916Y0071382D01*
X0086450Y0067848D01*
X0084894Y0066292D01*
G37*
G36*
X0087121Y0068519D02*
X0083587Y0072053D01*
X0085143Y0073609D01*
X0088677Y0070075D01*
X0087121Y0068519D01*
G37*
G36*
X0089348Y0070746D02*
X0085814Y0074280D01*
X0087370Y0075836D01*
X0090904Y0072302D01*
X0089348Y0070746D01*
G37*
G36*
X0091575Y0072973D02*
X0088041Y0076507D01*
X0089597Y0078063D01*
X0093131Y0074529D01*
X0091575Y0072973D01*
G37*
G36*
X0093802Y0075200D02*
X0090268Y0078734D01*
X0091824Y0080290D01*
X0095358Y0076756D01*
X0093802Y0075200D01*
G37*
D16*
G36*
X0100135Y0075200D02*
X0098579Y0076756D01*
X0102113Y0080290D01*
X0103669Y0078734D01*
X0100135Y0075200D01*
G37*
G36*
X0102362Y0072973D02*
X0100806Y0074529D01*
X0104340Y0078063D01*
X0105896Y0076507D01*
X0102362Y0072973D01*
G37*
G36*
X0104589Y0070746D02*
X0103033Y0072302D01*
X0106567Y0075836D01*
X0108123Y0074280D01*
X0104589Y0070746D01*
G37*
G36*
X0106816Y0068519D02*
X0105260Y0070075D01*
X0108794Y0073609D01*
X0110350Y0072053D01*
X0106816Y0068519D01*
G37*
G36*
X0109043Y0066292D02*
X0107487Y0067848D01*
X0111021Y0071382D01*
X0112577Y0069826D01*
X0109043Y0066292D01*
G37*
G36*
X0111270Y0064064D02*
X0109714Y0065620D01*
X0113248Y0069154D01*
X0114804Y0067598D01*
X0111270Y0064064D01*
G37*
G36*
X0113497Y0061837D02*
X0111941Y0063393D01*
X0115475Y0066927D01*
X0117031Y0065371D01*
X0113497Y0061837D01*
G37*
G36*
X0115724Y0059610D02*
X0114168Y0061166D01*
X0117702Y0064700D01*
X0119258Y0063144D01*
X0115724Y0059610D01*
G37*
G36*
X0082916Y0044618D02*
X0081360Y0046174D01*
X0084894Y0049708D01*
X0086450Y0048152D01*
X0082916Y0044618D01*
G37*
G36*
X0085143Y0042391D02*
X0083587Y0043947D01*
X0087121Y0047481D01*
X0088677Y0045925D01*
X0085143Y0042391D01*
G37*
G36*
X0087370Y0040164D02*
X0085814Y0041720D01*
X0089348Y0045254D01*
X0090904Y0043698D01*
X0087370Y0040164D01*
G37*
G36*
X0089597Y0037937D02*
X0088041Y0039493D01*
X0091575Y0043027D01*
X0093131Y0041471D01*
X0089597Y0037937D01*
G37*
G36*
X0091824Y0035710D02*
X0090268Y0037266D01*
X0093802Y0040800D01*
X0095358Y0039244D01*
X0091824Y0035710D01*
G37*
G36*
X0080689Y0046846D02*
X0079133Y0048402D01*
X0082667Y0051936D01*
X0084223Y0050380D01*
X0080689Y0046846D01*
G37*
G36*
X0078462Y0049073D02*
X0076906Y0050629D01*
X0080440Y0054163D01*
X0081996Y0052607D01*
X0078462Y0049073D01*
G37*
G36*
X0076235Y0051300D02*
X0074679Y0052856D01*
X0078213Y0056390D01*
X0079769Y0054834D01*
X0076235Y0051300D01*
G37*
D17*
X0140335Y0066750D03*
X0148602Y0066750D03*
D18*
X0041959Y0076482D03*
X0041959Y0085143D03*
X0034478Y0085143D03*
D19*
X0035266Y0076482D03*
D20*
X0008473Y0042757D03*
X0008473Y0031143D03*
D21*
X0014487Y0036950D03*
D22*
X0021461Y0033290D03*
D23*
X0051560Y0036750D03*
X0066127Y0036750D03*
D24*
X0131447Y0050500D03*
X0134990Y0050500D03*
X0134990Y0059250D03*
X0131447Y0059250D03*
D25*
X0191969Y0033000D03*
X0151969Y0013000D03*
X0151969Y0103000D03*
D26*
X0141969Y0103000D03*
X0131969Y0103000D03*
X0121969Y0103000D03*
X0111969Y0103000D03*
X0101969Y0103000D03*
X0091969Y0103000D03*
X0081969Y0103000D03*
X0071969Y0103000D03*
X0061969Y0103000D03*
X0051969Y0103000D03*
X0041969Y0103000D03*
X0191969Y0083000D03*
X0191969Y0073000D03*
X0191969Y0063000D03*
X0191969Y0053000D03*
X0191969Y0043000D03*
X0141969Y0013000D03*
X0131969Y0013000D03*
X0121969Y0013000D03*
X0111969Y0013000D03*
X0101969Y0013000D03*
X0091969Y0013000D03*
X0081969Y0013000D03*
X0071969Y0013000D03*
X0061969Y0013000D03*
X0051969Y0013000D03*
X0041969Y0013000D03*
D27*
X0164069Y0088050D03*
X0164069Y0091750D03*
X0164069Y0095450D03*
X0174869Y0095450D03*
X0174869Y0088050D03*
D28*
X0006340Y0008580D02*
X0004600Y0009301D01*
X0003269Y0010632D01*
X0002549Y0012371D01*
X0002456Y0013312D01*
X0002456Y0103312D01*
X0002537Y0104132D01*
X0003164Y0105646D01*
X0004323Y0106805D01*
X0005837Y0107432D01*
X0006656Y0107512D01*
X0040485Y0107512D01*
X0040145Y0107402D01*
X0039479Y0107063D01*
X0038874Y0106623D01*
X0038345Y0106094D01*
X0037906Y0105490D01*
X0037567Y0104823D01*
X0037335Y0104112D01*
X0037219Y0103375D01*
X0041593Y0103375D01*
X0041593Y0102625D01*
X0037219Y0102625D01*
X0037335Y0101888D01*
X0037567Y0101177D01*
X0037906Y0100510D01*
X0038345Y0099906D01*
X0038874Y0099377D01*
X0039479Y0098937D01*
X0040145Y0098598D01*
X0040856Y0098367D01*
X0041593Y0098250D01*
X0041593Y0102625D01*
X0042344Y0102625D01*
X0042344Y0103375D01*
X0046718Y0103375D01*
X0046602Y0104112D01*
X0046370Y0104823D01*
X0046031Y0105490D01*
X0045592Y0106094D01*
X0045063Y0106623D01*
X0044458Y0107063D01*
X0043792Y0107402D01*
X0043452Y0107512D01*
X0191338Y0107512D01*
X0191348Y0107503D01*
X0191667Y0107512D01*
X0191684Y0107512D01*
X0192592Y0107449D01*
X0194295Y0106800D01*
X0195620Y0105549D01*
X0196366Y0103885D01*
X0196481Y0102980D01*
X0196481Y0037063D01*
X0196419Y0037171D01*
X0196140Y0037450D01*
X0195797Y0037648D01*
X0195416Y0037750D01*
X0192344Y0037750D01*
X0192344Y0033375D01*
X0191593Y0033375D01*
X0191593Y0032625D01*
X0187219Y0032625D01*
X0187219Y0029553D01*
X0187321Y0029171D01*
X0187518Y0028829D01*
X0187797Y0028550D01*
X0188140Y0028352D01*
X0188521Y0028250D01*
X0191593Y0028250D01*
X0191593Y0032625D01*
X0192344Y0032625D01*
X0192344Y0028250D01*
X0195416Y0028250D01*
X0195797Y0028352D01*
X0196140Y0028550D01*
X0196419Y0028829D01*
X0196481Y0028937D01*
X0196481Y0013254D01*
X0196436Y0013191D01*
X0196481Y0012932D01*
X0196481Y0012669D01*
X0196509Y0012641D01*
X0196547Y0012121D01*
X0196220Y0010676D01*
X0195366Y0009465D01*
X0194113Y0008674D01*
X0193437Y0008487D01*
X0007281Y0008487D01*
X0006340Y0008580D01*
X0007124Y0008503D02*
X0193493Y0008503D01*
X0193044Y0010149D02*
X0194819Y0011925D01*
X0195780Y0014244D01*
X0195780Y0016755D01*
X0194819Y0019075D01*
X0193044Y0020851D01*
X0190724Y0021812D01*
X0188213Y0021812D01*
X0185893Y0020851D01*
X0184118Y0019075D01*
X0183157Y0016755D01*
X0183157Y0014244D01*
X0184118Y0011925D01*
X0185893Y0010149D01*
X0188213Y0009188D01*
X0190724Y0009188D01*
X0193044Y0010149D01*
X0193395Y0010500D02*
X0196096Y0010500D01*
X0196406Y0011499D02*
X0194393Y0011499D01*
X0195056Y0012497D02*
X0196519Y0012497D01*
X0196481Y0013496D02*
X0195470Y0013496D01*
X0195780Y0014494D02*
X0196481Y0014494D01*
X0196481Y0015493D02*
X0195780Y0015493D01*
X0195780Y0016491D02*
X0196481Y0016491D01*
X0196481Y0017490D02*
X0195476Y0017490D01*
X0195063Y0018488D02*
X0196481Y0018488D01*
X0196481Y0019487D02*
X0194408Y0019487D01*
X0193410Y0020485D02*
X0196481Y0020485D01*
X0196481Y0021484D02*
X0191516Y0021484D01*
X0196481Y0022482D02*
X0178418Y0022482D01*
X0178418Y0021484D02*
X0187421Y0021484D01*
X0185527Y0020485D02*
X0178418Y0020485D01*
X0178418Y0019487D02*
X0184529Y0019487D01*
X0183874Y0018488D02*
X0177928Y0018488D01*
X0177840Y0018400D02*
X0178119Y0018679D01*
X0178316Y0019021D01*
X0178418Y0019403D01*
X0178418Y0023850D01*
X0175819Y0023850D01*
X0175819Y0024050D01*
X0178418Y0024050D01*
X0178418Y0028497D01*
X0178316Y0028879D01*
X0178119Y0029221D01*
X0177840Y0029500D01*
X0177497Y0029698D01*
X0177116Y0029800D01*
X0175819Y0029800D01*
X0175819Y0024050D01*
X0175618Y0024050D01*
X0175618Y0023850D01*
X0173019Y0023850D01*
X0173019Y0019403D01*
X0173121Y0019021D01*
X0173318Y0018679D01*
X0173597Y0018400D01*
X0173940Y0018202D01*
X0174321Y0018100D01*
X0175618Y0018100D01*
X0175618Y0023850D01*
X0175819Y0023850D01*
X0175819Y0018100D01*
X0177116Y0018100D01*
X0177497Y0018202D01*
X0177840Y0018400D01*
X0175819Y0018488D02*
X0175618Y0018488D01*
X0175618Y0019487D02*
X0175819Y0019487D01*
X0175819Y0020485D02*
X0175618Y0020485D01*
X0175618Y0021484D02*
X0175819Y0021484D01*
X0175819Y0022482D02*
X0175618Y0022482D01*
X0175618Y0023481D02*
X0175819Y0023481D01*
X0175618Y0024050D02*
X0173019Y0024050D01*
X0173019Y0028497D01*
X0173121Y0028879D01*
X0173318Y0029221D01*
X0173597Y0029500D01*
X0173940Y0029698D01*
X0174321Y0029800D01*
X0175618Y0029800D01*
X0175618Y0024050D01*
X0175618Y0024479D02*
X0175819Y0024479D01*
X0175819Y0025478D02*
X0175618Y0025478D01*
X0175618Y0026476D02*
X0175819Y0026476D01*
X0175819Y0027475D02*
X0175618Y0027475D01*
X0175618Y0028473D02*
X0175819Y0028473D01*
X0175819Y0029472D02*
X0175618Y0029472D01*
X0173569Y0029472D02*
X0172418Y0029472D01*
X0172418Y0029356D02*
X0172418Y0032550D01*
X0181423Y0032550D01*
X0182418Y0033546D01*
X0182418Y0051300D01*
X0187964Y0051300D01*
X0188281Y0050536D01*
X0189504Y0049312D01*
X0191103Y0048650D01*
X0192834Y0048650D01*
X0194433Y0049312D01*
X0195656Y0050536D01*
X0196318Y0052135D01*
X0196318Y0053865D01*
X0195656Y0055464D01*
X0194433Y0056688D01*
X0192834Y0057350D01*
X0191103Y0057350D01*
X0189504Y0056688D01*
X0188281Y0055464D01*
X0187964Y0054700D01*
X0182418Y0054700D01*
X0182418Y0071204D01*
X0181423Y0072200D01*
X0172418Y0072200D01*
X0172418Y0072894D01*
X0173018Y0073494D01*
X0173018Y0083106D01*
X0172418Y0083706D01*
X0172418Y0085850D01*
X0177924Y0085850D01*
X0178568Y0086494D01*
X0178568Y0089606D01*
X0177924Y0090250D01*
X0171813Y0090250D01*
X0171313Y0089750D01*
X0170014Y0089750D01*
X0169019Y0088754D01*
X0169019Y0083706D01*
X0168419Y0083106D01*
X0168419Y0073494D01*
X0169019Y0072894D01*
X0169019Y0069796D01*
X0170014Y0068800D01*
X0179019Y0068800D01*
X0179019Y0035950D01*
X0176759Y0035950D01*
X0176759Y0036636D01*
X0177418Y0037296D01*
X0177418Y0039144D01*
X0178018Y0039744D01*
X0178018Y0049356D01*
X0177374Y0050000D01*
X0174063Y0050000D01*
X0173419Y0049356D01*
X0173419Y0039744D01*
X0174019Y0039144D01*
X0174019Y0039041D01*
X0173520Y0039041D01*
X0173009Y0038530D01*
X0173009Y0039735D01*
X0173018Y0039744D01*
X0173018Y0049356D01*
X0172374Y0050000D01*
X0169063Y0050000D01*
X0168419Y0049356D01*
X0168419Y0039744D01*
X0168428Y0039735D01*
X0168428Y0038301D01*
X0169770Y0036959D01*
X0171667Y0036959D01*
X0172178Y0037470D01*
X0172178Y0035950D01*
X0167418Y0035950D01*
X0167418Y0039144D01*
X0168018Y0039744D01*
X0168018Y0049356D01*
X0167374Y0050000D01*
X0164063Y0050000D01*
X0163419Y0049356D01*
X0163419Y0039744D01*
X0164019Y0039144D01*
X0164019Y0035950D01*
X0162418Y0035950D01*
X0162418Y0039144D01*
X0163018Y0039744D01*
X0163018Y0049356D01*
X0162374Y0050000D01*
X0159063Y0050000D01*
X0158419Y0049356D01*
X0158419Y0039744D01*
X0159019Y0039144D01*
X0159019Y0038354D01*
X0156168Y0041204D01*
X0155173Y0042200D01*
X0151937Y0042200D01*
X0151937Y0043943D01*
X0151292Y0044587D01*
X0150962Y0044587D01*
X0150962Y0045788D01*
X0151292Y0045788D01*
X0151937Y0046432D01*
X0151937Y0052068D01*
X0151454Y0052550D01*
X0153764Y0052550D01*
X0155269Y0051046D01*
X0156264Y0050050D01*
X0171423Y0050050D01*
X0172418Y0051046D01*
X0172418Y0052294D01*
X0173018Y0052894D01*
X0173018Y0062506D01*
X0172374Y0063150D01*
X0169063Y0063150D01*
X0168419Y0062506D01*
X0168419Y0053450D01*
X0168018Y0053450D01*
X0168018Y0062506D01*
X0167418Y0063106D01*
X0167418Y0066204D01*
X0166423Y0067200D01*
X0157673Y0067200D01*
X0153668Y0071204D01*
X0152673Y0072200D01*
X0149918Y0072200D01*
X0149918Y0086461D01*
X0150509Y0087051D01*
X0150509Y0088949D01*
X0149167Y0090291D01*
X0147270Y0090291D01*
X0146168Y0089189D01*
X0146168Y0094796D01*
X0150023Y0098650D01*
X0155674Y0098650D01*
X0156318Y0099294D01*
X0156318Y0106706D01*
X0155674Y0107350D01*
X0148263Y0107350D01*
X0147619Y0106706D01*
X0147619Y0101054D01*
X0143668Y0097104D01*
X0143668Y0098996D01*
X0144433Y0099312D01*
X0145656Y0100536D01*
X0146318Y0102135D01*
X0146318Y0103865D01*
X0145656Y0105464D01*
X0144433Y0106688D01*
X0142834Y0107350D01*
X0141103Y0107350D01*
X0139504Y0106688D01*
X0138281Y0105464D01*
X0137619Y0103865D01*
X0137619Y0102135D01*
X0138281Y0100536D01*
X0139504Y0099312D01*
X0140269Y0098996D01*
X0140269Y0090291D01*
X0138520Y0090291D01*
X0137418Y0089189D01*
X0137418Y0099954D01*
X0136002Y0101371D01*
X0136318Y0102135D01*
X0136318Y0103865D01*
X0135656Y0105464D01*
X0134433Y0106688D01*
X0132834Y0107350D01*
X0131103Y0107350D01*
X0129504Y0106688D01*
X0128281Y0105464D01*
X0127619Y0103865D01*
X0127619Y0102135D01*
X0128281Y0100536D01*
X0129504Y0099312D01*
X0131103Y0098650D01*
X0132834Y0098650D01*
X0133598Y0098966D01*
X0134019Y0098546D01*
X0134019Y0097104D01*
X0133923Y0097200D01*
X0130173Y0097200D01*
X0126002Y0101371D01*
X0126318Y0102135D01*
X0126318Y0103865D01*
X0125656Y0105464D01*
X0124433Y0106688D01*
X0122834Y0107350D01*
X0121103Y0107350D01*
X0119504Y0106688D01*
X0118281Y0105464D01*
X0117619Y0103865D01*
X0117619Y0102135D01*
X0118281Y0100536D01*
X0119504Y0099312D01*
X0121103Y0098650D01*
X0122834Y0098650D01*
X0123598Y0098966D01*
X0127864Y0094700D01*
X0122673Y0094700D01*
X0116002Y0101371D01*
X0116318Y0102135D01*
X0116318Y0103865D01*
X0115656Y0105464D01*
X0114433Y0106688D01*
X0112834Y0107350D01*
X0111103Y0107350D01*
X0109504Y0106688D01*
X0108281Y0105464D01*
X0107619Y0103865D01*
X0107619Y0102135D01*
X0108281Y0100536D01*
X0109504Y0099312D01*
X0111103Y0098650D01*
X0112834Y0098650D01*
X0113598Y0098966D01*
X0121264Y0091300D01*
X0129019Y0091300D01*
X0129019Y0084954D01*
X0127366Y0083302D01*
X0127286Y0083381D01*
X0121651Y0083381D01*
X0121006Y0082737D01*
X0121006Y0078676D01*
X0121464Y0078218D01*
X0117418Y0074173D01*
X0117418Y0078032D01*
X0118536Y0078032D01*
X0119181Y0078676D01*
X0119181Y0082737D01*
X0118536Y0083381D01*
X0117418Y0083381D01*
X0117418Y0084954D01*
X0117254Y0085119D01*
X0118536Y0085119D01*
X0119127Y0085709D01*
X0120417Y0085709D01*
X0121006Y0086298D01*
X0121006Y0085763D01*
X0121651Y0085119D01*
X0127286Y0085119D01*
X0127931Y0085763D01*
X0127931Y0089824D01*
X0127286Y0090468D01*
X0121651Y0090468D01*
X0121006Y0089824D01*
X0121006Y0089702D01*
X0120417Y0090291D01*
X0118714Y0090291D01*
X0118536Y0090468D01*
X0113668Y0090468D01*
X0113668Y0093704D01*
X0106002Y0101371D01*
X0106318Y0102135D01*
X0106318Y0103865D01*
X0105656Y0105464D01*
X0104433Y0106688D01*
X0102834Y0107350D01*
X0101103Y0107350D01*
X0099504Y0106688D01*
X0098281Y0105464D01*
X0097619Y0103865D01*
X0097619Y0102135D01*
X0098281Y0100536D01*
X0099504Y0099312D01*
X0101103Y0098650D01*
X0102834Y0098650D01*
X0103598Y0098966D01*
X0110269Y0092296D01*
X0110269Y0085854D01*
X0106423Y0089700D01*
X0081073Y0089700D01*
X0090339Y0098966D01*
X0091103Y0098650D01*
X0092834Y0098650D01*
X0094433Y0099312D01*
X0095656Y0100536D01*
X0096318Y0102135D01*
X0096318Y0103865D01*
X0095656Y0105464D01*
X0094433Y0106688D01*
X0092834Y0107350D01*
X0091103Y0107350D01*
X0089504Y0106688D01*
X0088281Y0105464D01*
X0087619Y0103865D01*
X0087619Y0102135D01*
X0087935Y0101371D01*
X0078949Y0092384D01*
X0078542Y0092791D01*
X0076645Y0092791D01*
X0075303Y0091449D01*
X0075303Y0089951D01*
X0074786Y0090468D01*
X0069151Y0090468D01*
X0068506Y0089824D01*
X0068506Y0085950D01*
X0066681Y0085950D01*
X0066681Y0089824D01*
X0066036Y0090468D01*
X0064918Y0090468D01*
X0064918Y0099798D01*
X0065656Y0100536D01*
X0066318Y0102135D01*
X0066318Y0103865D01*
X0065656Y0105464D01*
X0064433Y0106688D01*
X0062834Y0107350D01*
X0061103Y0107350D01*
X0059504Y0106688D01*
X0058281Y0105464D01*
X0057619Y0103865D01*
X0057619Y0102135D01*
X0057686Y0101971D01*
X0047169Y0091453D01*
X0047169Y0085468D01*
X0046963Y0085468D01*
X0046588Y0085093D01*
X0045027Y0085093D01*
X0045027Y0088433D01*
X0044383Y0089078D01*
X0039535Y0089078D01*
X0038890Y0088433D01*
X0038890Y0083984D01*
X0037547Y0085327D01*
X0037547Y0088433D01*
X0036902Y0089078D01*
X0036768Y0089078D01*
X0036768Y0091950D01*
X0044171Y0091950D01*
X0045518Y0093297D01*
X0050939Y0098718D01*
X0051103Y0098650D01*
X0052834Y0098650D01*
X0054433Y0099312D01*
X0055656Y0100536D01*
X0056318Y0102135D01*
X0056318Y0103865D01*
X0055656Y0105464D01*
X0054433Y0106688D01*
X0052834Y0107350D01*
X0051103Y0107350D01*
X0049504Y0106688D01*
X0048281Y0105464D01*
X0047619Y0103865D01*
X0047619Y0102135D01*
X0047686Y0101971D01*
X0042266Y0096550D01*
X0033516Y0096550D01*
X0032169Y0095203D01*
X0032169Y0089078D01*
X0032054Y0089078D01*
X0031410Y0088433D01*
X0031410Y0085718D01*
X0028599Y0085718D01*
X0028224Y0086093D01*
X0022588Y0086093D01*
X0022213Y0085718D01*
X0018381Y0085718D01*
X0017428Y0085719D01*
X0017428Y0085718D01*
X0017427Y0085718D01*
X0016754Y0085045D01*
X0016080Y0084372D01*
X0016080Y0084371D01*
X0016080Y0083426D01*
X0016078Y0079629D01*
X0015417Y0080291D01*
X0013520Y0080291D01*
X0012929Y0079700D01*
X0009758Y0079700D01*
X0009241Y0080217D01*
X0012926Y0080217D01*
X0013570Y0080861D01*
X0013570Y0086773D01*
X0012926Y0087417D01*
X0004141Y0087417D01*
X0003496Y0086773D01*
X0003496Y0080861D01*
X0004141Y0080217D01*
X0007196Y0080217D01*
X0005928Y0078949D01*
X0005928Y0077051D01*
X0007270Y0075709D01*
X0009167Y0075709D01*
X0009758Y0076300D01*
X0012929Y0076300D01*
X0012978Y0076251D01*
X0010713Y0076241D01*
X0009766Y0076241D01*
X0009762Y0076237D01*
X0009756Y0076237D01*
X0009087Y0075563D01*
X0008419Y0074894D01*
X0008419Y0074888D01*
X0008414Y0074884D01*
X0008419Y0073935D01*
X0008419Y0063297D01*
X0008905Y0062811D01*
X0004141Y0062811D01*
X0003496Y0062166D01*
X0003496Y0056255D01*
X0004141Y0055611D01*
X0012926Y0055611D01*
X0013570Y0056255D01*
X0013570Y0061950D01*
X0020132Y0061950D01*
X0020401Y0061681D01*
X0026036Y0061681D01*
X0026681Y0062325D01*
X0026681Y0066386D01*
X0026036Y0067031D01*
X0022162Y0067031D01*
X0022274Y0067224D01*
X0022376Y0067606D01*
X0022376Y0068928D01*
X0018501Y0068928D01*
X0018501Y0069178D01*
X0022376Y0069178D01*
X0022376Y0070501D01*
X0022274Y0070882D01*
X0022076Y0071224D01*
X0021797Y0071503D01*
X0021455Y0071701D01*
X0021418Y0071711D01*
X0021976Y0072269D01*
X0021976Y0073703D01*
X0022123Y0073557D01*
X0022465Y0073359D01*
X0022846Y0073257D01*
X0025119Y0073257D01*
X0025119Y0076044D01*
X0025693Y0076044D01*
X0025693Y0073257D01*
X0027966Y0073257D01*
X0028347Y0073359D01*
X0028689Y0073557D01*
X0028968Y0073836D01*
X0029166Y0074178D01*
X0029268Y0074559D01*
X0029268Y0076044D01*
X0025693Y0076044D01*
X0025693Y0076619D01*
X0025119Y0076619D01*
X0025119Y0079406D01*
X0022846Y0079406D01*
X0022465Y0079304D01*
X0022123Y0079107D01*
X0021844Y0078828D01*
X0021646Y0078485D01*
X0021544Y0078104D01*
X0021544Y0076619D01*
X0025119Y0076619D01*
X0025119Y0076044D01*
X0021612Y0076044D01*
X0021332Y0076324D01*
X0020677Y0076324D01*
X0020679Y0081118D01*
X0022213Y0081118D01*
X0022588Y0080744D01*
X0028224Y0080744D01*
X0028599Y0081118D01*
X0035251Y0081118D01*
X0035766Y0080603D01*
X0035766Y0076982D01*
X0034766Y0076982D01*
X0034766Y0080816D01*
X0032706Y0080816D01*
X0032325Y0080714D01*
X0031983Y0080517D01*
X0031703Y0080237D01*
X0031506Y0079895D01*
X0031404Y0079514D01*
X0031404Y0076982D01*
X0034766Y0076982D01*
X0034766Y0075982D01*
X0035766Y0075982D01*
X0035766Y0072147D01*
X0037825Y0072147D01*
X0038207Y0072249D01*
X0038549Y0072447D01*
X0038828Y0072726D01*
X0039021Y0073060D01*
X0039535Y0072547D01*
X0044383Y0072547D01*
X0045027Y0073191D01*
X0045027Y0079772D01*
X0044383Y0080416D01*
X0042458Y0080416D01*
X0042381Y0080493D01*
X0046588Y0080493D01*
X0046963Y0080119D01*
X0052599Y0080119D01*
X0052723Y0080243D01*
X0053419Y0079547D01*
X0053419Y0078073D01*
X0053343Y0078203D01*
X0053064Y0078482D01*
X0052722Y0078679D01*
X0052341Y0078781D01*
X0050068Y0078781D01*
X0050068Y0075994D01*
X0049494Y0075994D01*
X0049494Y0078781D01*
X0047221Y0078781D01*
X0046840Y0078679D01*
X0046498Y0078482D01*
X0046219Y0078203D01*
X0046021Y0077860D01*
X0045919Y0077479D01*
X0045919Y0075994D01*
X0049494Y0075994D01*
X0049494Y0075419D01*
X0050068Y0075419D01*
X0050068Y0072632D01*
X0052341Y0072632D01*
X0052722Y0072734D01*
X0053064Y0072932D01*
X0053343Y0073211D01*
X0053419Y0073341D01*
X0053419Y0068953D01*
X0052626Y0068160D01*
X0051698Y0067776D01*
X0050943Y0067020D01*
X0050534Y0066034D01*
X0050534Y0064966D01*
X0050943Y0063979D01*
X0051698Y0063224D01*
X0052685Y0062816D01*
X0053752Y0062816D01*
X0054739Y0063224D01*
X0055494Y0063979D01*
X0055878Y0064907D01*
X0056671Y0065700D01*
X0056671Y0065700D01*
X0058018Y0067047D01*
X0058018Y0081453D01*
X0057512Y0081959D01*
X0057917Y0081959D01*
X0058508Y0082550D01*
X0059756Y0082550D01*
X0059756Y0078676D01*
X0060401Y0078032D01*
X0061519Y0078032D01*
X0061519Y0069954D01*
X0039019Y0047454D01*
X0039019Y0017296D01*
X0039591Y0016724D01*
X0039504Y0016688D01*
X0038281Y0015464D01*
X0037619Y0013865D01*
X0037619Y0012135D01*
X0038281Y0010536D01*
X0039504Y0009312D01*
X0041103Y0008650D01*
X0042834Y0008650D01*
X0044433Y0009312D01*
X0045656Y0010536D01*
X0046318Y0012135D01*
X0046318Y0013865D01*
X0045656Y0015464D01*
X0044433Y0016688D01*
X0043668Y0017004D01*
X0043668Y0017454D01*
X0042418Y0018704D01*
X0042418Y0018896D01*
X0042514Y0018800D01*
X0043764Y0018800D01*
X0047935Y0014629D01*
X0047619Y0013865D01*
X0047619Y0012135D01*
X0048281Y0010536D01*
X0049504Y0009312D01*
X0051103Y0008650D01*
X0052834Y0008650D01*
X0054433Y0009312D01*
X0055656Y0010536D01*
X0056318Y0012135D01*
X0056318Y0013865D01*
X0055656Y0015464D01*
X0054433Y0016688D01*
X0052834Y0017350D01*
X0051103Y0017350D01*
X0050339Y0017033D01*
X0046073Y0021300D01*
X0051264Y0021300D01*
X0057935Y0014629D01*
X0057619Y0013865D01*
X0057619Y0012135D01*
X0058281Y0010536D01*
X0059504Y0009312D01*
X0061103Y0008650D01*
X0062834Y0008650D01*
X0064433Y0009312D01*
X0065656Y0010536D01*
X0066318Y0012135D01*
X0066318Y0013865D01*
X0065656Y0015464D01*
X0064433Y0016688D01*
X0062834Y0017350D01*
X0061103Y0017350D01*
X0060339Y0017033D01*
X0052673Y0024700D01*
X0051725Y0024700D01*
X0051725Y0030193D01*
X0051081Y0030837D01*
X0050750Y0030837D01*
X0050750Y0030926D01*
X0053629Y0030926D01*
X0053362Y0030658D01*
X0053164Y0030316D01*
X0053062Y0029935D01*
X0053062Y0027662D01*
X0055849Y0027662D01*
X0055849Y0027088D01*
X0053062Y0027088D01*
X0053062Y0024815D01*
X0053164Y0024434D01*
X0053362Y0024092D01*
X0053641Y0023812D01*
X0053983Y0023615D01*
X0054365Y0023513D01*
X0055849Y0023513D01*
X0055849Y0027088D01*
X0056424Y0027088D01*
X0056424Y0027662D01*
X0061263Y0027662D01*
X0061263Y0027088D01*
X0058475Y0027088D01*
X0056424Y0027088D01*
X0056424Y0023513D01*
X0057909Y0023513D01*
X0058291Y0023615D01*
X0058633Y0023812D01*
X0058843Y0024023D01*
X0059054Y0023812D01*
X0059396Y0023615D01*
X0059778Y0023513D01*
X0061263Y0023513D01*
X0061263Y0027088D01*
X0061838Y0027088D01*
X0061838Y0027662D01*
X0064625Y0027662D01*
X0064625Y0029935D01*
X0064523Y0030316D01*
X0064325Y0030658D01*
X0064058Y0030926D01*
X0067037Y0030926D01*
X0067037Y0030837D01*
X0066606Y0030837D01*
X0065962Y0030193D01*
X0065962Y0024557D01*
X0066606Y0023913D01*
X0070269Y0023913D01*
X0070269Y0017004D01*
X0069504Y0016688D01*
X0068281Y0015464D01*
X0067619Y0013865D01*
X0067619Y0012135D01*
X0068281Y0010536D01*
X0069504Y0009312D01*
X0071103Y0008650D01*
X0072834Y0008650D01*
X0074433Y0009312D01*
X0075656Y0010536D01*
X0076318Y0012135D01*
X0076318Y0013865D01*
X0075656Y0015464D01*
X0074433Y0016688D01*
X0073668Y0017004D01*
X0073668Y0018896D01*
X0073764Y0018800D01*
X0077935Y0014629D01*
X0077619Y0013865D01*
X0077619Y0012135D01*
X0078281Y0010536D01*
X0079504Y0009312D01*
X0081103Y0008650D01*
X0082834Y0008650D01*
X0084433Y0009312D01*
X0085656Y0010536D01*
X0086318Y0012135D01*
X0086318Y0013865D01*
X0085656Y0015464D01*
X0084433Y0016688D01*
X0082834Y0017350D01*
X0081103Y0017350D01*
X0080339Y0017034D01*
X0077323Y0020050D01*
X0082514Y0020050D01*
X0087935Y0014629D01*
X0087619Y0013865D01*
X0087619Y0012135D01*
X0088281Y0010536D01*
X0089504Y0009312D01*
X0091103Y0008650D01*
X0092834Y0008650D01*
X0094433Y0009312D01*
X0095656Y0010536D01*
X0096318Y0012135D01*
X0096318Y0013865D01*
X0095656Y0015464D01*
X0094433Y0016688D01*
X0092834Y0017350D01*
X0091103Y0017350D01*
X0090339Y0017033D01*
X0084918Y0022454D01*
X0084918Y0022454D01*
X0084823Y0022550D01*
X0090014Y0022550D01*
X0097935Y0014629D01*
X0097619Y0013865D01*
X0097619Y0012135D01*
X0098281Y0010536D01*
X0099504Y0009312D01*
X0101103Y0008650D01*
X0102834Y0008650D01*
X0104433Y0009312D01*
X0105656Y0010536D01*
X0106318Y0012135D01*
X0106318Y0013865D01*
X0105656Y0015464D01*
X0104433Y0016688D01*
X0102834Y0017350D01*
X0101103Y0017350D01*
X0100339Y0017033D01*
X0092418Y0024954D01*
X0092323Y0025050D01*
X0093764Y0025050D01*
X0100014Y0018800D01*
X0103764Y0018800D01*
X0107935Y0014629D01*
X0107619Y0013865D01*
X0107619Y0012135D01*
X0108281Y0010536D01*
X0109504Y0009312D01*
X0111103Y0008650D01*
X0112834Y0008650D01*
X0114433Y0009312D01*
X0115656Y0010536D01*
X0116318Y0012135D01*
X0116318Y0013865D01*
X0115656Y0015464D01*
X0114433Y0016688D01*
X0112834Y0017350D01*
X0111103Y0017350D01*
X0110339Y0017033D01*
X0106168Y0021204D01*
X0106168Y0021204D01*
X0106073Y0021300D01*
X0111264Y0021300D01*
X0117935Y0014629D01*
X0117619Y0013865D01*
X0117619Y0012135D01*
X0118281Y0010536D01*
X0119504Y0009312D01*
X0121103Y0008650D01*
X0122834Y0008650D01*
X0124433Y0009312D01*
X0125656Y0010536D01*
X0126318Y0012135D01*
X0126318Y0013865D01*
X0125656Y0015464D01*
X0124433Y0016688D01*
X0122834Y0017350D01*
X0121103Y0017350D01*
X0120339Y0017034D01*
X0113668Y0023704D01*
X0113573Y0023800D01*
X0118764Y0023800D01*
X0127935Y0014629D01*
X0127619Y0013865D01*
X0127619Y0012135D01*
X0128281Y0010536D01*
X0129504Y0009312D01*
X0131103Y0008650D01*
X0132834Y0008650D01*
X0134433Y0009312D01*
X0135656Y0010536D01*
X0136318Y0012135D01*
X0136318Y0013865D01*
X0135656Y0015464D01*
X0134433Y0016688D01*
X0132834Y0017350D01*
X0131103Y0017350D01*
X0130339Y0017033D01*
X0121168Y0026204D01*
X0121073Y0026300D01*
X0126264Y0026300D01*
X0137935Y0014629D01*
X0137619Y0013865D01*
X0137619Y0012135D01*
X0138281Y0010536D01*
X0139504Y0009312D01*
X0141103Y0008650D01*
X0142834Y0008650D01*
X0144433Y0009312D01*
X0145656Y0010536D01*
X0146318Y0012135D01*
X0146318Y0013865D01*
X0145656Y0015464D01*
X0144433Y0016688D01*
X0142834Y0017350D01*
X0141103Y0017350D01*
X0140339Y0017033D01*
X0128668Y0028704D01*
X0127673Y0029700D01*
X0105173Y0029700D01*
X0098009Y0036864D01*
X0098009Y0037699D01*
X0096667Y0039041D01*
X0096459Y0039041D01*
X0096459Y0039681D01*
X0097600Y0038540D01*
X0097728Y0038540D01*
X0101658Y0034609D01*
X0102365Y0034609D01*
X0106925Y0030050D01*
X0132514Y0030050D01*
X0147619Y0014946D01*
X0147619Y0009294D01*
X0148263Y0008650D01*
X0155674Y0008650D01*
X0156318Y0009294D01*
X0156318Y0016706D01*
X0155674Y0017350D01*
X0150023Y0017350D01*
X0136073Y0031300D01*
X0139500Y0031300D01*
X0139500Y0030182D01*
X0140145Y0029538D01*
X0140475Y0029538D01*
X0140475Y0028339D01*
X0145569Y0023246D01*
X0146564Y0022250D01*
X0158419Y0022250D01*
X0158419Y0019144D01*
X0159063Y0018500D01*
X0162374Y0018500D01*
X0163018Y0019144D01*
X0163018Y0028756D01*
X0162374Y0029400D01*
X0159063Y0029400D01*
X0158419Y0028756D01*
X0158419Y0025650D01*
X0147973Y0025650D01*
X0144085Y0029538D01*
X0144206Y0029538D01*
X0144850Y0030182D01*
X0144850Y0035050D01*
X0146587Y0035050D01*
X0146587Y0030182D01*
X0147231Y0029538D01*
X0151292Y0029538D01*
X0151937Y0030182D01*
X0151937Y0035818D01*
X0151292Y0036462D01*
X0150962Y0036462D01*
X0150962Y0037663D01*
X0151292Y0037663D01*
X0151937Y0038307D01*
X0151937Y0038800D01*
X0153764Y0038800D01*
X0159019Y0033546D01*
X0160014Y0032550D01*
X0169019Y0032550D01*
X0169019Y0029356D01*
X0168419Y0028756D01*
X0168419Y0019144D01*
X0169063Y0018500D01*
X0172374Y0018500D01*
X0173018Y0019144D01*
X0173018Y0028756D01*
X0172418Y0029356D01*
X0173018Y0028473D02*
X0173019Y0028473D01*
X0173018Y0027475D02*
X0173019Y0027475D01*
X0173018Y0026476D02*
X0173019Y0026476D01*
X0173018Y0025478D02*
X0173019Y0025478D01*
X0173018Y0024479D02*
X0173019Y0024479D01*
X0173018Y0023481D02*
X0173019Y0023481D01*
X0173018Y0022482D02*
X0173019Y0022482D01*
X0173018Y0021484D02*
X0173019Y0021484D01*
X0173018Y0020485D02*
X0173019Y0020485D01*
X0173018Y0019487D02*
X0173019Y0019487D01*
X0173509Y0018488D02*
X0167418Y0018488D01*
X0167418Y0018544D02*
X0168018Y0019144D01*
X0168018Y0028756D01*
X0167374Y0029400D01*
X0164063Y0029400D01*
X0163419Y0028756D01*
X0163419Y0019144D01*
X0164019Y0018544D01*
X0164019Y0018289D01*
X0163428Y0017699D01*
X0163428Y0015801D01*
X0164770Y0014459D01*
X0166667Y0014459D01*
X0168009Y0015801D01*
X0168009Y0017699D01*
X0167418Y0018289D01*
X0167418Y0018544D01*
X0168018Y0019487D02*
X0168419Y0019487D01*
X0168419Y0020485D02*
X0168018Y0020485D01*
X0168018Y0021484D02*
X0168419Y0021484D01*
X0168419Y0022482D02*
X0168018Y0022482D01*
X0168018Y0023481D02*
X0168419Y0023481D01*
X0168419Y0024479D02*
X0168018Y0024479D01*
X0168018Y0025478D02*
X0168419Y0025478D01*
X0168419Y0026476D02*
X0168018Y0026476D01*
X0168018Y0027475D02*
X0168419Y0027475D01*
X0168419Y0028473D02*
X0168018Y0028473D01*
X0169019Y0029472D02*
X0144151Y0029472D01*
X0144850Y0030470D02*
X0146587Y0030470D01*
X0146587Y0031469D02*
X0144850Y0031469D01*
X0144850Y0032467D02*
X0146587Y0032467D01*
X0146587Y0033466D02*
X0144850Y0033466D01*
X0144850Y0034464D02*
X0146587Y0034464D01*
X0151293Y0036461D02*
X0156103Y0036461D01*
X0157102Y0035463D02*
X0151937Y0035463D01*
X0151937Y0034464D02*
X0158100Y0034464D01*
X0159099Y0033466D02*
X0151937Y0033466D01*
X0151937Y0032467D02*
X0169019Y0032467D01*
X0169019Y0031469D02*
X0151937Y0031469D01*
X0151937Y0030470D02*
X0169019Y0030470D01*
X0172418Y0030470D02*
X0187219Y0030470D01*
X0187240Y0029472D02*
X0177868Y0029472D01*
X0178418Y0028473D02*
X0187930Y0028473D01*
X0191593Y0028473D02*
X0192344Y0028473D01*
X0192344Y0029472D02*
X0191593Y0029472D01*
X0191593Y0030470D02*
X0192344Y0030470D01*
X0192344Y0031469D02*
X0191593Y0031469D01*
X0191593Y0032467D02*
X0192344Y0032467D01*
X0192344Y0033466D02*
X0191593Y0033466D01*
X0191593Y0033375D02*
X0191593Y0037750D01*
X0188521Y0037750D01*
X0188140Y0037648D01*
X0187797Y0037450D01*
X0187518Y0037171D01*
X0187321Y0036829D01*
X0187219Y0036447D01*
X0187219Y0033375D01*
X0191593Y0033375D01*
X0191593Y0034464D02*
X0192344Y0034464D01*
X0192344Y0035463D02*
X0191593Y0035463D01*
X0191593Y0036461D02*
X0192344Y0036461D01*
X0192344Y0037460D02*
X0191593Y0037460D01*
X0191103Y0038650D02*
X0192834Y0038650D01*
X0194433Y0039312D01*
X0195656Y0040536D01*
X0196318Y0042135D01*
X0196318Y0043865D01*
X0195656Y0045464D01*
X0194433Y0046688D01*
X0192834Y0047350D01*
X0191103Y0047350D01*
X0189504Y0046688D01*
X0188281Y0045464D01*
X0187619Y0043865D01*
X0187619Y0042135D01*
X0188281Y0040536D01*
X0189504Y0039312D01*
X0191103Y0038650D01*
X0189360Y0039457D02*
X0182418Y0039457D01*
X0182418Y0040455D02*
X0188361Y0040455D01*
X0187901Y0041454D02*
X0182418Y0041454D01*
X0182418Y0042452D02*
X0187619Y0042452D01*
X0187619Y0043451D02*
X0182418Y0043451D01*
X0182418Y0044449D02*
X0187860Y0044449D01*
X0188274Y0045448D02*
X0182418Y0045448D01*
X0182418Y0046446D02*
X0189263Y0046446D01*
X0194674Y0046446D02*
X0196481Y0046446D01*
X0196481Y0045448D02*
X0195663Y0045448D01*
X0196077Y0044449D02*
X0196481Y0044449D01*
X0196481Y0043451D02*
X0196318Y0043451D01*
X0196318Y0042452D02*
X0196481Y0042452D01*
X0196481Y0041454D02*
X0196036Y0041454D01*
X0196481Y0040455D02*
X0195576Y0040455D01*
X0196481Y0039457D02*
X0194577Y0039457D01*
X0196481Y0038458D02*
X0182418Y0038458D01*
X0182418Y0037460D02*
X0187814Y0037460D01*
X0187222Y0036461D02*
X0182418Y0036461D01*
X0182418Y0035463D02*
X0187219Y0035463D01*
X0187219Y0034464D02*
X0182418Y0034464D01*
X0182338Y0033466D02*
X0187219Y0033466D01*
X0187219Y0032467D02*
X0172418Y0032467D01*
X0172418Y0031469D02*
X0187219Y0031469D01*
X0196007Y0028473D02*
X0196481Y0028473D01*
X0196481Y0027475D02*
X0178418Y0027475D01*
X0178418Y0026476D02*
X0196481Y0026476D01*
X0196481Y0025478D02*
X0178418Y0025478D01*
X0178418Y0024479D02*
X0196481Y0024479D01*
X0196481Y0023481D02*
X0178418Y0023481D01*
X0183461Y0017490D02*
X0168009Y0017490D01*
X0168009Y0016491D02*
X0183157Y0016491D01*
X0183157Y0015493D02*
X0167700Y0015493D01*
X0166702Y0014494D02*
X0183157Y0014494D01*
X0183467Y0013496D02*
X0156318Y0013496D01*
X0156318Y0014494D02*
X0164735Y0014494D01*
X0163737Y0015493D02*
X0156318Y0015493D01*
X0156318Y0016491D02*
X0163428Y0016491D01*
X0163428Y0017490D02*
X0149883Y0017490D01*
X0148885Y0018488D02*
X0164019Y0018488D01*
X0163419Y0019487D02*
X0163018Y0019487D01*
X0163018Y0020485D02*
X0163419Y0020485D01*
X0163419Y0021484D02*
X0163018Y0021484D01*
X0163018Y0022482D02*
X0163419Y0022482D01*
X0163419Y0023481D02*
X0163018Y0023481D01*
X0163018Y0024479D02*
X0163419Y0024479D01*
X0163419Y0025478D02*
X0163018Y0025478D01*
X0163018Y0026476D02*
X0163419Y0026476D01*
X0163419Y0027475D02*
X0163018Y0027475D01*
X0163018Y0028473D02*
X0163419Y0028473D01*
X0158419Y0028473D02*
X0145149Y0028473D01*
X0146148Y0027475D02*
X0158419Y0027475D01*
X0158419Y0026476D02*
X0147146Y0026476D01*
X0144335Y0024479D02*
X0142893Y0024479D01*
X0143337Y0025478D02*
X0141895Y0025478D01*
X0142338Y0026476D02*
X0140896Y0026476D01*
X0141340Y0027475D02*
X0139898Y0027475D01*
X0140475Y0028473D02*
X0138899Y0028473D01*
X0137901Y0029472D02*
X0140475Y0029472D01*
X0139500Y0030470D02*
X0136902Y0030470D01*
X0134091Y0028473D02*
X0128899Y0028473D01*
X0127901Y0029472D02*
X0133093Y0029472D01*
X0135090Y0027475D02*
X0129898Y0027475D01*
X0130896Y0026476D02*
X0136088Y0026476D01*
X0137087Y0025478D02*
X0131895Y0025478D01*
X0132893Y0024479D02*
X0138085Y0024479D01*
X0139084Y0023481D02*
X0133892Y0023481D01*
X0134891Y0022482D02*
X0140082Y0022482D01*
X0141081Y0021484D02*
X0135889Y0021484D01*
X0136888Y0020485D02*
X0142079Y0020485D01*
X0143078Y0019487D02*
X0137886Y0019487D01*
X0138885Y0018488D02*
X0144076Y0018488D01*
X0145075Y0017490D02*
X0139883Y0017490D01*
X0137072Y0015493D02*
X0135628Y0015493D01*
X0136058Y0014494D02*
X0137879Y0014494D01*
X0137619Y0013496D02*
X0136318Y0013496D01*
X0136318Y0012497D02*
X0137619Y0012497D01*
X0137882Y0011499D02*
X0136055Y0011499D01*
X0135620Y0010500D02*
X0138317Y0010500D01*
X0139315Y0009501D02*
X0134622Y0009501D01*
X0129315Y0009501D02*
X0124622Y0009501D01*
X0125620Y0010500D02*
X0128317Y0010500D01*
X0127882Y0011499D02*
X0126055Y0011499D01*
X0126318Y0012497D02*
X0127619Y0012497D01*
X0127619Y0013496D02*
X0126318Y0013496D01*
X0126058Y0014494D02*
X0127879Y0014494D01*
X0127072Y0015493D02*
X0125628Y0015493D01*
X0126073Y0016491D02*
X0124629Y0016491D01*
X0125075Y0017490D02*
X0119883Y0017490D01*
X0118885Y0018488D02*
X0124076Y0018488D01*
X0123078Y0019487D02*
X0117886Y0019487D01*
X0116888Y0020485D02*
X0122079Y0020485D01*
X0121081Y0021484D02*
X0115889Y0021484D01*
X0114891Y0022482D02*
X0120082Y0022482D01*
X0119084Y0023481D02*
X0113892Y0023481D01*
X0112079Y0020485D02*
X0106888Y0020485D01*
X0107886Y0019487D02*
X0113078Y0019487D01*
X0114076Y0018488D02*
X0108885Y0018488D01*
X0109883Y0017490D02*
X0115075Y0017490D01*
X0114629Y0016491D02*
X0116073Y0016491D01*
X0115628Y0015493D02*
X0117072Y0015493D01*
X0117879Y0014494D02*
X0116058Y0014494D01*
X0116318Y0013496D02*
X0117619Y0013496D01*
X0117619Y0012497D02*
X0116318Y0012497D01*
X0116055Y0011499D02*
X0117882Y0011499D01*
X0118317Y0010500D02*
X0115620Y0010500D01*
X0114622Y0009501D02*
X0119315Y0009501D01*
X0109315Y0009501D02*
X0104622Y0009501D01*
X0105620Y0010500D02*
X0108317Y0010500D01*
X0107882Y0011499D02*
X0106055Y0011499D01*
X0106318Y0012497D02*
X0107619Y0012497D01*
X0107619Y0013496D02*
X0106318Y0013496D01*
X0106058Y0014494D02*
X0107879Y0014494D01*
X0107072Y0015493D02*
X0105628Y0015493D01*
X0106073Y0016491D02*
X0104629Y0016491D01*
X0105075Y0017490D02*
X0099883Y0017490D01*
X0098885Y0018488D02*
X0104076Y0018488D01*
X0099328Y0019487D02*
X0097886Y0019487D01*
X0098329Y0020485D02*
X0096888Y0020485D01*
X0097331Y0021484D02*
X0095889Y0021484D01*
X0096332Y0022482D02*
X0094891Y0022482D01*
X0095334Y0023481D02*
X0093892Y0023481D01*
X0094335Y0024479D02*
X0092893Y0024479D01*
X0090082Y0022482D02*
X0084891Y0022482D01*
X0085889Y0021484D02*
X0091081Y0021484D01*
X0092079Y0020485D02*
X0086888Y0020485D01*
X0087886Y0019487D02*
X0093078Y0019487D01*
X0094076Y0018488D02*
X0088885Y0018488D01*
X0089883Y0017490D02*
X0095075Y0017490D01*
X0094629Y0016491D02*
X0096073Y0016491D01*
X0095628Y0015493D02*
X0097072Y0015493D01*
X0097879Y0014494D02*
X0096058Y0014494D01*
X0096318Y0013496D02*
X0097619Y0013496D01*
X0097619Y0012497D02*
X0096318Y0012497D01*
X0096055Y0011499D02*
X0097882Y0011499D01*
X0098317Y0010500D02*
X0095620Y0010500D01*
X0094622Y0009501D02*
X0099315Y0009501D01*
X0089315Y0009501D02*
X0084622Y0009501D01*
X0085620Y0010500D02*
X0088317Y0010500D01*
X0087882Y0011499D02*
X0086055Y0011499D01*
X0086318Y0012497D02*
X0087619Y0012497D01*
X0087619Y0013496D02*
X0086318Y0013496D01*
X0086058Y0014494D02*
X0087879Y0014494D01*
X0087072Y0015493D02*
X0085628Y0015493D01*
X0086073Y0016491D02*
X0084629Y0016491D01*
X0085075Y0017490D02*
X0079883Y0017490D01*
X0078885Y0018488D02*
X0084076Y0018488D01*
X0083078Y0019487D02*
X0077886Y0019487D01*
X0075075Y0017490D02*
X0073668Y0017490D01*
X0073668Y0018488D02*
X0074076Y0018488D01*
X0074629Y0016491D02*
X0076073Y0016491D01*
X0075628Y0015493D02*
X0077072Y0015493D01*
X0077879Y0014494D02*
X0076058Y0014494D01*
X0076318Y0013496D02*
X0077619Y0013496D01*
X0077619Y0012497D02*
X0076318Y0012497D01*
X0076055Y0011499D02*
X0077882Y0011499D01*
X0078317Y0010500D02*
X0075620Y0010500D01*
X0074622Y0009501D02*
X0079315Y0009501D01*
X0069315Y0009501D02*
X0064622Y0009501D01*
X0065620Y0010500D02*
X0068317Y0010500D01*
X0067882Y0011499D02*
X0066055Y0011499D01*
X0066318Y0012497D02*
X0067619Y0012497D01*
X0067619Y0013496D02*
X0066318Y0013496D01*
X0066058Y0014494D02*
X0067879Y0014494D01*
X0068309Y0015493D02*
X0065628Y0015493D01*
X0064629Y0016491D02*
X0069308Y0016491D01*
X0070269Y0017490D02*
X0059883Y0017490D01*
X0058885Y0018488D02*
X0070269Y0018488D01*
X0070269Y0019487D02*
X0057886Y0019487D01*
X0056888Y0020485D02*
X0070269Y0020485D01*
X0070269Y0021484D02*
X0055889Y0021484D01*
X0054891Y0022482D02*
X0070269Y0022482D01*
X0070269Y0023481D02*
X0053892Y0023481D01*
X0053152Y0024479D02*
X0052893Y0024479D01*
X0053062Y0025478D02*
X0051725Y0025478D01*
X0051725Y0026476D02*
X0053062Y0026476D01*
X0051725Y0027475D02*
X0055849Y0027475D01*
X0055849Y0027662D02*
X0055849Y0031237D01*
X0055674Y0031237D01*
X0056006Y0031570D01*
X0056006Y0041930D01*
X0055362Y0042574D01*
X0053387Y0042574D01*
X0054101Y0043288D01*
X0057331Y0043288D01*
X0057975Y0043932D01*
X0057975Y0049102D01*
X0060687Y0051814D01*
X0060687Y0050212D01*
X0060356Y0050212D01*
X0059712Y0049568D01*
X0059712Y0043932D01*
X0060356Y0043288D01*
X0062982Y0043288D01*
X0063517Y0042574D01*
X0062325Y0042574D01*
X0061681Y0041930D01*
X0061681Y0031570D01*
X0062013Y0031237D01*
X0061838Y0031237D01*
X0061838Y0027662D01*
X0061263Y0027662D01*
X0061263Y0031237D01*
X0059778Y0031237D01*
X0059396Y0031135D01*
X0059054Y0030937D01*
X0058843Y0030727D01*
X0058633Y0030937D01*
X0058291Y0031135D01*
X0057909Y0031237D01*
X0056424Y0031237D01*
X0056424Y0027662D01*
X0055849Y0027662D01*
X0056137Y0027375D02*
X0061550Y0027375D01*
X0061969Y0026957D01*
X0061838Y0027088D02*
X0064625Y0027088D01*
X0064625Y0024815D01*
X0064523Y0024434D01*
X0064325Y0024092D01*
X0064046Y0023812D01*
X0063704Y0023615D01*
X0063322Y0023513D01*
X0061838Y0023513D01*
X0061838Y0027088D01*
X0061838Y0027475D02*
X0065962Y0027475D01*
X0065962Y0028473D02*
X0064625Y0028473D01*
X0064625Y0029472D02*
X0065962Y0029472D01*
X0066239Y0030470D02*
X0064434Y0030470D01*
X0061838Y0030470D02*
X0061263Y0030470D01*
X0061263Y0029472D02*
X0061838Y0029472D01*
X0061838Y0028473D02*
X0061263Y0028473D01*
X0061263Y0027475D02*
X0056424Y0027475D01*
X0056424Y0028473D02*
X0055849Y0028473D01*
X0055849Y0029472D02*
X0056424Y0029472D01*
X0056424Y0030470D02*
X0055849Y0030470D01*
X0055905Y0031469D02*
X0061782Y0031469D01*
X0061681Y0032467D02*
X0056006Y0032467D01*
X0056006Y0033466D02*
X0061681Y0033466D01*
X0061681Y0034464D02*
X0056006Y0034464D01*
X0056006Y0035463D02*
X0061681Y0035463D01*
X0061681Y0036461D02*
X0056006Y0036461D01*
X0056006Y0037460D02*
X0061681Y0037460D01*
X0061681Y0038458D02*
X0056006Y0038458D01*
X0056006Y0039457D02*
X0061681Y0039457D01*
X0061681Y0040455D02*
X0056006Y0040455D01*
X0056006Y0041454D02*
X0061681Y0041454D01*
X0062203Y0042452D02*
X0055484Y0042452D01*
X0057494Y0043451D02*
X0060193Y0043451D01*
X0059712Y0044449D02*
X0057975Y0044449D01*
X0057975Y0045448D02*
X0059712Y0045448D01*
X0059712Y0046446D02*
X0057975Y0046446D01*
X0057975Y0047445D02*
X0059712Y0047445D01*
X0059712Y0048443D02*
X0057975Y0048443D01*
X0058315Y0049442D02*
X0059712Y0049442D01*
X0059313Y0050440D02*
X0060687Y0050440D01*
X0060687Y0051439D02*
X0060312Y0051439D01*
X0064087Y0051439D02*
X0064909Y0051439D01*
X0064909Y0051659D02*
X0064909Y0050591D01*
X0065318Y0049604D01*
X0066073Y0048849D01*
X0067060Y0048441D01*
X0068127Y0048441D01*
X0069114Y0048849D01*
X0069869Y0049604D01*
X0070278Y0050591D01*
X0070278Y0051405D01*
X0075173Y0056300D01*
X0076567Y0056300D01*
X0073578Y0053310D01*
X0073578Y0052639D01*
X0070269Y0049329D01*
X0070269Y0042235D01*
X0069929Y0042574D01*
X0067575Y0042574D01*
X0067339Y0042811D01*
X0065062Y0045849D01*
X0065062Y0049568D01*
X0064417Y0050212D01*
X0064087Y0050212D01*
X0064087Y0052402D01*
X0073976Y0062291D01*
X0076567Y0059700D01*
X0073764Y0059700D01*
X0067874Y0053809D01*
X0067060Y0053809D01*
X0066073Y0053401D01*
X0065318Y0052645D01*
X0064909Y0051659D01*
X0065232Y0052437D02*
X0064123Y0052437D01*
X0065121Y0053436D02*
X0066158Y0053436D01*
X0066120Y0054434D02*
X0068499Y0054434D01*
X0069497Y0055433D02*
X0067118Y0055433D01*
X0068117Y0056432D02*
X0070496Y0056432D01*
X0071494Y0057430D02*
X0069115Y0057430D01*
X0070114Y0058429D02*
X0072493Y0058429D01*
X0073491Y0059427D02*
X0071112Y0059427D01*
X0072111Y0060426D02*
X0075842Y0060426D01*
X0074843Y0061424D02*
X0073109Y0061424D01*
X0067485Y0063421D02*
X0067294Y0063421D01*
X0066487Y0062423D02*
X0066295Y0062423D01*
X0065488Y0061424D02*
X0065297Y0061424D01*
X0064490Y0060426D02*
X0064298Y0060426D01*
X0063491Y0059427D02*
X0063300Y0059427D01*
X0062493Y0058429D02*
X0062301Y0058429D01*
X0061494Y0057430D02*
X0061303Y0057430D01*
X0060496Y0056432D02*
X0060304Y0056432D01*
X0059497Y0055433D02*
X0059306Y0055433D01*
X0058499Y0054434D02*
X0058307Y0054434D01*
X0057500Y0053436D02*
X0057309Y0053436D01*
X0056502Y0052437D02*
X0056310Y0052437D01*
X0055503Y0051439D02*
X0055312Y0051439D01*
X0054505Y0050440D02*
X0054313Y0050440D01*
X0054277Y0050212D02*
X0054085Y0050212D01*
X0080173Y0076300D01*
X0085711Y0076300D01*
X0085566Y0076155D01*
X0088359Y0073362D01*
X0088288Y0073291D01*
X0085495Y0076084D01*
X0084613Y0075202D01*
X0084416Y0074860D01*
X0084313Y0074478D01*
X0084313Y0074336D01*
X0082859Y0072882D01*
X0082717Y0072882D01*
X0082336Y0072780D01*
X0081994Y0072582D01*
X0081112Y0071700D01*
X0083905Y0068907D01*
X0083834Y0068837D01*
X0081041Y0071630D01*
X0080159Y0070748D01*
X0079961Y0070405D01*
X0079859Y0070024D01*
X0079859Y0069882D01*
X0078107Y0068130D01*
X0077787Y0068450D01*
X0072514Y0068450D01*
X0071519Y0067454D01*
X0054277Y0050212D01*
X0052625Y0048753D02*
X0052625Y0046338D01*
X0050897Y0044610D01*
X0049960Y0043673D01*
X0049960Y0042574D01*
X0047758Y0042574D01*
X0047418Y0042235D01*
X0047418Y0043546D01*
X0052625Y0048753D01*
X0052625Y0048443D02*
X0052316Y0048443D01*
X0052625Y0047445D02*
X0051318Y0047445D01*
X0050319Y0046446D02*
X0052625Y0046446D01*
X0051735Y0045448D02*
X0049321Y0045448D01*
X0048322Y0044449D02*
X0050737Y0044449D01*
X0049960Y0043451D02*
X0047418Y0043451D01*
X0047418Y0042452D02*
X0047636Y0042452D01*
X0051560Y0043010D02*
X0051560Y0036750D01*
X0051448Y0030470D02*
X0053253Y0030470D01*
X0053062Y0029472D02*
X0051725Y0029472D01*
X0051725Y0028473D02*
X0053062Y0028473D01*
X0055849Y0026476D02*
X0056424Y0026476D01*
X0056424Y0025478D02*
X0055849Y0025478D01*
X0055849Y0024479D02*
X0056424Y0024479D01*
X0061263Y0024479D02*
X0061838Y0024479D01*
X0061838Y0025478D02*
X0061263Y0025478D01*
X0061263Y0026476D02*
X0061838Y0026476D01*
X0064625Y0026476D02*
X0065962Y0026476D01*
X0065962Y0025478D02*
X0064625Y0025478D01*
X0064535Y0024479D02*
X0066040Y0024479D01*
X0068637Y0027375D02*
X0068637Y0034240D01*
X0066127Y0036750D01*
X0066127Y0041760D01*
X0062387Y0046750D01*
X0065062Y0046446D02*
X0070269Y0046446D01*
X0070269Y0045448D02*
X0065362Y0045448D01*
X0066111Y0044449D02*
X0070269Y0044449D01*
X0070269Y0043451D02*
X0066859Y0043451D01*
X0070051Y0042452D02*
X0070269Y0042452D01*
X0070269Y0047445D02*
X0065062Y0047445D01*
X0065062Y0048443D02*
X0067053Y0048443D01*
X0068134Y0048443D02*
X0070269Y0048443D01*
X0070381Y0049442D02*
X0069707Y0049442D01*
X0070215Y0050440D02*
X0071380Y0050440D01*
X0072378Y0051439D02*
X0070312Y0051439D01*
X0071310Y0052437D02*
X0073377Y0052437D01*
X0073703Y0053436D02*
X0072309Y0053436D01*
X0073307Y0054434D02*
X0074702Y0054434D01*
X0074306Y0055433D02*
X0075700Y0055433D01*
X0079859Y0056300D02*
X0080737Y0055423D01*
X0087514Y0062200D01*
X0088923Y0062200D01*
X0102864Y0062200D01*
X0102769Y0062296D01*
X0092769Y0072296D01*
X0092769Y0072609D01*
X0092405Y0072245D01*
X0092405Y0072103D01*
X0092302Y0071722D01*
X0092105Y0071380D01*
X0091223Y0070498D01*
X0088430Y0073291D01*
X0088359Y0073220D01*
X0091152Y0070427D01*
X0090270Y0069545D01*
X0089928Y0069347D01*
X0089918Y0069345D01*
X0089918Y0064796D01*
X0088923Y0063800D01*
X0088923Y0063800D01*
X0087418Y0062296D01*
X0087418Y0062296D01*
X0086423Y0061300D01*
X0082418Y0057296D01*
X0081423Y0056300D01*
X0079859Y0056300D01*
X0080726Y0055433D02*
X0080747Y0055433D01*
X0081554Y0056432D02*
X0081746Y0056432D01*
X0082553Y0057430D02*
X0082744Y0057430D01*
X0083551Y0058429D02*
X0083743Y0058429D01*
X0084550Y0059427D02*
X0084741Y0059427D01*
X0085548Y0060426D02*
X0085740Y0060426D01*
X0086547Y0061424D02*
X0086738Y0061424D01*
X0087545Y0062423D02*
X0102642Y0062423D01*
X0101643Y0063421D02*
X0088544Y0063421D01*
X0089542Y0064420D02*
X0100645Y0064420D01*
X0099646Y0065418D02*
X0089918Y0065418D01*
X0089918Y0066417D02*
X0098648Y0066417D01*
X0097649Y0067415D02*
X0089918Y0067415D01*
X0089918Y0068414D02*
X0096651Y0068414D01*
X0095652Y0069412D02*
X0090040Y0069412D01*
X0091136Y0070411D02*
X0094654Y0070411D01*
X0093655Y0071409D02*
X0092122Y0071409D01*
X0092567Y0072408D02*
X0092769Y0072408D01*
X0090311Y0071409D02*
X0090170Y0071409D01*
X0089313Y0072408D02*
X0089171Y0072408D01*
X0088314Y0073406D02*
X0088173Y0073406D01*
X0087316Y0074405D02*
X0087174Y0074405D01*
X0086317Y0075403D02*
X0086176Y0075403D01*
X0084815Y0075403D02*
X0079276Y0075403D01*
X0078277Y0074405D02*
X0084313Y0074405D01*
X0083383Y0073406D02*
X0077279Y0073406D01*
X0076280Y0072408D02*
X0081819Y0072408D01*
X0081403Y0071409D02*
X0081261Y0071409D01*
X0080821Y0071409D02*
X0075282Y0071409D01*
X0074283Y0070411D02*
X0079964Y0070411D01*
X0079389Y0069412D02*
X0073285Y0069412D01*
X0072478Y0068414D02*
X0072286Y0068414D01*
X0071480Y0067415D02*
X0071288Y0067415D01*
X0070481Y0066417D02*
X0070289Y0066417D01*
X0069482Y0065418D02*
X0069291Y0065418D01*
X0068484Y0064420D02*
X0068292Y0064420D01*
X0077823Y0068414D02*
X0078391Y0068414D01*
X0082260Y0070411D02*
X0082401Y0070411D01*
X0083258Y0069412D02*
X0083400Y0069412D01*
X0070718Y0075403D02*
X0064918Y0075403D01*
X0064918Y0074405D02*
X0069719Y0074405D01*
X0068721Y0073406D02*
X0064918Y0073406D01*
X0064918Y0072408D02*
X0067722Y0072408D01*
X0066724Y0071409D02*
X0064918Y0071409D01*
X0064918Y0070411D02*
X0065725Y0070411D01*
X0064918Y0069604D02*
X0064918Y0078032D01*
X0066036Y0078032D01*
X0066681Y0078676D01*
X0066681Y0079007D01*
X0068506Y0079007D01*
X0068506Y0078676D01*
X0069151Y0078032D01*
X0073346Y0078032D01*
X0064918Y0069604D01*
X0061519Y0070411D02*
X0058018Y0070411D01*
X0058018Y0071409D02*
X0061519Y0071409D01*
X0061519Y0072408D02*
X0058018Y0072408D01*
X0058018Y0073406D02*
X0061519Y0073406D01*
X0061519Y0074405D02*
X0058018Y0074405D01*
X0058018Y0075403D02*
X0061519Y0075403D01*
X0061519Y0076402D02*
X0058018Y0076402D01*
X0058018Y0077400D02*
X0061519Y0077400D01*
X0060034Y0078399D02*
X0058018Y0078399D01*
X0058018Y0079397D02*
X0059756Y0079397D01*
X0059756Y0080396D02*
X0058018Y0080396D01*
X0058018Y0081394D02*
X0059756Y0081394D01*
X0059756Y0082393D02*
X0058351Y0082393D01*
X0054678Y0084793D02*
X0054378Y0085093D01*
X0052974Y0085093D01*
X0052599Y0085468D01*
X0051768Y0085468D01*
X0051768Y0089547D01*
X0060939Y0098718D01*
X0061103Y0098650D01*
X0061519Y0098650D01*
X0061519Y0090468D01*
X0060401Y0090468D01*
X0059756Y0089824D01*
X0059756Y0085950D01*
X0058508Y0085950D01*
X0057917Y0086541D01*
X0056020Y0086541D01*
X0054678Y0085199D01*
X0054678Y0084793D01*
X0054868Y0085388D02*
X0052679Y0085388D01*
X0051768Y0086387D02*
X0055866Y0086387D01*
X0058071Y0086387D02*
X0059756Y0086387D01*
X0059756Y0087385D02*
X0051768Y0087385D01*
X0051768Y0088384D02*
X0059756Y0088384D01*
X0059756Y0089382D02*
X0051768Y0089382D01*
X0052602Y0090381D02*
X0060313Y0090381D01*
X0061519Y0091379D02*
X0053601Y0091379D01*
X0054599Y0092378D02*
X0061519Y0092378D01*
X0061519Y0093376D02*
X0055598Y0093376D01*
X0056596Y0094375D02*
X0061519Y0094375D01*
X0061519Y0095373D02*
X0057595Y0095373D01*
X0058593Y0096372D02*
X0061519Y0096372D01*
X0061519Y0097370D02*
X0059592Y0097370D01*
X0060590Y0098369D02*
X0061519Y0098369D01*
X0064918Y0098369D02*
X0084933Y0098369D01*
X0084433Y0099312D02*
X0085656Y0100536D01*
X0086318Y0102135D01*
X0086318Y0103865D01*
X0085656Y0105464D01*
X0084433Y0106688D01*
X0082834Y0107350D01*
X0081103Y0107350D01*
X0079504Y0106688D01*
X0078281Y0105464D01*
X0077619Y0103865D01*
X0077619Y0102135D01*
X0078281Y0100536D01*
X0079504Y0099312D01*
X0081103Y0098650D01*
X0082834Y0098650D01*
X0084433Y0099312D01*
X0084488Y0099368D02*
X0085932Y0099368D01*
X0085486Y0100366D02*
X0086930Y0100366D01*
X0085999Y0101365D02*
X0087929Y0101365D01*
X0087619Y0102363D02*
X0086318Y0102363D01*
X0086318Y0103362D02*
X0087619Y0103362D01*
X0087823Y0104360D02*
X0086114Y0104360D01*
X0085700Y0105359D02*
X0088237Y0105359D01*
X0089174Y0106357D02*
X0084763Y0106357D01*
X0079174Y0106357D02*
X0074763Y0106357D01*
X0074433Y0106688D02*
X0072834Y0107350D01*
X0071103Y0107350D01*
X0069504Y0106688D01*
X0068281Y0105464D01*
X0067619Y0103865D01*
X0067619Y0102135D01*
X0068281Y0100536D01*
X0069504Y0099312D01*
X0071103Y0098650D01*
X0072834Y0098650D01*
X0074433Y0099312D01*
X0075656Y0100536D01*
X0076318Y0102135D01*
X0076318Y0103865D01*
X0075656Y0105464D01*
X0074433Y0106688D01*
X0075700Y0105359D02*
X0078237Y0105359D01*
X0077823Y0104360D02*
X0076114Y0104360D01*
X0076318Y0103362D02*
X0077619Y0103362D01*
X0077619Y0102363D02*
X0076318Y0102363D01*
X0075999Y0101365D02*
X0077938Y0101365D01*
X0078451Y0100366D02*
X0075486Y0100366D01*
X0074488Y0099368D02*
X0079449Y0099368D01*
X0083935Y0097370D02*
X0064918Y0097370D01*
X0064918Y0096372D02*
X0082936Y0096372D01*
X0081938Y0095373D02*
X0064918Y0095373D01*
X0064918Y0094375D02*
X0080939Y0094375D01*
X0079941Y0093376D02*
X0064918Y0093376D01*
X0064918Y0092378D02*
X0076232Y0092378D01*
X0075303Y0091379D02*
X0064918Y0091379D01*
X0066124Y0090381D02*
X0069063Y0090381D01*
X0068506Y0089382D02*
X0066681Y0089382D01*
X0066681Y0088384D02*
X0068506Y0088384D01*
X0068506Y0087385D02*
X0066681Y0087385D01*
X0066681Y0086387D02*
X0068506Y0086387D01*
X0074874Y0090381D02*
X0075303Y0090381D01*
X0081754Y0090381D02*
X0110269Y0090381D01*
X0110269Y0091379D02*
X0082752Y0091379D01*
X0083751Y0092378D02*
X0110186Y0092378D01*
X0109188Y0093376D02*
X0084749Y0093376D01*
X0085748Y0094375D02*
X0108189Y0094375D01*
X0107191Y0095373D02*
X0086746Y0095373D01*
X0087745Y0096372D02*
X0106192Y0096372D01*
X0105194Y0097370D02*
X0088743Y0097370D01*
X0089742Y0098369D02*
X0104195Y0098369D01*
X0107007Y0100366D02*
X0108451Y0100366D01*
X0108005Y0099368D02*
X0109449Y0099368D01*
X0109004Y0098369D02*
X0114195Y0098369D01*
X0115194Y0097370D02*
X0110002Y0097370D01*
X0111001Y0096372D02*
X0116192Y0096372D01*
X0117191Y0095373D02*
X0111999Y0095373D01*
X0112998Y0094375D02*
X0118189Y0094375D01*
X0119188Y0093376D02*
X0113668Y0093376D01*
X0113668Y0092378D02*
X0120186Y0092378D01*
X0121185Y0091379D02*
X0113668Y0091379D01*
X0110269Y0089382D02*
X0106740Y0089382D01*
X0107739Y0088384D02*
X0110269Y0088384D01*
X0110269Y0087385D02*
X0108737Y0087385D01*
X0109736Y0086387D02*
X0110269Y0086387D01*
X0106924Y0084390D02*
X0096733Y0084390D01*
X0097731Y0083391D02*
X0107923Y0083391D01*
X0108428Y0082886D02*
X0108428Y0082791D01*
X0107270Y0082791D01*
X0105928Y0081449D01*
X0105928Y0080614D01*
X0104637Y0079323D01*
X0102569Y0081391D01*
X0101658Y0081391D01*
X0100695Y0080428D01*
X0094918Y0086204D01*
X0094823Y0086300D01*
X0105014Y0086300D01*
X0108428Y0082886D01*
X0106872Y0082393D02*
X0098730Y0082393D01*
X0099728Y0081394D02*
X0105928Y0081394D01*
X0105710Y0080396D02*
X0103564Y0080396D01*
X0104563Y0079397D02*
X0104712Y0079397D01*
X0109583Y0078625D02*
X0110509Y0079551D01*
X0110509Y0080709D01*
X0111667Y0080709D01*
X0112256Y0081298D01*
X0112256Y0078676D01*
X0112901Y0078032D01*
X0114019Y0078032D01*
X0114019Y0075227D01*
X0111376Y0072584D01*
X0109334Y0074626D01*
X0110509Y0075801D01*
X0110509Y0077699D01*
X0109583Y0078625D01*
X0109809Y0078399D02*
X0112534Y0078399D01*
X0112256Y0079397D02*
X0110355Y0079397D01*
X0110509Y0080396D02*
X0112256Y0080396D01*
X0117418Y0083391D02*
X0127456Y0083391D01*
X0128454Y0084390D02*
X0117418Y0084390D01*
X0118806Y0085388D02*
X0121381Y0085388D01*
X0127556Y0085388D02*
X0129019Y0085388D01*
X0129019Y0086387D02*
X0127931Y0086387D01*
X0127931Y0087385D02*
X0129019Y0087385D01*
X0129019Y0088384D02*
X0127931Y0088384D01*
X0127931Y0089382D02*
X0129019Y0089382D01*
X0129019Y0090381D02*
X0127374Y0090381D01*
X0121563Y0090381D02*
X0118624Y0090381D01*
X0121999Y0095373D02*
X0127191Y0095373D01*
X0126192Y0096372D02*
X0121001Y0096372D01*
X0120002Y0097370D02*
X0125194Y0097370D01*
X0124195Y0098369D02*
X0119004Y0098369D01*
X0119449Y0099368D02*
X0118005Y0099368D01*
X0118451Y0100366D02*
X0117007Y0100366D01*
X0117938Y0101365D02*
X0116008Y0101365D01*
X0116318Y0102363D02*
X0117619Y0102363D01*
X0117619Y0103362D02*
X0116318Y0103362D01*
X0116114Y0104360D02*
X0117823Y0104360D01*
X0118237Y0105359D02*
X0115700Y0105359D01*
X0114763Y0106357D02*
X0119174Y0106357D01*
X0124763Y0106357D02*
X0129174Y0106357D01*
X0128237Y0105359D02*
X0125700Y0105359D01*
X0126114Y0104360D02*
X0127823Y0104360D01*
X0127619Y0103362D02*
X0126318Y0103362D01*
X0126318Y0102363D02*
X0127619Y0102363D01*
X0127938Y0101365D02*
X0126008Y0101365D01*
X0127007Y0100366D02*
X0128451Y0100366D01*
X0128005Y0099368D02*
X0129449Y0099368D01*
X0129004Y0098369D02*
X0134019Y0098369D01*
X0134019Y0097370D02*
X0130002Y0097370D01*
X0137418Y0097370D02*
X0140269Y0097370D01*
X0140269Y0096372D02*
X0137418Y0096372D01*
X0137418Y0095373D02*
X0140269Y0095373D01*
X0140269Y0094375D02*
X0137418Y0094375D01*
X0137418Y0093376D02*
X0140269Y0093376D01*
X0140269Y0092378D02*
X0137418Y0092378D01*
X0137418Y0091379D02*
X0140269Y0091379D01*
X0140269Y0090381D02*
X0137418Y0090381D01*
X0137418Y0089382D02*
X0137612Y0089382D01*
X0146168Y0089382D02*
X0146362Y0089382D01*
X0146168Y0090381D02*
X0154019Y0090381D01*
X0154019Y0091204D02*
X0154019Y0087039D01*
X0153428Y0086449D01*
X0153428Y0084551D01*
X0154019Y0083961D01*
X0154019Y0072296D01*
X0155014Y0071300D01*
X0161423Y0071300D01*
X0162418Y0072296D01*
X0162418Y0072894D01*
X0163018Y0073494D01*
X0163018Y0083106D01*
X0162374Y0083750D01*
X0159063Y0083750D01*
X0158419Y0083106D01*
X0158419Y0074700D01*
X0157418Y0074700D01*
X0157418Y0083961D01*
X0158009Y0084551D01*
X0158009Y0086220D01*
X0158520Y0085709D01*
X0160417Y0085709D01*
X0160785Y0086078D01*
X0161013Y0085850D01*
X0163864Y0085850D01*
X0164019Y0085696D01*
X0164019Y0083706D01*
X0163419Y0083106D01*
X0163419Y0073494D01*
X0164063Y0072850D01*
X0167374Y0072850D01*
X0168018Y0073494D01*
X0168018Y0083106D01*
X0167418Y0083706D01*
X0167418Y0086144D01*
X0167768Y0086494D01*
X0167768Y0089606D01*
X0167757Y0089617D01*
X0167869Y0089729D01*
X0168066Y0090071D01*
X0168168Y0090453D01*
X0168168Y0091700D01*
X0164119Y0091700D01*
X0164119Y0091800D01*
X0168168Y0091800D01*
X0168168Y0093047D01*
X0168066Y0093429D01*
X0167869Y0093771D01*
X0167757Y0093883D01*
X0167768Y0093894D01*
X0167768Y0097006D01*
X0167124Y0097650D01*
X0161013Y0097650D01*
X0160513Y0097150D01*
X0159964Y0097150D01*
X0154019Y0091204D01*
X0154194Y0091379D02*
X0146168Y0091379D01*
X0146168Y0092378D02*
X0155192Y0092378D01*
X0156191Y0093376D02*
X0146168Y0093376D01*
X0146168Y0094375D02*
X0157189Y0094375D01*
X0158188Y0095373D02*
X0146746Y0095373D01*
X0147745Y0096372D02*
X0159186Y0096372D01*
X0160733Y0097370D02*
X0148743Y0097370D01*
X0149742Y0098369D02*
X0183519Y0098369D01*
X0183157Y0099244D02*
X0184118Y0096925D01*
X0185893Y0095149D01*
X0188213Y0094188D01*
X0190724Y0094188D01*
X0193044Y0095149D01*
X0194819Y0096925D01*
X0195780Y0099244D01*
X0195780Y0101755D01*
X0194819Y0104075D01*
X0193044Y0105851D01*
X0190724Y0106812D01*
X0188213Y0106812D01*
X0185893Y0105851D01*
X0184118Y0104075D01*
X0183157Y0101755D01*
X0183157Y0099244D01*
X0183157Y0099368D02*
X0156318Y0099368D01*
X0156318Y0100366D02*
X0183157Y0100366D01*
X0183157Y0101365D02*
X0156318Y0101365D01*
X0156318Y0102363D02*
X0183408Y0102363D01*
X0183822Y0103362D02*
X0156318Y0103362D01*
X0156318Y0104360D02*
X0184402Y0104360D01*
X0185401Y0105359D02*
X0156318Y0105359D01*
X0156318Y0106357D02*
X0187115Y0106357D01*
X0191822Y0106357D02*
X0194764Y0106357D01*
X0195705Y0105359D02*
X0193536Y0105359D01*
X0194535Y0104360D02*
X0196153Y0104360D01*
X0196432Y0103362D02*
X0195115Y0103362D01*
X0195529Y0102363D02*
X0196481Y0102363D01*
X0196481Y0101365D02*
X0195780Y0101365D01*
X0195780Y0100366D02*
X0196481Y0100366D01*
X0196481Y0099368D02*
X0195780Y0099368D01*
X0195418Y0098369D02*
X0196481Y0098369D01*
X0196481Y0097370D02*
X0195004Y0097370D01*
X0194267Y0096372D02*
X0196481Y0096372D01*
X0196481Y0095373D02*
X0193268Y0095373D01*
X0191175Y0094375D02*
X0196481Y0094375D01*
X0196481Y0093376D02*
X0178051Y0093376D01*
X0177924Y0093250D02*
X0178568Y0093894D01*
X0178568Y0097006D01*
X0177924Y0097650D01*
X0171813Y0097650D01*
X0171169Y0097006D01*
X0171169Y0093894D01*
X0171813Y0093250D01*
X0177924Y0093250D01*
X0178568Y0094375D02*
X0187762Y0094375D01*
X0185669Y0095373D02*
X0178568Y0095373D01*
X0178568Y0096372D02*
X0184670Y0096372D01*
X0183933Y0097370D02*
X0178204Y0097370D01*
X0171533Y0097370D02*
X0167404Y0097370D01*
X0167768Y0096372D02*
X0171169Y0096372D01*
X0171169Y0095373D02*
X0167768Y0095373D01*
X0167768Y0094375D02*
X0171169Y0094375D01*
X0171686Y0093376D02*
X0168080Y0093376D01*
X0168168Y0092378D02*
X0196481Y0092378D01*
X0196481Y0091379D02*
X0168168Y0091379D01*
X0168149Y0090381D02*
X0196481Y0090381D01*
X0196481Y0089382D02*
X0178568Y0089382D01*
X0178568Y0088384D02*
X0196481Y0088384D01*
X0196481Y0087385D02*
X0178568Y0087385D01*
X0178461Y0086387D02*
X0189204Y0086387D01*
X0189504Y0086688D02*
X0188281Y0085464D01*
X0187619Y0083865D01*
X0187619Y0082135D01*
X0188281Y0080536D01*
X0189504Y0079312D01*
X0191103Y0078650D01*
X0192834Y0078650D01*
X0194433Y0079312D01*
X0195656Y0080536D01*
X0196318Y0082135D01*
X0196318Y0083865D01*
X0195656Y0085464D01*
X0194433Y0086688D01*
X0192834Y0087350D01*
X0191103Y0087350D01*
X0189504Y0086688D01*
X0188249Y0085388D02*
X0172418Y0085388D01*
X0172418Y0084390D02*
X0187836Y0084390D01*
X0187619Y0083391D02*
X0178223Y0083391D01*
X0178316Y0083229D02*
X0178119Y0083571D01*
X0177840Y0083850D01*
X0177497Y0084048D01*
X0177116Y0084150D01*
X0175819Y0084150D01*
X0175819Y0078400D01*
X0178418Y0078400D01*
X0178418Y0082847D01*
X0178316Y0083229D01*
X0178418Y0082393D02*
X0187619Y0082393D01*
X0187925Y0081394D02*
X0178418Y0081394D01*
X0178418Y0080396D02*
X0188421Y0080396D01*
X0189419Y0079397D02*
X0178418Y0079397D01*
X0178418Y0078200D02*
X0175819Y0078200D01*
X0175819Y0078400D01*
X0175618Y0078400D01*
X0175618Y0078200D01*
X0173019Y0078200D01*
X0173019Y0073753D01*
X0173121Y0073371D01*
X0173318Y0073029D01*
X0173597Y0072750D01*
X0173940Y0072552D01*
X0174321Y0072450D01*
X0175618Y0072450D01*
X0175618Y0078200D01*
X0175819Y0078200D01*
X0175819Y0072450D01*
X0177116Y0072450D01*
X0177497Y0072552D01*
X0177840Y0072750D01*
X0178119Y0073029D01*
X0178316Y0073371D01*
X0178418Y0073753D01*
X0178418Y0078200D01*
X0178418Y0077400D02*
X0196481Y0077400D01*
X0196481Y0076402D02*
X0194719Y0076402D01*
X0194433Y0076688D02*
X0192834Y0077350D01*
X0191103Y0077350D01*
X0189504Y0076688D01*
X0188281Y0075464D01*
X0187619Y0073865D01*
X0187619Y0072135D01*
X0188281Y0070536D01*
X0189504Y0069312D01*
X0191103Y0068650D01*
X0192834Y0068650D01*
X0194433Y0069312D01*
X0195656Y0070536D01*
X0196318Y0072135D01*
X0196318Y0073865D01*
X0195656Y0075464D01*
X0194433Y0076688D01*
X0196481Y0078399D02*
X0175819Y0078399D01*
X0175618Y0078400D02*
X0175618Y0084150D01*
X0174321Y0084150D01*
X0173940Y0084048D01*
X0173597Y0083850D01*
X0173318Y0083571D01*
X0173121Y0083229D01*
X0173019Y0082847D01*
X0173019Y0078400D01*
X0175618Y0078400D01*
X0175618Y0078399D02*
X0173018Y0078399D01*
X0173018Y0079397D02*
X0173019Y0079397D01*
X0173018Y0080396D02*
X0173019Y0080396D01*
X0173018Y0081394D02*
X0173019Y0081394D01*
X0173018Y0082393D02*
X0173019Y0082393D01*
X0173214Y0083391D02*
X0172733Y0083391D01*
X0169019Y0084390D02*
X0167418Y0084390D01*
X0167418Y0085388D02*
X0169019Y0085388D01*
X0169019Y0086387D02*
X0167661Y0086387D01*
X0167768Y0087385D02*
X0169019Y0087385D01*
X0169019Y0088384D02*
X0167768Y0088384D01*
X0167768Y0089382D02*
X0169647Y0089382D01*
X0164018Y0091700D02*
X0159969Y0091700D01*
X0159969Y0090453D01*
X0160012Y0090291D01*
X0158520Y0090291D01*
X0157418Y0089189D01*
X0157418Y0089796D01*
X0159969Y0092346D01*
X0159968Y0091800D01*
X0164018Y0091800D01*
X0164018Y0091700D01*
X0159969Y0091379D02*
X0159002Y0091379D01*
X0159988Y0090381D02*
X0158004Y0090381D01*
X0157612Y0089382D02*
X0157418Y0089382D01*
X0154019Y0089382D02*
X0150075Y0089382D01*
X0150509Y0088384D02*
X0154019Y0088384D01*
X0154019Y0087385D02*
X0150509Y0087385D01*
X0149918Y0086387D02*
X0153428Y0086387D01*
X0153428Y0085388D02*
X0149918Y0085388D01*
X0149918Y0084390D02*
X0153589Y0084390D01*
X0154019Y0083391D02*
X0149918Y0083391D01*
X0149918Y0082393D02*
X0154019Y0082393D01*
X0154019Y0081394D02*
X0149918Y0081394D01*
X0149918Y0080396D02*
X0154019Y0080396D01*
X0154019Y0079397D02*
X0149918Y0079397D01*
X0149918Y0078399D02*
X0154019Y0078399D01*
X0154019Y0077400D02*
X0149918Y0077400D01*
X0149918Y0076402D02*
X0154019Y0076402D01*
X0154019Y0075403D02*
X0149918Y0075403D01*
X0149918Y0074405D02*
X0154019Y0074405D01*
X0154019Y0073406D02*
X0149918Y0073406D01*
X0149918Y0072408D02*
X0154019Y0072408D01*
X0153463Y0071409D02*
X0154905Y0071409D01*
X0154462Y0070411D02*
X0169019Y0070411D01*
X0169019Y0071409D02*
X0161532Y0071409D01*
X0162418Y0072408D02*
X0169019Y0072408D01*
X0168507Y0073406D02*
X0167930Y0073406D01*
X0168018Y0074405D02*
X0168419Y0074405D01*
X0168419Y0075403D02*
X0168018Y0075403D01*
X0168018Y0076402D02*
X0168419Y0076402D01*
X0168419Y0077400D02*
X0168018Y0077400D01*
X0168018Y0078399D02*
X0168419Y0078399D01*
X0168419Y0079397D02*
X0168018Y0079397D01*
X0168018Y0080396D02*
X0168419Y0080396D01*
X0168419Y0081394D02*
X0168018Y0081394D01*
X0168018Y0082393D02*
X0168419Y0082393D01*
X0168704Y0083391D02*
X0167733Y0083391D01*
X0164019Y0084390D02*
X0157848Y0084390D01*
X0158009Y0085388D02*
X0164019Y0085388D01*
X0163704Y0083391D02*
X0162733Y0083391D01*
X0163018Y0082393D02*
X0163419Y0082393D01*
X0163419Y0081394D02*
X0163018Y0081394D01*
X0163018Y0080396D02*
X0163419Y0080396D01*
X0163419Y0079397D02*
X0163018Y0079397D01*
X0163018Y0078399D02*
X0163419Y0078399D01*
X0163419Y0077400D02*
X0163018Y0077400D01*
X0163018Y0076402D02*
X0163419Y0076402D01*
X0163419Y0075403D02*
X0163018Y0075403D01*
X0163018Y0074405D02*
X0163419Y0074405D01*
X0163507Y0073406D02*
X0162930Y0073406D01*
X0158419Y0075403D02*
X0157418Y0075403D01*
X0157418Y0076402D02*
X0158419Y0076402D01*
X0158419Y0077400D02*
X0157418Y0077400D01*
X0157418Y0078399D02*
X0158419Y0078399D01*
X0158419Y0079397D02*
X0157418Y0079397D01*
X0157418Y0080396D02*
X0158419Y0080396D01*
X0158419Y0081394D02*
X0157418Y0081394D01*
X0157418Y0082393D02*
X0158419Y0082393D01*
X0158704Y0083391D02*
X0157418Y0083391D01*
X0146519Y0083391D02*
X0146168Y0083391D01*
X0146168Y0082393D02*
X0146519Y0082393D01*
X0146519Y0081394D02*
X0146168Y0081394D01*
X0146168Y0080396D02*
X0146519Y0080396D01*
X0146519Y0079397D02*
X0146168Y0079397D01*
X0146168Y0078399D02*
X0146519Y0078399D01*
X0146519Y0077400D02*
X0146168Y0077400D01*
X0146168Y0077296D02*
X0146168Y0086811D01*
X0146519Y0086461D01*
X0146519Y0070212D01*
X0145785Y0070212D01*
X0145140Y0069568D01*
X0145140Y0063932D01*
X0145785Y0063288D01*
X0147769Y0063288D01*
X0147769Y0061462D01*
X0147231Y0061462D01*
X0146587Y0060818D01*
X0146587Y0055950D01*
X0145250Y0055950D01*
X0145250Y0057713D01*
X0142463Y0057713D01*
X0142463Y0058287D01*
X0145250Y0058287D01*
X0145250Y0060560D01*
X0145148Y0060941D01*
X0144950Y0061283D01*
X0144671Y0061562D01*
X0144329Y0061760D01*
X0143947Y0061862D01*
X0142463Y0061862D01*
X0142463Y0058287D01*
X0141888Y0058287D01*
X0141888Y0057713D01*
X0139100Y0057713D01*
X0139100Y0055440D01*
X0139186Y0055121D01*
X0139019Y0054954D01*
X0137340Y0053276D01*
X0137340Y0053456D01*
X0136696Y0054100D01*
X0133285Y0054100D01*
X0133219Y0054034D01*
X0133152Y0054100D01*
X0132451Y0054100D01*
X0133147Y0054796D01*
X0133147Y0055650D01*
X0133152Y0055650D01*
X0133219Y0055716D01*
X0133285Y0055650D01*
X0136696Y0055650D01*
X0137340Y0056294D01*
X0137340Y0061351D01*
X0139277Y0063288D01*
X0143152Y0063288D01*
X0143797Y0063932D01*
X0143797Y0069568D01*
X0143152Y0070212D01*
X0139085Y0070212D01*
X0145173Y0076300D01*
X0146168Y0077296D01*
X0146519Y0076402D02*
X0145274Y0076402D01*
X0144276Y0075403D02*
X0146519Y0075403D01*
X0146519Y0074405D02*
X0143277Y0074405D01*
X0142279Y0073406D02*
X0146519Y0073406D01*
X0146519Y0072408D02*
X0141280Y0072408D01*
X0140282Y0071409D02*
X0146519Y0071409D01*
X0146519Y0070411D02*
X0139283Y0070411D01*
X0143797Y0069412D02*
X0145140Y0069412D01*
X0145140Y0068414D02*
X0143797Y0068414D01*
X0143797Y0067415D02*
X0145140Y0067415D01*
X0145140Y0066417D02*
X0143797Y0066417D01*
X0143797Y0065418D02*
X0145140Y0065418D01*
X0145140Y0064420D02*
X0143797Y0064420D01*
X0143286Y0063421D02*
X0145651Y0063421D01*
X0147769Y0062423D02*
X0138411Y0062423D01*
X0137413Y0061424D02*
X0139541Y0061424D01*
X0139679Y0061562D02*
X0139400Y0061283D01*
X0139203Y0060941D01*
X0139100Y0060560D01*
X0139100Y0058287D01*
X0141888Y0058287D01*
X0141888Y0061862D01*
X0140403Y0061862D01*
X0140021Y0061760D01*
X0139679Y0061562D01*
X0139100Y0060426D02*
X0137340Y0060426D01*
X0137340Y0059427D02*
X0139100Y0059427D01*
X0139100Y0058429D02*
X0137340Y0058429D01*
X0137340Y0057430D02*
X0139100Y0057430D01*
X0139100Y0056432D02*
X0137340Y0056432D01*
X0139102Y0055433D02*
X0133147Y0055433D01*
X0132785Y0054434D02*
X0138499Y0054434D01*
X0137500Y0053436D02*
X0137340Y0053436D01*
X0144368Y0052550D02*
X0144850Y0052068D01*
X0144850Y0046432D01*
X0144206Y0045788D01*
X0140145Y0045788D01*
X0139500Y0046432D01*
X0139500Y0047550D01*
X0137514Y0047550D01*
X0137340Y0047724D01*
X0137340Y0047544D01*
X0136696Y0046900D01*
X0133285Y0046900D01*
X0133219Y0046966D01*
X0133152Y0046900D01*
X0129741Y0046900D01*
X0129097Y0047544D01*
X0129097Y0048209D01*
X0127270Y0048209D01*
X0125928Y0049551D01*
X0125928Y0051449D01*
X0127270Y0052791D01*
X0129097Y0052791D01*
X0129097Y0053456D01*
X0129441Y0053800D01*
X0127258Y0053800D01*
X0126667Y0053209D01*
X0124770Y0053209D01*
X0123668Y0054311D01*
X0123668Y0051046D01*
X0122673Y0050050D01*
X0119165Y0046543D01*
X0119259Y0046449D01*
X0119259Y0044551D01*
X0118158Y0043450D01*
X0125429Y0043450D01*
X0126020Y0044041D01*
X0127917Y0044041D01*
X0129259Y0042699D01*
X0129259Y0040801D01*
X0127917Y0039459D01*
X0126020Y0039459D01*
X0125429Y0040050D01*
X0113923Y0040050D01*
X0112673Y0038800D01*
X0107349Y0038800D01*
X0107688Y0038450D01*
X0112372Y0038450D01*
X0112948Y0039026D01*
X0113935Y0039434D01*
X0115002Y0039434D01*
X0115989Y0039026D01*
X0116565Y0038450D01*
X0139500Y0038450D01*
X0139500Y0039425D01*
X0138139Y0039425D01*
X0138105Y0039459D01*
X0137270Y0039459D01*
X0135928Y0040801D01*
X0135928Y0042699D01*
X0137270Y0044041D01*
X0139167Y0044041D01*
X0139500Y0043707D01*
X0139500Y0043943D01*
X0140145Y0044587D01*
X0144206Y0044587D01*
X0144850Y0043943D01*
X0144850Y0038450D01*
X0146587Y0038450D01*
X0146587Y0043943D01*
X0147231Y0044587D01*
X0147562Y0044587D01*
X0147562Y0045788D01*
X0147231Y0045788D01*
X0146587Y0046432D01*
X0146587Y0052068D01*
X0147069Y0052550D01*
X0144368Y0052550D01*
X0144480Y0052437D02*
X0146957Y0052437D01*
X0146587Y0051439D02*
X0144850Y0051439D01*
X0144850Y0050440D02*
X0146587Y0050440D01*
X0146587Y0049442D02*
X0144850Y0049442D01*
X0144850Y0048443D02*
X0146587Y0048443D01*
X0146587Y0047445D02*
X0144850Y0047445D01*
X0144850Y0046446D02*
X0146587Y0046446D01*
X0147562Y0045448D02*
X0119259Y0045448D01*
X0119259Y0046446D02*
X0139500Y0046446D01*
X0139500Y0047445D02*
X0137241Y0047445D01*
X0140007Y0044449D02*
X0119157Y0044449D01*
X0118159Y0043451D02*
X0125430Y0043451D01*
X0128507Y0043451D02*
X0136680Y0043451D01*
X0135928Y0042452D02*
X0129259Y0042452D01*
X0129259Y0041454D02*
X0135928Y0041454D01*
X0136274Y0040455D02*
X0128913Y0040455D01*
X0138108Y0039457D02*
X0113329Y0039457D01*
X0112381Y0038458D02*
X0107680Y0038458D01*
X0107657Y0035050D02*
X0112372Y0035050D01*
X0112948Y0034474D01*
X0113935Y0034066D01*
X0115002Y0034066D01*
X0115989Y0034474D01*
X0116565Y0035050D01*
X0132178Y0035050D01*
X0132178Y0033450D01*
X0108333Y0033450D01*
X0106733Y0035050D01*
X0106955Y0035050D01*
X0107646Y0035039D01*
X0107657Y0035050D01*
X0107319Y0034464D02*
X0112972Y0034464D01*
X0115965Y0034464D02*
X0132178Y0034464D01*
X0132178Y0033466D02*
X0108317Y0033466D01*
X0105506Y0031469D02*
X0103404Y0031469D01*
X0102405Y0032467D02*
X0104507Y0032467D01*
X0103509Y0033466D02*
X0101407Y0033466D01*
X0100408Y0034464D02*
X0102510Y0034464D01*
X0100805Y0035463D02*
X0099410Y0035463D01*
X0099806Y0036461D02*
X0098411Y0036461D01*
X0098808Y0037460D02*
X0098009Y0037460D01*
X0097809Y0038458D02*
X0097249Y0038458D01*
X0096683Y0039457D02*
X0096459Y0039457D01*
X0096258Y0039901D02*
X0094334Y0041826D01*
X0103030Y0050522D01*
X0103235Y0050709D01*
X0104167Y0050709D01*
X0105509Y0052051D01*
X0105509Y0053800D01*
X0109179Y0053800D01*
X0109770Y0053209D01*
X0110987Y0053209D01*
X0110841Y0053063D01*
X0110841Y0053036D01*
X0110814Y0053036D01*
X0108987Y0051209D01*
X0108845Y0051209D01*
X0108463Y0051107D01*
X0108121Y0050909D01*
X0107239Y0050027D01*
X0110032Y0047234D01*
X0109961Y0047163D01*
X0107168Y0049956D01*
X0106286Y0049074D01*
X0106089Y0048732D01*
X0106013Y0048450D01*
X0102625Y0048450D01*
X0102590Y0048482D01*
X0101928Y0048450D01*
X0101264Y0048450D01*
X0101231Y0048417D01*
X0101184Y0048414D01*
X0100738Y0047923D01*
X0100269Y0047454D01*
X0100269Y0047407D01*
X0099602Y0046673D01*
X0099133Y0046204D01*
X0099133Y0046157D01*
X0099101Y0046122D01*
X0099133Y0045459D01*
X0099133Y0043819D01*
X0099019Y0043704D01*
X0099019Y0043682D01*
X0099003Y0043666D01*
X0099015Y0043121D01*
X0097600Y0043121D01*
X0096258Y0041779D01*
X0096258Y0039901D01*
X0096258Y0040455D02*
X0095704Y0040455D01*
X0096258Y0041454D02*
X0094706Y0041454D01*
X0094961Y0042452D02*
X0096932Y0042452D01*
X0095959Y0043451D02*
X0099008Y0043451D01*
X0099133Y0044449D02*
X0096958Y0044449D01*
X0097956Y0045448D02*
X0099133Y0045448D01*
X0098955Y0046446D02*
X0099375Y0046446D01*
X0099953Y0047445D02*
X0100269Y0047445D01*
X0100952Y0048443D02*
X0101258Y0048443D01*
X0101950Y0049442D02*
X0106654Y0049442D01*
X0107683Y0049442D02*
X0107824Y0049442D01*
X0107652Y0050440D02*
X0102949Y0050440D01*
X0104897Y0051439D02*
X0109217Y0051439D01*
X0110215Y0052437D02*
X0105509Y0052437D01*
X0105509Y0053436D02*
X0109543Y0053436D01*
X0108823Y0048443D02*
X0108681Y0048443D01*
X0109680Y0047445D02*
X0109821Y0047445D01*
X0110103Y0047163D02*
X0110032Y0047093D01*
X0112825Y0044300D01*
X0111943Y0043418D01*
X0111601Y0043220D01*
X0111220Y0043118D01*
X0111078Y0043118D01*
X0110160Y0042200D01*
X0111264Y0042200D01*
X0111519Y0042454D01*
X0112514Y0043450D01*
X0115779Y0043450D01*
X0114678Y0044551D01*
X0114678Y0044568D01*
X0114450Y0044796D01*
X0113857Y0045389D01*
X0113778Y0045252D01*
X0112896Y0044370D01*
X0110103Y0047163D01*
X0110678Y0046446D02*
X0110820Y0046446D01*
X0111677Y0045448D02*
X0111818Y0045448D01*
X0112675Y0044449D02*
X0112817Y0044449D01*
X0112975Y0044449D02*
X0114780Y0044449D01*
X0115778Y0043451D02*
X0111976Y0043451D01*
X0111517Y0042452D02*
X0110412Y0042452D01*
X0116556Y0038458D02*
X0139500Y0038458D01*
X0144850Y0038458D02*
X0146587Y0038458D01*
X0146587Y0039457D02*
X0144850Y0039457D01*
X0144850Y0040455D02*
X0146587Y0040455D01*
X0146587Y0041454D02*
X0144850Y0041454D01*
X0144850Y0042452D02*
X0146587Y0042452D01*
X0146587Y0043451D02*
X0144850Y0043451D01*
X0144343Y0044449D02*
X0147094Y0044449D01*
X0150962Y0045448D02*
X0158419Y0045448D01*
X0158419Y0046446D02*
X0151937Y0046446D01*
X0151937Y0047445D02*
X0158419Y0047445D01*
X0158419Y0048443D02*
X0151937Y0048443D01*
X0151937Y0049442D02*
X0158505Y0049442D01*
X0155874Y0050440D02*
X0151937Y0050440D01*
X0151937Y0051439D02*
X0154875Y0051439D01*
X0153877Y0052437D02*
X0151567Y0052437D01*
X0155690Y0055433D02*
X0158419Y0055433D01*
X0158419Y0054434D02*
X0156688Y0054434D01*
X0157673Y0053450D02*
X0155173Y0055950D01*
X0151937Y0055950D01*
X0151937Y0060818D01*
X0151292Y0061462D01*
X0151168Y0061462D01*
X0151168Y0063288D01*
X0151420Y0063288D01*
X0152065Y0063932D01*
X0152065Y0068000D01*
X0156264Y0063800D01*
X0164019Y0063800D01*
X0164019Y0063106D01*
X0163419Y0062506D01*
X0163419Y0053450D01*
X0163018Y0053450D01*
X0163018Y0062506D01*
X0162374Y0063150D01*
X0159063Y0063150D01*
X0158419Y0062506D01*
X0158419Y0053450D01*
X0157673Y0053450D01*
X0158419Y0056432D02*
X0151937Y0056432D01*
X0151937Y0057430D02*
X0158419Y0057430D01*
X0158419Y0058429D02*
X0151937Y0058429D01*
X0151937Y0059427D02*
X0158419Y0059427D01*
X0158419Y0060426D02*
X0151937Y0060426D01*
X0151330Y0061424D02*
X0158419Y0061424D01*
X0158419Y0062423D02*
X0151168Y0062423D01*
X0151554Y0063421D02*
X0164019Y0063421D01*
X0163419Y0062423D02*
X0163018Y0062423D01*
X0163018Y0061424D02*
X0163419Y0061424D01*
X0163419Y0060426D02*
X0163018Y0060426D01*
X0163018Y0059427D02*
X0163419Y0059427D01*
X0163419Y0058429D02*
X0163018Y0058429D01*
X0163018Y0057430D02*
X0163419Y0057430D01*
X0163419Y0056432D02*
X0163018Y0056432D01*
X0163018Y0055433D02*
X0163419Y0055433D01*
X0163419Y0054434D02*
X0163018Y0054434D01*
X0168018Y0054434D02*
X0168419Y0054434D01*
X0168419Y0055433D02*
X0168018Y0055433D01*
X0168018Y0056432D02*
X0168419Y0056432D01*
X0168419Y0057430D02*
X0168018Y0057430D01*
X0168018Y0058429D02*
X0168419Y0058429D01*
X0168419Y0059427D02*
X0168018Y0059427D01*
X0168018Y0060426D02*
X0168419Y0060426D01*
X0168419Y0061424D02*
X0168018Y0061424D01*
X0168018Y0062423D02*
X0168419Y0062423D01*
X0167418Y0063421D02*
X0179019Y0063421D01*
X0179019Y0062423D02*
X0178018Y0062423D01*
X0178018Y0062506D02*
X0177374Y0063150D01*
X0174063Y0063150D01*
X0173419Y0062506D01*
X0173419Y0052894D01*
X0174063Y0052250D01*
X0177374Y0052250D01*
X0178018Y0052894D01*
X0178018Y0062506D01*
X0178018Y0061424D02*
X0179019Y0061424D01*
X0179019Y0060426D02*
X0178018Y0060426D01*
X0178018Y0059427D02*
X0179019Y0059427D01*
X0179019Y0058429D02*
X0178018Y0058429D01*
X0178018Y0057430D02*
X0179019Y0057430D01*
X0179019Y0056432D02*
X0178018Y0056432D01*
X0178018Y0055433D02*
X0179019Y0055433D01*
X0179019Y0054434D02*
X0178018Y0054434D01*
X0178018Y0053436D02*
X0179019Y0053436D01*
X0179019Y0052437D02*
X0177562Y0052437D01*
X0179019Y0051439D02*
X0172418Y0051439D01*
X0172562Y0052437D02*
X0173875Y0052437D01*
X0173419Y0053436D02*
X0173018Y0053436D01*
X0173018Y0054434D02*
X0173419Y0054434D01*
X0173419Y0055433D02*
X0173018Y0055433D01*
X0173018Y0056432D02*
X0173419Y0056432D01*
X0173419Y0057430D02*
X0173018Y0057430D01*
X0173018Y0058429D02*
X0173419Y0058429D01*
X0173419Y0059427D02*
X0173018Y0059427D01*
X0173018Y0060426D02*
X0173419Y0060426D01*
X0173419Y0061424D02*
X0173018Y0061424D01*
X0173018Y0062423D02*
X0173419Y0062423D01*
X0179019Y0064420D02*
X0167418Y0064420D01*
X0167418Y0065418D02*
X0179019Y0065418D01*
X0179019Y0066417D02*
X0167206Y0066417D01*
X0169402Y0069412D02*
X0155460Y0069412D01*
X0156459Y0068414D02*
X0179019Y0068414D01*
X0179019Y0067415D02*
X0157458Y0067415D01*
X0154646Y0065418D02*
X0152065Y0065418D01*
X0152065Y0064420D02*
X0155645Y0064420D01*
X0153648Y0066417D02*
X0152065Y0066417D01*
X0152065Y0067415D02*
X0152649Y0067415D01*
X0147193Y0061424D02*
X0144809Y0061424D01*
X0145250Y0060426D02*
X0146587Y0060426D01*
X0146587Y0059427D02*
X0145250Y0059427D01*
X0145250Y0058429D02*
X0146587Y0058429D01*
X0146587Y0057430D02*
X0145250Y0057430D01*
X0145250Y0056432D02*
X0146587Y0056432D01*
X0142463Y0058429D02*
X0141888Y0058429D01*
X0141888Y0059427D02*
X0142463Y0059427D01*
X0142463Y0060426D02*
X0141888Y0060426D01*
X0141888Y0061424D02*
X0142463Y0061424D01*
X0129097Y0053436D02*
X0126894Y0053436D01*
X0126917Y0052437D02*
X0123668Y0052437D01*
X0123668Y0051439D02*
X0125928Y0051439D01*
X0125928Y0050440D02*
X0123063Y0050440D01*
X0122065Y0049442D02*
X0126037Y0049442D01*
X0127036Y0048443D02*
X0121066Y0048443D01*
X0120068Y0047445D02*
X0129196Y0047445D01*
X0124543Y0053436D02*
X0123668Y0053436D01*
X0110987Y0062791D02*
X0110832Y0062791D01*
X0108923Y0064700D01*
X0105173Y0064700D01*
X0103860Y0066013D01*
X0103886Y0066012D01*
X0103901Y0066027D01*
X0105173Y0066027D01*
X0106462Y0067316D01*
X0108587Y0065191D01*
X0108614Y0065191D01*
X0108614Y0065164D01*
X0110814Y0062964D01*
X0110841Y0062964D01*
X0110841Y0062937D01*
X0110987Y0062791D01*
X0110356Y0063421D02*
X0110202Y0063421D01*
X0109358Y0064420D02*
X0109203Y0064420D01*
X0108359Y0065418D02*
X0104455Y0065418D01*
X0105562Y0066417D02*
X0107361Y0066417D01*
X0110554Y0073406D02*
X0112198Y0073406D01*
X0113196Y0074405D02*
X0109555Y0074405D01*
X0110111Y0075403D02*
X0114019Y0075403D01*
X0114019Y0076402D02*
X0110509Y0076402D01*
X0110509Y0077400D02*
X0114019Y0077400D01*
X0117418Y0077400D02*
X0120646Y0077400D01*
X0121284Y0078399D02*
X0118903Y0078399D01*
X0119181Y0079397D02*
X0121006Y0079397D01*
X0121006Y0080396D02*
X0119181Y0080396D01*
X0119181Y0081394D02*
X0121006Y0081394D01*
X0121006Y0082393D02*
X0119181Y0082393D01*
X0119647Y0076402D02*
X0117418Y0076402D01*
X0117418Y0075403D02*
X0118649Y0075403D01*
X0117650Y0074405D02*
X0117418Y0074405D01*
X0105926Y0085388D02*
X0095734Y0085388D01*
X0072715Y0077400D02*
X0064918Y0077400D01*
X0064918Y0076402D02*
X0071716Y0076402D01*
X0068784Y0078399D02*
X0066403Y0078399D01*
X0053419Y0078399D02*
X0053147Y0078399D01*
X0053419Y0079397D02*
X0045027Y0079397D01*
X0045027Y0078399D02*
X0046415Y0078399D01*
X0045919Y0077400D02*
X0045027Y0077400D01*
X0045027Y0076402D02*
X0045919Y0076402D01*
X0045919Y0075419D02*
X0045919Y0073934D01*
X0046021Y0073553D01*
X0046219Y0073211D01*
X0046498Y0072932D01*
X0046840Y0072734D01*
X0047221Y0072632D01*
X0049494Y0072632D01*
X0049494Y0075419D01*
X0045919Y0075419D01*
X0045919Y0075403D02*
X0045027Y0075403D01*
X0045027Y0074405D02*
X0045919Y0074405D01*
X0046106Y0073406D02*
X0045027Y0073406D01*
X0049494Y0073406D02*
X0050068Y0073406D01*
X0050068Y0074405D02*
X0049494Y0074405D01*
X0049494Y0075403D02*
X0050068Y0075403D01*
X0050068Y0076402D02*
X0049494Y0076402D01*
X0049494Y0077400D02*
X0050068Y0077400D01*
X0050068Y0078399D02*
X0049494Y0078399D01*
X0046686Y0080396D02*
X0044403Y0080396D01*
X0038890Y0084390D02*
X0038484Y0084390D01*
X0038890Y0085388D02*
X0037547Y0085388D01*
X0037547Y0086387D02*
X0038890Y0086387D01*
X0038890Y0087385D02*
X0037547Y0087385D01*
X0037547Y0088384D02*
X0038890Y0088384D01*
X0036768Y0089382D02*
X0047169Y0089382D01*
X0047169Y0088384D02*
X0045027Y0088384D01*
X0045027Y0087385D02*
X0047169Y0087385D01*
X0047169Y0086387D02*
X0045027Y0086387D01*
X0045027Y0085388D02*
X0046883Y0085388D01*
X0047169Y0090381D02*
X0036768Y0090381D01*
X0036768Y0091379D02*
X0047169Y0091379D01*
X0048094Y0092378D02*
X0044599Y0092378D01*
X0045598Y0093376D02*
X0049092Y0093376D01*
X0050091Y0094375D02*
X0046596Y0094375D01*
X0047595Y0095373D02*
X0051089Y0095373D01*
X0052088Y0096372D02*
X0048593Y0096372D01*
X0049592Y0097370D02*
X0053086Y0097370D01*
X0054085Y0098369D02*
X0050590Y0098369D01*
X0054488Y0099368D02*
X0055083Y0099368D01*
X0055486Y0100366D02*
X0056082Y0100366D01*
X0055999Y0101365D02*
X0057080Y0101365D01*
X0057619Y0102363D02*
X0056318Y0102363D01*
X0056318Y0103362D02*
X0057619Y0103362D01*
X0057823Y0104360D02*
X0056114Y0104360D01*
X0055700Y0105359D02*
X0058237Y0105359D01*
X0059174Y0106357D02*
X0054763Y0106357D01*
X0049174Y0106357D02*
X0045329Y0106357D01*
X0046098Y0105359D02*
X0048237Y0105359D01*
X0047823Y0104360D02*
X0046521Y0104360D01*
X0047619Y0103362D02*
X0042344Y0103362D01*
X0042344Y0102625D02*
X0046718Y0102625D01*
X0046602Y0101888D01*
X0046370Y0101177D01*
X0046031Y0100510D01*
X0045592Y0099906D01*
X0045063Y0099377D01*
X0044458Y0098937D01*
X0043792Y0098598D01*
X0043081Y0098367D01*
X0042344Y0098250D01*
X0042344Y0102625D01*
X0042344Y0102363D02*
X0041593Y0102363D01*
X0041593Y0101365D02*
X0042344Y0101365D01*
X0042344Y0100366D02*
X0041593Y0100366D01*
X0041593Y0099368D02*
X0042344Y0099368D01*
X0042344Y0098369D02*
X0041593Y0098369D01*
X0040850Y0098369D02*
X0015418Y0098369D01*
X0015780Y0099244D02*
X0014819Y0096925D01*
X0013044Y0095149D01*
X0010724Y0094188D01*
X0008213Y0094188D01*
X0005893Y0095149D01*
X0004118Y0096925D01*
X0003157Y0099244D01*
X0003157Y0101755D01*
X0004118Y0104075D01*
X0005893Y0105851D01*
X0008213Y0106812D01*
X0010724Y0106812D01*
X0013044Y0105851D01*
X0014819Y0104075D01*
X0015780Y0101755D01*
X0015780Y0099244D01*
X0015780Y0099368D02*
X0038887Y0099368D01*
X0038011Y0100366D02*
X0015780Y0100366D01*
X0015780Y0101365D02*
X0037505Y0101365D01*
X0037260Y0102363D02*
X0015529Y0102363D01*
X0015115Y0103362D02*
X0041593Y0103362D01*
X0037416Y0104360D02*
X0014535Y0104360D01*
X0013536Y0105359D02*
X0037839Y0105359D01*
X0038608Y0106357D02*
X0011822Y0106357D01*
X0007115Y0106357D02*
X0003875Y0106357D01*
X0003045Y0105359D02*
X0005401Y0105359D01*
X0004402Y0104360D02*
X0002631Y0104360D01*
X0002461Y0103362D02*
X0003822Y0103362D01*
X0003408Y0102363D02*
X0002456Y0102363D01*
X0002456Y0101365D02*
X0003157Y0101365D01*
X0003157Y0100366D02*
X0002456Y0100366D01*
X0002456Y0099368D02*
X0003157Y0099368D01*
X0003519Y0098369D02*
X0002456Y0098369D01*
X0002456Y0097370D02*
X0003933Y0097370D01*
X0004670Y0096372D02*
X0002456Y0096372D01*
X0002456Y0095373D02*
X0005669Y0095373D01*
X0007762Y0094375D02*
X0002456Y0094375D01*
X0002456Y0093376D02*
X0032169Y0093376D01*
X0032169Y0092378D02*
X0002456Y0092378D01*
X0002456Y0091379D02*
X0032169Y0091379D01*
X0032169Y0090381D02*
X0002456Y0090381D01*
X0002456Y0089382D02*
X0032169Y0089382D01*
X0031410Y0088384D02*
X0002456Y0088384D01*
X0002456Y0087385D02*
X0004109Y0087385D01*
X0003496Y0086387D02*
X0002456Y0086387D01*
X0002456Y0085388D02*
X0003496Y0085388D01*
X0003496Y0084390D02*
X0002456Y0084390D01*
X0002456Y0083391D02*
X0003496Y0083391D01*
X0003496Y0082393D02*
X0002456Y0082393D01*
X0002456Y0081394D02*
X0003496Y0081394D01*
X0003962Y0080396D02*
X0002456Y0080396D01*
X0002456Y0079397D02*
X0006376Y0079397D01*
X0005928Y0078399D02*
X0002456Y0078399D01*
X0002456Y0077400D02*
X0005928Y0077400D01*
X0006577Y0076402D02*
X0002456Y0076402D01*
X0002456Y0075403D02*
X0008928Y0075403D01*
X0008416Y0074405D02*
X0002456Y0074405D01*
X0002456Y0073406D02*
X0008419Y0073406D01*
X0008419Y0072408D02*
X0002456Y0072408D01*
X0002456Y0071409D02*
X0008419Y0071409D01*
X0008419Y0070411D02*
X0002456Y0070411D01*
X0002456Y0069412D02*
X0008419Y0069412D01*
X0008419Y0068414D02*
X0002456Y0068414D01*
X0002456Y0067415D02*
X0008419Y0067415D01*
X0008419Y0066417D02*
X0002456Y0066417D01*
X0002456Y0065418D02*
X0008419Y0065418D01*
X0008419Y0064420D02*
X0002456Y0064420D01*
X0002456Y0063421D02*
X0008419Y0063421D01*
X0003753Y0062423D02*
X0002456Y0062423D01*
X0002456Y0061424D02*
X0003496Y0061424D01*
X0003496Y0060426D02*
X0002456Y0060426D01*
X0002456Y0059427D02*
X0003496Y0059427D01*
X0003496Y0058429D02*
X0002456Y0058429D01*
X0002456Y0057430D02*
X0003496Y0057430D01*
X0003496Y0056432D02*
X0002456Y0056432D01*
X0002456Y0055433D02*
X0019756Y0055433D01*
X0019756Y0055239D02*
X0020401Y0054594D01*
X0026036Y0054594D01*
X0026681Y0055239D01*
X0026681Y0055369D01*
X0028194Y0055369D01*
X0028194Y0055239D01*
X0028838Y0054594D01*
X0034474Y0054594D01*
X0035118Y0055239D01*
X0035118Y0055369D01*
X0036319Y0055369D01*
X0036319Y0055239D01*
X0036963Y0054594D01*
X0038081Y0054594D01*
X0038081Y0053233D01*
X0038428Y0052886D01*
X0038428Y0052051D01*
X0039770Y0050709D01*
X0041667Y0050709D01*
X0043009Y0052051D01*
X0043009Y0053949D01*
X0042363Y0054594D01*
X0042599Y0054594D01*
X0043243Y0055239D01*
X0043243Y0059300D01*
X0042599Y0059944D01*
X0036963Y0059944D01*
X0036319Y0059300D01*
X0036319Y0059169D01*
X0035118Y0059169D01*
X0035118Y0059300D01*
X0034474Y0059944D01*
X0028838Y0059944D01*
X0028194Y0059300D01*
X0028194Y0059169D01*
X0026681Y0059169D01*
X0026681Y0059300D01*
X0026036Y0059944D01*
X0020401Y0059944D01*
X0019756Y0059300D01*
X0019756Y0055239D01*
X0019756Y0056432D02*
X0013570Y0056432D01*
X0013570Y0057430D02*
X0019756Y0057430D01*
X0019756Y0058429D02*
X0013570Y0058429D01*
X0013570Y0059427D02*
X0019884Y0059427D01*
X0013570Y0060426D02*
X0051990Y0060426D01*
X0052988Y0061424D02*
X0042793Y0061424D01*
X0042722Y0061383D02*
X0043064Y0061581D01*
X0043343Y0061860D01*
X0043541Y0062202D01*
X0043643Y0062584D01*
X0043643Y0064068D01*
X0040068Y0064068D01*
X0040068Y0061281D01*
X0042341Y0061281D01*
X0042722Y0061383D01*
X0043600Y0062423D02*
X0053987Y0062423D01*
X0054936Y0063421D02*
X0054985Y0063421D01*
X0055676Y0064420D02*
X0055984Y0064420D01*
X0056389Y0065418D02*
X0056982Y0065418D01*
X0057388Y0066417D02*
X0057981Y0066417D01*
X0058018Y0067415D02*
X0058979Y0067415D01*
X0058018Y0068414D02*
X0059978Y0068414D01*
X0060977Y0069412D02*
X0058018Y0069412D01*
X0053419Y0069412D02*
X0022376Y0069412D01*
X0022376Y0068414D02*
X0052879Y0068414D01*
X0051338Y0067415D02*
X0042398Y0067415D01*
X0042341Y0067431D02*
X0040068Y0067431D01*
X0040068Y0064643D01*
X0039494Y0064643D01*
X0039494Y0067431D01*
X0037221Y0067431D01*
X0036840Y0067328D01*
X0036498Y0067131D01*
X0036219Y0066852D01*
X0036021Y0066510D01*
X0035919Y0066128D01*
X0035919Y0064643D01*
X0039494Y0064643D01*
X0039494Y0064068D01*
X0040068Y0064068D01*
X0040068Y0064643D01*
X0043643Y0064643D01*
X0043643Y0066128D01*
X0043541Y0066510D01*
X0043343Y0066852D01*
X0043064Y0067131D01*
X0042722Y0067328D01*
X0042341Y0067431D01*
X0043566Y0066417D02*
X0050693Y0066417D01*
X0050534Y0065418D02*
X0043643Y0065418D01*
X0040068Y0065418D02*
X0039494Y0065418D01*
X0039494Y0064420D02*
X0031943Y0064420D01*
X0031943Y0064643D02*
X0035518Y0064643D01*
X0035518Y0066128D01*
X0035416Y0066510D01*
X0035218Y0066852D01*
X0034939Y0067131D01*
X0034597Y0067328D01*
X0034216Y0067431D01*
X0031943Y0067431D01*
X0031943Y0064643D01*
X0031369Y0064643D01*
X0031369Y0067431D01*
X0029096Y0067431D01*
X0028715Y0067328D01*
X0028373Y0067131D01*
X0028094Y0066852D01*
X0027896Y0066510D01*
X0027794Y0066128D01*
X0027794Y0064643D01*
X0031369Y0064643D01*
X0031369Y0064068D01*
X0031943Y0064068D01*
X0031943Y0061281D01*
X0034216Y0061281D01*
X0034597Y0061383D01*
X0034939Y0061581D01*
X0035218Y0061860D01*
X0035416Y0062202D01*
X0035518Y0062584D01*
X0035518Y0064068D01*
X0031943Y0064068D01*
X0031943Y0064643D01*
X0031369Y0064420D02*
X0026681Y0064420D01*
X0026681Y0065418D02*
X0027794Y0065418D01*
X0027871Y0066417D02*
X0026650Y0066417D01*
X0029039Y0067415D02*
X0022325Y0067415D01*
X0022376Y0070411D02*
X0053419Y0070411D01*
X0053419Y0071409D02*
X0021891Y0071409D01*
X0021976Y0072408D02*
X0032050Y0072408D01*
X0031983Y0072447D02*
X0032325Y0072249D01*
X0032706Y0072147D01*
X0034766Y0072147D01*
X0034766Y0075982D01*
X0031404Y0075982D01*
X0031404Y0073450D01*
X0031506Y0073068D01*
X0031703Y0072726D01*
X0031983Y0072447D01*
X0031415Y0073406D02*
X0028429Y0073406D01*
X0029227Y0074405D02*
X0031404Y0074405D01*
X0031404Y0075403D02*
X0029268Y0075403D01*
X0029268Y0076619D02*
X0029268Y0078104D01*
X0029166Y0078485D01*
X0028968Y0078828D01*
X0028689Y0079107D01*
X0028347Y0079304D01*
X0027966Y0079406D01*
X0025693Y0079406D01*
X0025693Y0076619D01*
X0029268Y0076619D01*
X0029268Y0077400D02*
X0031404Y0077400D01*
X0031404Y0078399D02*
X0029189Y0078399D01*
X0028000Y0079397D02*
X0031404Y0079397D01*
X0031862Y0080396D02*
X0020679Y0080396D01*
X0020678Y0079397D02*
X0022812Y0079397D01*
X0021623Y0078399D02*
X0020678Y0078399D01*
X0020677Y0077400D02*
X0021544Y0077400D01*
X0020677Y0076402D02*
X0025119Y0076402D01*
X0025693Y0076402D02*
X0034766Y0076402D01*
X0034766Y0077400D02*
X0035766Y0077400D01*
X0035766Y0078399D02*
X0034766Y0078399D01*
X0034766Y0079397D02*
X0035766Y0079397D01*
X0035766Y0080396D02*
X0034766Y0080396D01*
X0025693Y0079397D02*
X0025119Y0079397D01*
X0025119Y0078399D02*
X0025693Y0078399D01*
X0025693Y0077400D02*
X0025119Y0077400D01*
X0025119Y0075403D02*
X0025693Y0075403D01*
X0025693Y0074405D02*
X0025119Y0074405D01*
X0025119Y0073406D02*
X0025693Y0073406D01*
X0022383Y0073406D02*
X0021976Y0073406D01*
X0015227Y0071661D02*
X0013018Y0071651D01*
X0013018Y0066550D01*
X0015047Y0066550D01*
X0014955Y0066603D01*
X0014676Y0066882D01*
X0014478Y0067224D01*
X0014376Y0067606D01*
X0014376Y0068928D01*
X0018251Y0068928D01*
X0018251Y0069178D01*
X0014376Y0069178D01*
X0014376Y0070501D01*
X0014478Y0070882D01*
X0014676Y0071224D01*
X0014955Y0071503D01*
X0015227Y0071661D01*
X0014861Y0071409D02*
X0013018Y0071409D01*
X0013018Y0070411D02*
X0014376Y0070411D01*
X0014376Y0069412D02*
X0013018Y0069412D01*
X0013018Y0068414D02*
X0014376Y0068414D01*
X0014427Y0067415D02*
X0013018Y0067415D01*
X0013570Y0061424D02*
X0028644Y0061424D01*
X0028715Y0061383D02*
X0029096Y0061281D01*
X0031369Y0061281D01*
X0031369Y0064068D01*
X0027794Y0064068D01*
X0027794Y0062584D01*
X0027896Y0062202D01*
X0028094Y0061860D01*
X0028373Y0061581D01*
X0028715Y0061383D01*
X0027837Y0062423D02*
X0026681Y0062423D01*
X0026681Y0063421D02*
X0027794Y0063421D01*
X0031369Y0063421D02*
X0031943Y0063421D01*
X0031943Y0062423D02*
X0031369Y0062423D01*
X0031369Y0061424D02*
X0031943Y0061424D01*
X0034668Y0061424D02*
X0036769Y0061424D01*
X0036840Y0061383D02*
X0037221Y0061281D01*
X0039494Y0061281D01*
X0039494Y0064068D01*
X0035919Y0064068D01*
X0035919Y0062584D01*
X0036021Y0062202D01*
X0036219Y0061860D01*
X0036498Y0061581D01*
X0036840Y0061383D01*
X0035962Y0062423D02*
X0035475Y0062423D01*
X0035518Y0063421D02*
X0035919Y0063421D01*
X0035919Y0065418D02*
X0035518Y0065418D01*
X0035441Y0066417D02*
X0035996Y0066417D01*
X0037164Y0067415D02*
X0034273Y0067415D01*
X0031943Y0067415D02*
X0031369Y0067415D01*
X0031369Y0066417D02*
X0031943Y0066417D01*
X0031943Y0065418D02*
X0031369Y0065418D01*
X0039494Y0066417D02*
X0040068Y0066417D01*
X0040068Y0067415D02*
X0039494Y0067415D01*
X0040068Y0064420D02*
X0050761Y0064420D01*
X0051501Y0063421D02*
X0043643Y0063421D01*
X0040068Y0063421D02*
X0039494Y0063421D01*
X0039494Y0062423D02*
X0040068Y0062423D01*
X0040068Y0061424D02*
X0039494Y0061424D01*
X0043116Y0059427D02*
X0050991Y0059427D01*
X0049993Y0058429D02*
X0043243Y0058429D01*
X0043243Y0057430D02*
X0048994Y0057430D01*
X0047996Y0056432D02*
X0043243Y0056432D01*
X0043243Y0055433D02*
X0046997Y0055433D01*
X0045999Y0054434D02*
X0042523Y0054434D01*
X0043009Y0053436D02*
X0045000Y0053436D01*
X0044002Y0052437D02*
X0043009Y0052437D01*
X0043003Y0051439D02*
X0042397Y0051439D01*
X0042005Y0050440D02*
X0002456Y0050440D01*
X0002456Y0049442D02*
X0041006Y0049442D01*
X0040008Y0048443D02*
X0002456Y0048443D01*
X0002456Y0047445D02*
X0039019Y0047445D01*
X0039019Y0046446D02*
X0002456Y0046446D01*
X0002942Y0045745D02*
X0002745Y0045403D01*
X0002643Y0045021D01*
X0002643Y0043257D01*
X0007973Y0043257D01*
X0007973Y0042257D01*
X0002643Y0042257D01*
X0002643Y0040493D01*
X0002745Y0040111D01*
X0002942Y0039769D01*
X0003222Y0039490D01*
X0003564Y0039292D01*
X0003945Y0039190D01*
X0007973Y0039190D01*
X0007973Y0042257D01*
X0008973Y0042257D01*
X0008973Y0039190D01*
X0011320Y0039190D01*
X0011320Y0034710D01*
X0008973Y0034710D01*
X0008973Y0031643D01*
X0007973Y0031643D01*
X0007973Y0030643D01*
X0002643Y0030643D01*
X0002643Y0028878D01*
X0002745Y0028497D01*
X0002942Y0028155D01*
X0003222Y0027876D01*
X0003564Y0027678D01*
X0003945Y0027576D01*
X0007973Y0027576D01*
X0007973Y0030643D01*
X0008973Y0030643D01*
X0008973Y0027576D01*
X0013002Y0027576D01*
X0013383Y0027678D01*
X0013725Y0027876D01*
X0014004Y0028155D01*
X0014202Y0028497D01*
X0014304Y0028878D01*
X0014304Y0030643D01*
X0008974Y0030643D01*
X0008974Y0031643D01*
X0014304Y0031643D01*
X0014304Y0033407D01*
X0014202Y0033789D01*
X0014167Y0033850D01*
X0016517Y0033850D01*
X0016661Y0033706D01*
X0016661Y0032335D01*
X0017392Y0030571D01*
X0018742Y0029221D01*
X0020506Y0028490D01*
X0022416Y0028490D01*
X0024180Y0029221D01*
X0025530Y0030571D01*
X0026261Y0032335D01*
X0026261Y0034245D01*
X0025530Y0036009D01*
X0024180Y0037359D01*
X0022416Y0038090D01*
X0021045Y0038090D01*
X0020429Y0038706D01*
X0019557Y0039578D01*
X0018418Y0040050D01*
X0014167Y0040050D01*
X0014202Y0040111D01*
X0014304Y0040493D01*
X0014304Y0042257D01*
X0008974Y0042257D01*
X0008974Y0043257D01*
X0014304Y0043257D01*
X0014304Y0045021D01*
X0014202Y0045403D01*
X0014004Y0045745D01*
X0013725Y0046024D01*
X0013383Y0046222D01*
X0013002Y0046324D01*
X0008973Y0046324D01*
X0008973Y0043257D01*
X0007973Y0043257D01*
X0007973Y0046324D01*
X0003945Y0046324D01*
X0003564Y0046222D01*
X0003222Y0046024D01*
X0002942Y0045745D01*
X0002771Y0045448D02*
X0002456Y0045448D01*
X0002456Y0044449D02*
X0002643Y0044449D01*
X0002643Y0043451D02*
X0002456Y0043451D01*
X0002456Y0042452D02*
X0007973Y0042452D01*
X0007973Y0041454D02*
X0008973Y0041454D01*
X0008974Y0042452D02*
X0039019Y0042452D01*
X0039019Y0041454D02*
X0014304Y0041454D01*
X0014294Y0040455D02*
X0039019Y0040455D01*
X0039019Y0039457D02*
X0019678Y0039457D01*
X0020677Y0038458D02*
X0039019Y0038458D01*
X0039019Y0037460D02*
X0023937Y0037460D01*
X0025078Y0036461D02*
X0039019Y0036461D01*
X0039019Y0035463D02*
X0025756Y0035463D01*
X0026170Y0034464D02*
X0039019Y0034464D01*
X0039019Y0033466D02*
X0026261Y0033466D01*
X0026261Y0032467D02*
X0039019Y0032467D01*
X0039019Y0031469D02*
X0025902Y0031469D01*
X0025429Y0030470D02*
X0039019Y0030470D01*
X0039019Y0029472D02*
X0024431Y0029472D01*
X0018491Y0029472D02*
X0014304Y0029472D01*
X0014304Y0030470D02*
X0017493Y0030470D01*
X0017020Y0031469D02*
X0008974Y0031469D01*
X0008973Y0032467D02*
X0007973Y0032467D01*
X0007973Y0031643D02*
X0007973Y0034710D01*
X0003945Y0034710D01*
X0003564Y0034608D01*
X0003222Y0034410D01*
X0002942Y0034131D01*
X0002745Y0033789D01*
X0002643Y0033407D01*
X0002643Y0031643D01*
X0007973Y0031643D01*
X0007973Y0031469D02*
X0002456Y0031469D01*
X0002456Y0032467D02*
X0002643Y0032467D01*
X0002658Y0033466D02*
X0002456Y0033466D01*
X0002456Y0034464D02*
X0003316Y0034464D01*
X0002456Y0035463D02*
X0011320Y0035463D01*
X0011320Y0036461D02*
X0002456Y0036461D01*
X0002456Y0037460D02*
X0011320Y0037460D01*
X0011320Y0038458D02*
X0002456Y0038458D01*
X0002456Y0039457D02*
X0003279Y0039457D01*
X0002653Y0040455D02*
X0002456Y0040455D01*
X0002456Y0041454D02*
X0002643Y0041454D01*
X0007973Y0040455D02*
X0008973Y0040455D01*
X0008973Y0039457D02*
X0007973Y0039457D01*
X0007973Y0043451D02*
X0008973Y0043451D01*
X0008973Y0044449D02*
X0007973Y0044449D01*
X0007973Y0045448D02*
X0008973Y0045448D01*
X0014176Y0045448D02*
X0039019Y0045448D01*
X0039019Y0044449D02*
X0014304Y0044449D01*
X0014304Y0043451D02*
X0039019Y0043451D01*
X0051560Y0043010D02*
X0055300Y0046750D01*
X0064087Y0050440D02*
X0064972Y0050440D01*
X0065062Y0049442D02*
X0065480Y0049442D01*
X0039040Y0051439D02*
X0002456Y0051439D01*
X0002456Y0052437D02*
X0038428Y0052437D01*
X0038081Y0053436D02*
X0002456Y0053436D01*
X0002456Y0054434D02*
X0038081Y0054434D01*
X0036446Y0059427D02*
X0034991Y0059427D01*
X0028321Y0059427D02*
X0026553Y0059427D01*
X0034766Y0072408D02*
X0035766Y0072408D01*
X0035766Y0073406D02*
X0034766Y0073406D01*
X0034766Y0074405D02*
X0035766Y0074405D01*
X0035766Y0075403D02*
X0034766Y0075403D01*
X0038481Y0072408D02*
X0053419Y0072408D01*
X0031410Y0086387D02*
X0013570Y0086387D01*
X0013570Y0085388D02*
X0017097Y0085388D01*
X0016098Y0084390D02*
X0013570Y0084390D01*
X0013570Y0083391D02*
X0016080Y0083391D01*
X0016080Y0084371D02*
X0016080Y0084371D01*
X0016080Y0082393D02*
X0013570Y0082393D01*
X0013570Y0081394D02*
X0016079Y0081394D01*
X0016079Y0080396D02*
X0013105Y0080396D01*
X0012958Y0087385D02*
X0031410Y0087385D01*
X0032169Y0094375D02*
X0011175Y0094375D01*
X0013268Y0095373D02*
X0032339Y0095373D01*
X0033338Y0096372D02*
X0014267Y0096372D01*
X0015004Y0097370D02*
X0043086Y0097370D01*
X0043087Y0098369D02*
X0044085Y0098369D01*
X0045050Y0099368D02*
X0045083Y0099368D01*
X0045926Y0100366D02*
X0046082Y0100366D01*
X0046432Y0101365D02*
X0047080Y0101365D01*
X0046677Y0102363D02*
X0047619Y0102363D01*
X0043883Y0107356D02*
X0192838Y0107356D01*
X0147619Y0106357D02*
X0144763Y0106357D01*
X0145700Y0105359D02*
X0147619Y0105359D01*
X0147619Y0104360D02*
X0146114Y0104360D01*
X0146318Y0103362D02*
X0147619Y0103362D01*
X0147619Y0102363D02*
X0146318Y0102363D01*
X0145999Y0101365D02*
X0147619Y0101365D01*
X0146930Y0100366D02*
X0145486Y0100366D01*
X0145932Y0099368D02*
X0144488Y0099368D01*
X0144933Y0098369D02*
X0143668Y0098369D01*
X0143668Y0097370D02*
X0143935Y0097370D01*
X0140269Y0098369D02*
X0137418Y0098369D01*
X0137418Y0099368D02*
X0139449Y0099368D01*
X0138451Y0100366D02*
X0137007Y0100366D01*
X0137938Y0101365D02*
X0136008Y0101365D01*
X0136318Y0102363D02*
X0137619Y0102363D01*
X0137619Y0103362D02*
X0136318Y0103362D01*
X0136114Y0104360D02*
X0137823Y0104360D01*
X0138237Y0105359D02*
X0135700Y0105359D01*
X0134763Y0106357D02*
X0139174Y0106357D01*
X0109174Y0106357D02*
X0104763Y0106357D01*
X0105700Y0105359D02*
X0108237Y0105359D01*
X0107823Y0104360D02*
X0106114Y0104360D01*
X0106318Y0103362D02*
X0107619Y0103362D01*
X0107619Y0102363D02*
X0106318Y0102363D01*
X0106008Y0101365D02*
X0107938Y0101365D01*
X0099449Y0099368D02*
X0094488Y0099368D01*
X0095486Y0100366D02*
X0098451Y0100366D01*
X0097938Y0101365D02*
X0095999Y0101365D01*
X0096318Y0102363D02*
X0097619Y0102363D01*
X0097619Y0103362D02*
X0096318Y0103362D01*
X0096114Y0104360D02*
X0097823Y0104360D01*
X0098237Y0105359D02*
X0095700Y0105359D01*
X0094763Y0106357D02*
X0099174Y0106357D01*
X0069174Y0106357D02*
X0064763Y0106357D01*
X0065700Y0105359D02*
X0068237Y0105359D01*
X0067823Y0104360D02*
X0066114Y0104360D01*
X0066318Y0103362D02*
X0067619Y0103362D01*
X0067619Y0102363D02*
X0066318Y0102363D01*
X0065999Y0101365D02*
X0067938Y0101365D01*
X0068451Y0100366D02*
X0065486Y0100366D01*
X0064918Y0099368D02*
X0069449Y0099368D01*
X0040054Y0107356D02*
X0005653Y0107356D01*
X0146168Y0086387D02*
X0146519Y0086387D01*
X0146519Y0085388D02*
X0146168Y0085388D01*
X0146168Y0084390D02*
X0146519Y0084390D01*
X0172418Y0072408D02*
X0187619Y0072408D01*
X0187619Y0073406D02*
X0178326Y0073406D01*
X0178418Y0074405D02*
X0187842Y0074405D01*
X0188256Y0075403D02*
X0178418Y0075403D01*
X0178418Y0076402D02*
X0189218Y0076402D01*
X0195681Y0075403D02*
X0196481Y0075403D01*
X0196481Y0074405D02*
X0196095Y0074405D01*
X0196318Y0073406D02*
X0196481Y0073406D01*
X0196481Y0072408D02*
X0196318Y0072408D01*
X0196481Y0071409D02*
X0196018Y0071409D01*
X0196481Y0070411D02*
X0195531Y0070411D01*
X0196481Y0069412D02*
X0194533Y0069412D01*
X0196481Y0068414D02*
X0182418Y0068414D01*
X0182418Y0069412D02*
X0189404Y0069412D01*
X0188406Y0070411D02*
X0182418Y0070411D01*
X0182213Y0071409D02*
X0187919Y0071409D01*
X0182418Y0067415D02*
X0196481Y0067415D01*
X0196481Y0066417D02*
X0194704Y0066417D01*
X0194433Y0066688D02*
X0192834Y0067350D01*
X0191103Y0067350D01*
X0189504Y0066688D01*
X0188281Y0065464D01*
X0187619Y0063865D01*
X0187619Y0062135D01*
X0188281Y0060536D01*
X0189504Y0059312D01*
X0191103Y0058650D01*
X0192834Y0058650D01*
X0194433Y0059312D01*
X0195656Y0060536D01*
X0196318Y0062135D01*
X0196318Y0063865D01*
X0195656Y0065464D01*
X0194433Y0066688D01*
X0195675Y0065418D02*
X0196481Y0065418D01*
X0196481Y0064420D02*
X0196089Y0064420D01*
X0196318Y0063421D02*
X0196481Y0063421D01*
X0196481Y0062423D02*
X0196318Y0062423D01*
X0196481Y0061424D02*
X0196024Y0061424D01*
X0196481Y0060426D02*
X0195546Y0060426D01*
X0196481Y0059427D02*
X0194547Y0059427D01*
X0196481Y0058429D02*
X0182418Y0058429D01*
X0182418Y0059427D02*
X0189390Y0059427D01*
X0188391Y0060426D02*
X0182418Y0060426D01*
X0182418Y0061424D02*
X0187913Y0061424D01*
X0187619Y0062423D02*
X0182418Y0062423D01*
X0182418Y0063421D02*
X0187619Y0063421D01*
X0187848Y0064420D02*
X0182418Y0064420D01*
X0182418Y0065418D02*
X0188262Y0065418D01*
X0189233Y0066417D02*
X0182418Y0066417D01*
X0175819Y0073406D02*
X0175618Y0073406D01*
X0175618Y0074405D02*
X0175819Y0074405D01*
X0175819Y0075403D02*
X0175618Y0075403D01*
X0175618Y0076402D02*
X0175819Y0076402D01*
X0175819Y0077400D02*
X0175618Y0077400D01*
X0173019Y0077400D02*
X0173018Y0077400D01*
X0173018Y0076402D02*
X0173019Y0076402D01*
X0173018Y0075403D02*
X0173019Y0075403D01*
X0173018Y0074405D02*
X0173019Y0074405D01*
X0172930Y0073406D02*
X0173111Y0073406D01*
X0175618Y0079397D02*
X0175819Y0079397D01*
X0175819Y0080396D02*
X0175618Y0080396D01*
X0175618Y0081394D02*
X0175819Y0081394D01*
X0175819Y0082393D02*
X0175618Y0082393D01*
X0175618Y0083391D02*
X0175819Y0083391D01*
X0194518Y0079397D02*
X0196481Y0079397D01*
X0196481Y0080396D02*
X0195516Y0080396D01*
X0196012Y0081394D02*
X0196481Y0081394D01*
X0196481Y0082393D02*
X0196318Y0082393D01*
X0196318Y0083391D02*
X0196481Y0083391D01*
X0196481Y0084390D02*
X0196101Y0084390D01*
X0196481Y0085388D02*
X0195688Y0085388D01*
X0196481Y0086387D02*
X0194733Y0086387D01*
X0196481Y0057430D02*
X0182418Y0057430D01*
X0182418Y0056432D02*
X0189248Y0056432D01*
X0188268Y0055433D02*
X0182418Y0055433D01*
X0182418Y0050440D02*
X0188376Y0050440D01*
X0189375Y0049442D02*
X0182418Y0049442D01*
X0182418Y0048443D02*
X0196481Y0048443D01*
X0196481Y0047445D02*
X0182418Y0047445D01*
X0179019Y0047445D02*
X0178018Y0047445D01*
X0178018Y0048443D02*
X0179019Y0048443D01*
X0179019Y0049442D02*
X0177932Y0049442D01*
X0179019Y0050440D02*
X0171813Y0050440D01*
X0172932Y0049442D02*
X0173505Y0049442D01*
X0173419Y0048443D02*
X0173018Y0048443D01*
X0173018Y0047445D02*
X0173419Y0047445D01*
X0173419Y0046446D02*
X0173018Y0046446D01*
X0173018Y0045448D02*
X0173419Y0045448D01*
X0173419Y0044449D02*
X0173018Y0044449D01*
X0173018Y0043451D02*
X0173419Y0043451D01*
X0173419Y0042452D02*
X0173018Y0042452D01*
X0173018Y0041454D02*
X0173419Y0041454D01*
X0173419Y0040455D02*
X0173018Y0040455D01*
X0173009Y0039457D02*
X0173706Y0039457D01*
X0172178Y0037460D02*
X0172168Y0037460D01*
X0172178Y0036461D02*
X0167418Y0036461D01*
X0167418Y0037460D02*
X0169269Y0037460D01*
X0168428Y0038458D02*
X0167418Y0038458D01*
X0167731Y0039457D02*
X0168428Y0039457D01*
X0168419Y0040455D02*
X0168018Y0040455D01*
X0168018Y0041454D02*
X0168419Y0041454D01*
X0168419Y0042452D02*
X0168018Y0042452D01*
X0168018Y0043451D02*
X0168419Y0043451D01*
X0168419Y0044449D02*
X0168018Y0044449D01*
X0168018Y0045448D02*
X0168419Y0045448D01*
X0168419Y0046446D02*
X0168018Y0046446D01*
X0168018Y0047445D02*
X0168419Y0047445D01*
X0168419Y0048443D02*
X0168018Y0048443D01*
X0167932Y0049442D02*
X0168505Y0049442D01*
X0163505Y0049442D02*
X0162932Y0049442D01*
X0163018Y0048443D02*
X0163419Y0048443D01*
X0163419Y0047445D02*
X0163018Y0047445D01*
X0163018Y0046446D02*
X0163419Y0046446D01*
X0163419Y0045448D02*
X0163018Y0045448D01*
X0163018Y0044449D02*
X0163419Y0044449D01*
X0163419Y0043451D02*
X0163018Y0043451D01*
X0163018Y0042452D02*
X0163419Y0042452D01*
X0163419Y0041454D02*
X0163018Y0041454D01*
X0163018Y0040455D02*
X0163419Y0040455D01*
X0163706Y0039457D02*
X0162731Y0039457D01*
X0162418Y0038458D02*
X0164019Y0038458D01*
X0164019Y0037460D02*
X0162418Y0037460D01*
X0162418Y0036461D02*
X0164019Y0036461D01*
X0159019Y0038458D02*
X0158914Y0038458D01*
X0158706Y0039457D02*
X0157916Y0039457D01*
X0158419Y0040455D02*
X0156917Y0040455D01*
X0155919Y0041454D02*
X0158419Y0041454D01*
X0158419Y0042452D02*
X0151937Y0042452D01*
X0151937Y0043451D02*
X0158419Y0043451D01*
X0158419Y0044449D02*
X0151430Y0044449D01*
X0151937Y0038458D02*
X0154106Y0038458D01*
X0155105Y0037460D02*
X0150962Y0037460D01*
X0176759Y0036461D02*
X0179019Y0036461D01*
X0179019Y0037460D02*
X0177418Y0037460D01*
X0177418Y0038458D02*
X0179019Y0038458D01*
X0179019Y0039457D02*
X0177731Y0039457D01*
X0178018Y0040455D02*
X0179019Y0040455D01*
X0179019Y0041454D02*
X0178018Y0041454D01*
X0178018Y0042452D02*
X0179019Y0042452D01*
X0179019Y0043451D02*
X0178018Y0043451D01*
X0178018Y0044449D02*
X0179019Y0044449D01*
X0179019Y0045448D02*
X0178018Y0045448D01*
X0178018Y0046446D02*
X0179019Y0046446D01*
X0194562Y0049442D02*
X0196481Y0049442D01*
X0196481Y0050440D02*
X0195561Y0050440D01*
X0196030Y0051439D02*
X0196481Y0051439D01*
X0196481Y0052437D02*
X0196318Y0052437D01*
X0196318Y0053436D02*
X0196481Y0053436D01*
X0196481Y0054434D02*
X0196083Y0054434D01*
X0196481Y0055433D02*
X0195669Y0055433D01*
X0196481Y0056432D02*
X0194689Y0056432D01*
X0196123Y0037460D02*
X0196481Y0037460D01*
X0158419Y0021484D02*
X0145889Y0021484D01*
X0146332Y0022482D02*
X0144891Y0022482D01*
X0145334Y0023481D02*
X0143892Y0023481D01*
X0146888Y0020485D02*
X0158419Y0020485D01*
X0158419Y0019487D02*
X0147886Y0019487D01*
X0146073Y0016491D02*
X0144629Y0016491D01*
X0145628Y0015493D02*
X0147072Y0015493D01*
X0147619Y0014494D02*
X0146058Y0014494D01*
X0146318Y0013496D02*
X0147619Y0013496D01*
X0147619Y0012497D02*
X0146318Y0012497D01*
X0146055Y0011499D02*
X0147619Y0011499D01*
X0147619Y0010500D02*
X0145620Y0010500D01*
X0144622Y0009501D02*
X0147619Y0009501D01*
X0156318Y0009501D02*
X0187457Y0009501D01*
X0185542Y0010500D02*
X0156318Y0010500D01*
X0156318Y0011499D02*
X0184544Y0011499D01*
X0183881Y0012497D02*
X0156318Y0012497D01*
X0136073Y0016491D02*
X0134629Y0016491D01*
X0135075Y0017490D02*
X0129883Y0017490D01*
X0128885Y0018488D02*
X0134076Y0018488D01*
X0133078Y0019487D02*
X0127886Y0019487D01*
X0126888Y0020485D02*
X0132079Y0020485D01*
X0131081Y0021484D02*
X0125889Y0021484D01*
X0124891Y0022482D02*
X0130082Y0022482D01*
X0129084Y0023481D02*
X0123892Y0023481D01*
X0122893Y0024479D02*
X0128085Y0024479D01*
X0127087Y0025478D02*
X0121895Y0025478D01*
X0106504Y0030470D02*
X0104402Y0030470D01*
X0057879Y0014494D02*
X0056058Y0014494D01*
X0056318Y0013496D02*
X0057619Y0013496D01*
X0057619Y0012497D02*
X0056318Y0012497D01*
X0056055Y0011499D02*
X0057882Y0011499D01*
X0058317Y0010500D02*
X0055620Y0010500D01*
X0054622Y0009501D02*
X0059315Y0009501D01*
X0049315Y0009501D02*
X0044622Y0009501D01*
X0045620Y0010500D02*
X0048317Y0010500D01*
X0047882Y0011499D02*
X0046055Y0011499D01*
X0046318Y0012497D02*
X0047619Y0012497D01*
X0047619Y0013496D02*
X0046318Y0013496D01*
X0046058Y0014494D02*
X0047879Y0014494D01*
X0047072Y0015493D02*
X0045628Y0015493D01*
X0046073Y0016491D02*
X0044629Y0016491D01*
X0045075Y0017490D02*
X0043633Y0017490D01*
X0044076Y0018488D02*
X0042635Y0018488D01*
X0039308Y0016491D02*
X0015780Y0016491D01*
X0015780Y0016755D02*
X0014819Y0019075D01*
X0013044Y0020851D01*
X0010724Y0021812D01*
X0008213Y0021812D01*
X0005893Y0020851D01*
X0004118Y0019075D01*
X0003157Y0016755D01*
X0003157Y0014244D01*
X0004118Y0011925D01*
X0005893Y0010149D01*
X0008213Y0009188D01*
X0010724Y0009188D01*
X0013044Y0010149D01*
X0014819Y0011925D01*
X0015780Y0014244D01*
X0015780Y0016755D01*
X0015476Y0017490D02*
X0039019Y0017490D01*
X0039019Y0018488D02*
X0015063Y0018488D01*
X0014408Y0019487D02*
X0039019Y0019487D01*
X0039019Y0020485D02*
X0013410Y0020485D01*
X0011516Y0021484D02*
X0039019Y0021484D01*
X0039019Y0022482D02*
X0002456Y0022482D01*
X0002456Y0021484D02*
X0007421Y0021484D01*
X0005527Y0020485D02*
X0002456Y0020485D01*
X0002456Y0019487D02*
X0004529Y0019487D01*
X0003874Y0018488D02*
X0002456Y0018488D01*
X0002456Y0017490D02*
X0003461Y0017490D01*
X0003157Y0016491D02*
X0002456Y0016491D01*
X0002456Y0015493D02*
X0003157Y0015493D01*
X0003157Y0014494D02*
X0002456Y0014494D01*
X0002456Y0013496D02*
X0003467Y0013496D01*
X0003881Y0012497D02*
X0002536Y0012497D01*
X0002910Y0011499D02*
X0004544Y0011499D01*
X0005542Y0010500D02*
X0003401Y0010500D01*
X0004400Y0009501D02*
X0007457Y0009501D01*
X0011480Y0009501D02*
X0039315Y0009501D01*
X0038317Y0010500D02*
X0013395Y0010500D01*
X0014393Y0011499D02*
X0037882Y0011499D01*
X0037619Y0012497D02*
X0015056Y0012497D01*
X0015470Y0013496D02*
X0037619Y0013496D01*
X0037879Y0014494D02*
X0015780Y0014494D01*
X0015780Y0015493D02*
X0038309Y0015493D01*
X0046888Y0020485D02*
X0052079Y0020485D01*
X0053078Y0019487D02*
X0047886Y0019487D01*
X0048885Y0018488D02*
X0054076Y0018488D01*
X0055075Y0017490D02*
X0049883Y0017490D01*
X0054629Y0016491D02*
X0056073Y0016491D01*
X0055628Y0015493D02*
X0057072Y0015493D01*
X0039019Y0023481D02*
X0002456Y0023481D01*
X0002456Y0024479D02*
X0039019Y0024479D01*
X0039019Y0025478D02*
X0002456Y0025478D01*
X0002456Y0026476D02*
X0039019Y0026476D01*
X0039019Y0027475D02*
X0002456Y0027475D01*
X0002456Y0028473D02*
X0002759Y0028473D01*
X0002643Y0029472D02*
X0002456Y0029472D01*
X0002456Y0030470D02*
X0002643Y0030470D01*
X0007973Y0030470D02*
X0008973Y0030470D01*
X0008973Y0029472D02*
X0007973Y0029472D01*
X0007973Y0028473D02*
X0008973Y0028473D01*
X0014188Y0028473D02*
X0039019Y0028473D01*
X0016661Y0032467D02*
X0014304Y0032467D01*
X0014289Y0033466D02*
X0016661Y0033466D01*
X0008973Y0033466D02*
X0007973Y0033466D01*
X0007973Y0034464D02*
X0008973Y0034464D01*
X0191480Y0009501D02*
X0195391Y0009501D01*
D29*
X0055719Y0068000D02*
X0053219Y0065500D01*
X0055719Y0068000D02*
X0055719Y0080500D01*
X0053425Y0082793D01*
X0049781Y0082793D01*
X0049574Y0083000D01*
X0049469Y0083000D01*
X0049469Y0090500D01*
X0061969Y0103000D01*
X0051969Y0103000D02*
X0043219Y0094250D01*
X0034469Y0094250D01*
X0034469Y0085143D01*
X0034478Y0085143D01*
X0034478Y0083418D01*
X0025406Y0083418D01*
X0018380Y0083418D01*
X0018376Y0073974D01*
X0010719Y0073941D01*
X0010719Y0064250D01*
X0021969Y0064250D01*
X0023219Y0064356D01*
X0025406Y0069250D02*
X0018573Y0069250D01*
X0018376Y0069053D01*
X0025406Y0069250D02*
X0034469Y0069250D01*
X0034675Y0076482D01*
X0035266Y0076482D01*
X0041959Y0076482D02*
X0041959Y0077663D01*
X0034478Y0085143D01*
X0041959Y0085143D02*
X0041959Y0082793D01*
X0049781Y0082793D01*
X0025406Y0076332D02*
X0025406Y0069250D01*
X0031656Y0064356D02*
X0039781Y0064356D01*
X0033219Y0064250D02*
X0031656Y0064356D01*
D30*
X0023844Y0070500D03*
X0014469Y0078000D03*
X0008219Y0078000D03*
X0023844Y0091750D03*
X0045719Y0089250D03*
X0056969Y0089250D03*
X0056969Y0084250D03*
X0067594Y0090500D03*
X0077594Y0090500D03*
X0101656Y0083625D03*
X0108219Y0080500D03*
X0110719Y0083000D03*
X0119469Y0088000D03*
X0139469Y0088000D03*
X0148219Y0088000D03*
X0151656Y0086437D03*
X0155719Y0085500D03*
X0159469Y0088000D03*
X0180719Y0091750D03*
X0180719Y0078000D03*
X0151969Y0074250D03*
X0144469Y0074250D03*
X0154469Y0060500D03*
X0154469Y0049250D03*
X0154469Y0044250D03*
X0138219Y0041750D03*
X0126969Y0041750D03*
X0123844Y0046437D03*
X0116969Y0045500D03*
X0128219Y0050500D03*
X0125719Y0055500D03*
X0110719Y0055500D03*
X0108219Y0053000D03*
X0103219Y0053000D03*
X0099469Y0053000D03*
X0105719Y0060500D03*
X0110719Y0060500D03*
X0106656Y0066125D03*
X0111344Y0074250D03*
X0108219Y0076750D03*
X0074781Y0069563D03*
X0070094Y0076750D03*
X0047594Y0068000D03*
X0040719Y0053000D03*
X0033844Y0051750D03*
X0023844Y0051750D03*
X0013844Y0051750D03*
X0023844Y0044250D03*
X0033844Y0044250D03*
X0049469Y0044250D03*
X0059156Y0041125D03*
X0066969Y0045500D03*
X0059156Y0033625D03*
X0033844Y0025500D03*
X0033844Y0013000D03*
X0023844Y0013000D03*
X0095719Y0036750D03*
X0098549Y0040830D03*
X0124469Y0034250D03*
X0134469Y0034250D03*
X0154469Y0035500D03*
X0154469Y0029250D03*
X0170719Y0039250D03*
X0174469Y0036750D03*
X0180719Y0024250D03*
X0165719Y0016750D03*
X0115719Y0023000D03*
X0033844Y0103000D03*
X0023844Y0103000D03*
D31*
X0061969Y0103000D02*
X0063219Y0101750D01*
X0063219Y0087793D01*
X0056969Y0084250D02*
X0074469Y0084250D01*
X0075719Y0085500D01*
X0093219Y0085500D01*
X0100974Y0077745D01*
X0101124Y0077745D01*
X0103351Y0075632D02*
X0108219Y0080500D01*
X0110719Y0083000D02*
X0105719Y0088000D01*
X0073219Y0088000D01*
X0071969Y0087793D01*
X0077594Y0090500D02*
X0079469Y0090500D01*
X0091969Y0103000D01*
X0101969Y0103000D02*
X0111969Y0093000D01*
X0111969Y0085500D01*
X0113219Y0084250D01*
X0115719Y0084250D01*
X0115719Y0080707D01*
X0115719Y0074523D01*
X0110032Y0068837D01*
X0107805Y0071064D02*
X0104469Y0067727D01*
X0103219Y0067727D01*
X0096969Y0074250D01*
X0096969Y0078000D01*
X0091762Y0083207D01*
X0076969Y0083000D01*
X0074675Y0080707D01*
X0071969Y0080707D01*
X0063219Y0080707D01*
X0063219Y0069250D01*
X0040719Y0046750D01*
X0040719Y0018000D01*
X0041969Y0016750D01*
X0041969Y0013000D01*
X0044469Y0020500D02*
X0051969Y0013000D01*
X0051969Y0023000D02*
X0061969Y0013000D01*
X0071969Y0013000D02*
X0071969Y0048625D01*
X0077188Y0053845D01*
X0077224Y0053845D01*
X0079451Y0051732D02*
X0088219Y0060500D01*
X0105719Y0060500D01*
X0104469Y0063000D02*
X0108219Y0063000D01*
X0110719Y0060500D01*
X0116713Y0062155D02*
X0135719Y0081160D01*
X0135719Y0099250D01*
X0131969Y0103000D01*
X0129469Y0095500D02*
X0121969Y0103000D01*
X0121969Y0093000D02*
X0111969Y0103000D01*
X0129469Y0095500D02*
X0133219Y0095500D01*
X0133219Y0083114D01*
X0114486Y0064382D01*
X0112259Y0066609D02*
X0124469Y0078819D01*
X0124469Y0080707D01*
X0127175Y0080707D01*
X0130719Y0084250D01*
X0130719Y0093000D01*
X0121969Y0093000D01*
X0124262Y0088000D02*
X0119469Y0088000D01*
X0115925Y0088000D01*
X0115719Y0087793D01*
X0124262Y0088000D02*
X0124469Y0087793D01*
X0139469Y0088000D02*
X0139469Y0080500D01*
X0116969Y0058000D01*
X0090287Y0058000D01*
X0081678Y0049391D01*
X0081678Y0049897D01*
X0081678Y0049391D02*
X0081678Y0049272D01*
X0076969Y0044562D01*
X0076969Y0021750D01*
X0083219Y0021750D01*
X0091969Y0013000D01*
X0101969Y0013000D02*
X0090719Y0024250D01*
X0079469Y0024250D01*
X0079469Y0042688D01*
X0083905Y0047124D01*
X0083905Y0047163D01*
X0086092Y0044936D02*
X0086132Y0044936D01*
X0096696Y0055500D01*
X0110719Y0055500D01*
X0116713Y0053845D02*
X0141969Y0079100D01*
X0141969Y0103000D01*
X0144469Y0095500D02*
X0151969Y0103000D01*
X0144469Y0095500D02*
X0144469Y0078000D01*
X0121969Y0055500D01*
X0121969Y0051750D01*
X0118219Y0048000D01*
X0118104Y0048000D01*
X0114486Y0051618D01*
X0112259Y0049391D02*
X0116150Y0045500D01*
X0116969Y0045500D01*
X0107805Y0044936D02*
X0105991Y0046750D01*
X0101969Y0046750D01*
X0100833Y0045500D01*
X0100833Y0043114D01*
X0100719Y0043000D01*
X0103351Y0040482D01*
X0106969Y0036750D01*
X0114469Y0036750D01*
X0149262Y0036750D01*
X0149262Y0041125D01*
X0149262Y0049250D01*
X0142175Y0049250D02*
X0138219Y0049250D01*
X0138219Y0050500D01*
X0138219Y0051750D01*
X0140719Y0054250D01*
X0154469Y0054250D01*
X0156969Y0051750D01*
X0170719Y0051750D01*
X0170719Y0057700D01*
X0165719Y0057700D02*
X0165719Y0065500D01*
X0156969Y0065500D01*
X0151969Y0070500D01*
X0148219Y0070500D01*
X0148219Y0088000D01*
X0155719Y0090500D02*
X0155719Y0085500D01*
X0155719Y0073000D01*
X0160719Y0073000D01*
X0160719Y0078300D01*
X0165719Y0078300D02*
X0165719Y0086400D01*
X0164069Y0088050D01*
X0161919Y0088050D01*
X0159469Y0088000D01*
X0155719Y0090500D02*
X0160669Y0095450D01*
X0164069Y0095450D01*
X0170719Y0088050D02*
X0170719Y0078300D01*
X0170719Y0070500D01*
X0180719Y0070500D01*
X0180719Y0053000D01*
X0191969Y0053000D01*
X0180719Y0053000D02*
X0180719Y0034250D01*
X0170719Y0034250D01*
X0165719Y0034250D01*
X0165719Y0044550D01*
X0170719Y0044550D02*
X0170719Y0039250D01*
X0174469Y0036750D02*
X0175719Y0038000D01*
X0175719Y0044550D01*
X0160719Y0044550D02*
X0160719Y0034250D01*
X0154469Y0040500D01*
X0149887Y0040500D01*
X0149262Y0041125D01*
X0142175Y0041125D02*
X0138844Y0041125D01*
X0138219Y0041750D01*
X0126969Y0041750D02*
X0113219Y0041750D01*
X0111969Y0040500D01*
X0107787Y0040500D01*
X0105578Y0042709D01*
X0106009Y0042709D01*
X0101124Y0038255D02*
X0098549Y0040830D01*
X0095719Y0036750D02*
X0093496Y0038938D01*
X0092813Y0038255D01*
X0094213Y0038255D01*
X0104469Y0028000D01*
X0126969Y0028000D01*
X0141969Y0013000D01*
X0151969Y0013000D02*
X0133219Y0031750D01*
X0107629Y0031750D01*
X0101124Y0038255D01*
X0090586Y0040368D02*
X0090586Y0040482D01*
X0101854Y0051750D01*
X0103219Y0053000D01*
X0099469Y0053000D02*
X0098650Y0053000D01*
X0088359Y0042709D01*
X0089178Y0042709D01*
X0088359Y0042709D02*
X0088359Y0042516D01*
X0084469Y0038625D01*
X0084469Y0029250D01*
X0095719Y0029250D01*
X0101969Y0023000D01*
X0111969Y0023000D01*
X0121969Y0013000D01*
X0131969Y0013000D02*
X0119469Y0025500D01*
X0103219Y0025500D01*
X0096969Y0031750D01*
X0086969Y0031750D01*
X0086969Y0036750D01*
X0090586Y0040368D01*
X0086092Y0044936D02*
X0081969Y0040813D01*
X0081969Y0026750D01*
X0094469Y0026750D01*
X0100719Y0020500D01*
X0104469Y0020500D01*
X0111969Y0013000D01*
X0081969Y0013000D02*
X0074469Y0020500D01*
X0074469Y0046750D01*
X0079336Y0051618D01*
X0079451Y0051618D01*
X0079451Y0051732D01*
X0080719Y0058000D02*
X0074469Y0058000D01*
X0067594Y0051125D01*
X0062387Y0053106D02*
X0062387Y0046750D01*
X0055300Y0046750D02*
X0055300Y0048832D01*
X0073219Y0066750D01*
X0077083Y0066750D01*
X0079451Y0064382D01*
X0081678Y0066609D02*
X0082109Y0066609D01*
X0085719Y0063000D01*
X0080719Y0058000D01*
X0077224Y0062155D02*
X0075129Y0064250D01*
X0073531Y0064250D01*
X0062387Y0053106D01*
X0045719Y0044250D02*
X0045719Y0023000D01*
X0051969Y0023000D01*
X0044469Y0020500D02*
X0043219Y0020500D01*
X0043219Y0045500D01*
X0078219Y0080500D01*
X0090058Y0080500D01*
X0092813Y0077745D01*
X0094469Y0076090D01*
X0094469Y0073000D01*
X0104469Y0063000D01*
X0088219Y0065500D02*
X0088219Y0068977D01*
X0086132Y0071064D01*
X0090586Y0075518D02*
X0090586Y0075632D01*
X0088219Y0078000D01*
X0079469Y0078000D01*
X0045719Y0044250D01*
X0051560Y0036750D02*
X0049050Y0034240D01*
X0049050Y0027375D01*
X0086132Y0044936D02*
X0086405Y0044936D01*
X0125719Y0055500D02*
X0131447Y0055500D01*
X0131447Y0059250D01*
X0134990Y0059250D02*
X0134990Y0061406D01*
X0140335Y0066750D01*
X0148602Y0066750D02*
X0149469Y0065500D01*
X0149469Y0059250D01*
X0149262Y0058000D01*
X0138219Y0050500D02*
X0134990Y0050500D01*
X0131447Y0050500D02*
X0128219Y0050500D01*
X0149262Y0036750D02*
X0149262Y0033000D01*
X0142175Y0033000D02*
X0135719Y0033000D01*
X0134469Y0034250D01*
X0142175Y0033000D02*
X0142175Y0029043D01*
X0147269Y0023950D01*
X0160719Y0023950D01*
X0165719Y0023950D02*
X0165719Y0016750D01*
X0170719Y0023950D02*
X0170719Y0034250D01*
X0165719Y0034250D02*
X0160719Y0034250D01*
X0088219Y0065500D02*
X0085719Y0063000D01*
X0105578Y0073291D02*
X0108219Y0075931D01*
X0108219Y0076750D01*
X0103351Y0075632D02*
X0103351Y0075518D01*
X0092813Y0077745D02*
X0092813Y0078405D01*
X0039781Y0057269D02*
X0039781Y0053937D01*
X0040719Y0053000D01*
X0014469Y0078000D02*
X0008219Y0078000D01*
X0170719Y0088050D02*
X0174869Y0088050D01*
D32*
X0067594Y0051125D03*
X0053219Y0065500D03*
X0114469Y0036750D03*
D33*
X0021461Y0033290D02*
X0017801Y0036950D01*
X0014487Y0036950D01*
D34*
X0023219Y0057269D02*
X0031656Y0057269D01*
X0039781Y0057269D01*
M02*
