G75*
%MOIN*%
%OFA0B0*%
%FSLAX25Y25*%
%IPPOS*%
%LPD*%
%AMOC8*
5,1,8,0,0,1.08239X$1,22.5*
%
%ADD10C,0.00000*%
%ADD11R,0.11811X0.04724*%
D10*
X0007281Y0007687D02*
X0193531Y0007687D01*
X0193531Y0007688D02*
X0193663Y0007712D01*
X0193793Y0007741D01*
X0193923Y0007773D01*
X0194052Y0007809D01*
X0194180Y0007849D01*
X0194306Y0007892D01*
X0194431Y0007939D01*
X0194555Y0007990D01*
X0194677Y0008044D01*
X0194798Y0008102D01*
X0194917Y0008164D01*
X0195034Y0008228D01*
X0195149Y0008296D01*
X0195262Y0008368D01*
X0195373Y0008443D01*
X0195482Y0008520D01*
X0195588Y0008601D01*
X0195692Y0008686D01*
X0195794Y0008773D01*
X0195893Y0008863D01*
X0195989Y0008955D01*
X0196082Y0009051D01*
X0196173Y0009149D01*
X0196261Y0009250D01*
X0196346Y0009353D01*
X0196428Y0009459D01*
X0196506Y0009567D01*
X0196582Y0009678D01*
X0196654Y0009790D01*
X0196723Y0009905D01*
X0196789Y0010021D01*
X0196851Y0010140D01*
X0196910Y0010260D01*
X0196965Y0010382D01*
X0197017Y0010505D01*
X0197065Y0010630D01*
X0197109Y0010756D01*
X0197150Y0010884D01*
X0197187Y0011012D01*
X0197220Y0011142D01*
X0197249Y0011272D01*
X0197275Y0011403D01*
X0197297Y0011535D01*
X0197315Y0011668D01*
X0197329Y0011801D01*
X0197339Y0011934D01*
X0197346Y0012068D01*
X0197348Y0012202D01*
X0197347Y0012335D01*
X0197341Y0012469D01*
X0197332Y0012602D01*
X0197319Y0012735D01*
X0197302Y0012868D01*
X0197281Y0013000D01*
X0197281Y0103000D01*
X0197275Y0103146D01*
X0197265Y0103291D01*
X0197251Y0103436D01*
X0197233Y0103581D01*
X0197212Y0103725D01*
X0197186Y0103868D01*
X0197157Y0104011D01*
X0197124Y0104153D01*
X0197087Y0104294D01*
X0197047Y0104434D01*
X0197003Y0104572D01*
X0196955Y0104710D01*
X0196903Y0104846D01*
X0196848Y0104981D01*
X0196790Y0105114D01*
X0196727Y0105246D01*
X0196662Y0105376D01*
X0196593Y0105504D01*
X0196520Y0105631D01*
X0196444Y0105755D01*
X0196365Y0105877D01*
X0196283Y0105997D01*
X0196197Y0106115D01*
X0196109Y0106231D01*
X0196017Y0106344D01*
X0195922Y0106455D01*
X0195825Y0106563D01*
X0195724Y0106668D01*
X0195621Y0106771D01*
X0195515Y0106871D01*
X0195407Y0106968D01*
X0195296Y0107063D01*
X0195182Y0107154D01*
X0195066Y0107242D01*
X0194948Y0107327D01*
X0194828Y0107409D01*
X0194705Y0107488D01*
X0194580Y0107563D01*
X0194454Y0107635D01*
X0194325Y0107704D01*
X0194195Y0107769D01*
X0194063Y0107830D01*
X0193929Y0107889D01*
X0193794Y0107943D01*
X0193658Y0107994D01*
X0193520Y0108041D01*
X0193381Y0108085D01*
X0193241Y0108125D01*
X0193100Y0108161D01*
X0192958Y0108194D01*
X0192815Y0108222D01*
X0192672Y0108247D01*
X0192528Y0108268D01*
X0192383Y0108285D01*
X0192238Y0108298D01*
X0192093Y0108308D01*
X0191947Y0108313D01*
X0191801Y0108315D01*
X0191656Y0108313D01*
X0191656Y0108312D02*
X0006656Y0108312D01*
X0006516Y0108310D01*
X0006376Y0108304D01*
X0006236Y0108294D01*
X0006096Y0108281D01*
X0005957Y0108263D01*
X0005818Y0108241D01*
X0005681Y0108216D01*
X0005543Y0108187D01*
X0005407Y0108154D01*
X0005272Y0108117D01*
X0005138Y0108076D01*
X0005005Y0108031D01*
X0004873Y0107983D01*
X0004743Y0107931D01*
X0004614Y0107876D01*
X0004487Y0107817D01*
X0004361Y0107754D01*
X0004237Y0107688D01*
X0004116Y0107619D01*
X0003996Y0107546D01*
X0003878Y0107469D01*
X0003763Y0107390D01*
X0003649Y0107307D01*
X0003539Y0107221D01*
X0003430Y0107132D01*
X0003324Y0107040D01*
X0003221Y0106945D01*
X0003120Y0106848D01*
X0003023Y0106747D01*
X0002928Y0106644D01*
X0002836Y0106538D01*
X0002747Y0106429D01*
X0002661Y0106319D01*
X0002578Y0106205D01*
X0002499Y0106090D01*
X0002422Y0105972D01*
X0002349Y0105852D01*
X0002280Y0105731D01*
X0002214Y0105607D01*
X0002151Y0105481D01*
X0002092Y0105354D01*
X0002037Y0105225D01*
X0001985Y0105095D01*
X0001937Y0104963D01*
X0001892Y0104830D01*
X0001851Y0104696D01*
X0001814Y0104561D01*
X0001781Y0104425D01*
X0001752Y0104287D01*
X0001727Y0104150D01*
X0001705Y0104011D01*
X0001687Y0103872D01*
X0001674Y0103732D01*
X0001664Y0103592D01*
X0001658Y0103452D01*
X0001656Y0103312D01*
X0001656Y0013312D01*
X0001658Y0013165D01*
X0001664Y0013018D01*
X0001673Y0012871D01*
X0001687Y0012724D01*
X0001704Y0012578D01*
X0001725Y0012432D01*
X0001750Y0012287D01*
X0001779Y0012142D01*
X0001811Y0011999D01*
X0001848Y0011856D01*
X0001888Y0011714D01*
X0001931Y0011574D01*
X0001979Y0011434D01*
X0002030Y0011296D01*
X0002084Y0011159D01*
X0002142Y0011024D01*
X0002204Y0010890D01*
X0002269Y0010758D01*
X0002338Y0010628D01*
X0002410Y0010499D01*
X0002485Y0010373D01*
X0002563Y0010248D01*
X0002645Y0010126D01*
X0002730Y0010006D01*
X0002818Y0009888D01*
X0002910Y0009772D01*
X0003004Y0009659D01*
X0003101Y0009548D01*
X0003201Y0009440D01*
X0003304Y0009335D01*
X0003409Y0009232D01*
X0003517Y0009132D01*
X0003628Y0009035D01*
X0003741Y0008941D01*
X0003857Y0008849D01*
X0003975Y0008761D01*
X0004095Y0008676D01*
X0004217Y0008594D01*
X0004342Y0008516D01*
X0004469Y0008441D01*
X0004597Y0008369D01*
X0004727Y0008300D01*
X0004859Y0008235D01*
X0004993Y0008173D01*
X0005128Y0008115D01*
X0005265Y0008061D01*
X0005403Y0008010D01*
X0005543Y0007962D01*
X0005683Y0007919D01*
X0005825Y0007879D01*
X0005968Y0007842D01*
X0006111Y0007810D01*
X0006256Y0007781D01*
X0006401Y0007756D01*
X0006547Y0007735D01*
X0006693Y0007718D01*
X0006840Y0007704D01*
X0006987Y0007695D01*
X0007134Y0007689D01*
X0007281Y0007687D01*
X0003957Y0015500D02*
X0003959Y0015648D01*
X0003965Y0015796D01*
X0003975Y0015944D01*
X0003989Y0016091D01*
X0004007Y0016238D01*
X0004028Y0016384D01*
X0004054Y0016530D01*
X0004084Y0016675D01*
X0004117Y0016819D01*
X0004155Y0016962D01*
X0004196Y0017104D01*
X0004241Y0017245D01*
X0004289Y0017385D01*
X0004342Y0017524D01*
X0004398Y0017661D01*
X0004458Y0017796D01*
X0004521Y0017930D01*
X0004588Y0018062D01*
X0004659Y0018192D01*
X0004733Y0018320D01*
X0004810Y0018446D01*
X0004891Y0018570D01*
X0004975Y0018692D01*
X0005062Y0018811D01*
X0005153Y0018928D01*
X0005247Y0019043D01*
X0005343Y0019155D01*
X0005443Y0019265D01*
X0005545Y0019371D01*
X0005651Y0019475D01*
X0005759Y0019576D01*
X0005870Y0019674D01*
X0005983Y0019770D01*
X0006099Y0019862D01*
X0006217Y0019951D01*
X0006338Y0020036D01*
X0006461Y0020119D01*
X0006586Y0020198D01*
X0006713Y0020274D01*
X0006842Y0020346D01*
X0006973Y0020415D01*
X0007106Y0020480D01*
X0007241Y0020541D01*
X0007377Y0020599D01*
X0007514Y0020654D01*
X0007653Y0020704D01*
X0007794Y0020751D01*
X0007935Y0020794D01*
X0008078Y0020834D01*
X0008222Y0020869D01*
X0008366Y0020901D01*
X0008512Y0020928D01*
X0008658Y0020952D01*
X0008805Y0020972D01*
X0008952Y0020988D01*
X0009099Y0021000D01*
X0009247Y0021008D01*
X0009395Y0021012D01*
X0009543Y0021012D01*
X0009691Y0021008D01*
X0009839Y0021000D01*
X0009986Y0020988D01*
X0010133Y0020972D01*
X0010280Y0020952D01*
X0010426Y0020928D01*
X0010572Y0020901D01*
X0010716Y0020869D01*
X0010860Y0020834D01*
X0011003Y0020794D01*
X0011144Y0020751D01*
X0011285Y0020704D01*
X0011424Y0020654D01*
X0011561Y0020599D01*
X0011697Y0020541D01*
X0011832Y0020480D01*
X0011965Y0020415D01*
X0012096Y0020346D01*
X0012225Y0020274D01*
X0012352Y0020198D01*
X0012477Y0020119D01*
X0012600Y0020036D01*
X0012721Y0019951D01*
X0012839Y0019862D01*
X0012955Y0019770D01*
X0013068Y0019674D01*
X0013179Y0019576D01*
X0013287Y0019475D01*
X0013393Y0019371D01*
X0013495Y0019265D01*
X0013595Y0019155D01*
X0013691Y0019043D01*
X0013785Y0018928D01*
X0013876Y0018811D01*
X0013963Y0018692D01*
X0014047Y0018570D01*
X0014128Y0018446D01*
X0014205Y0018320D01*
X0014279Y0018192D01*
X0014350Y0018062D01*
X0014417Y0017930D01*
X0014480Y0017796D01*
X0014540Y0017661D01*
X0014596Y0017524D01*
X0014649Y0017385D01*
X0014697Y0017245D01*
X0014742Y0017104D01*
X0014783Y0016962D01*
X0014821Y0016819D01*
X0014854Y0016675D01*
X0014884Y0016530D01*
X0014910Y0016384D01*
X0014931Y0016238D01*
X0014949Y0016091D01*
X0014963Y0015944D01*
X0014973Y0015796D01*
X0014979Y0015648D01*
X0014981Y0015500D01*
X0014979Y0015352D01*
X0014973Y0015204D01*
X0014963Y0015056D01*
X0014949Y0014909D01*
X0014931Y0014762D01*
X0014910Y0014616D01*
X0014884Y0014470D01*
X0014854Y0014325D01*
X0014821Y0014181D01*
X0014783Y0014038D01*
X0014742Y0013896D01*
X0014697Y0013755D01*
X0014649Y0013615D01*
X0014596Y0013476D01*
X0014540Y0013339D01*
X0014480Y0013204D01*
X0014417Y0013070D01*
X0014350Y0012938D01*
X0014279Y0012808D01*
X0014205Y0012680D01*
X0014128Y0012554D01*
X0014047Y0012430D01*
X0013963Y0012308D01*
X0013876Y0012189D01*
X0013785Y0012072D01*
X0013691Y0011957D01*
X0013595Y0011845D01*
X0013495Y0011735D01*
X0013393Y0011629D01*
X0013287Y0011525D01*
X0013179Y0011424D01*
X0013068Y0011326D01*
X0012955Y0011230D01*
X0012839Y0011138D01*
X0012721Y0011049D01*
X0012600Y0010964D01*
X0012477Y0010881D01*
X0012352Y0010802D01*
X0012225Y0010726D01*
X0012096Y0010654D01*
X0011965Y0010585D01*
X0011832Y0010520D01*
X0011697Y0010459D01*
X0011561Y0010401D01*
X0011424Y0010346D01*
X0011285Y0010296D01*
X0011144Y0010249D01*
X0011003Y0010206D01*
X0010860Y0010166D01*
X0010716Y0010131D01*
X0010572Y0010099D01*
X0010426Y0010072D01*
X0010280Y0010048D01*
X0010133Y0010028D01*
X0009986Y0010012D01*
X0009839Y0010000D01*
X0009691Y0009992D01*
X0009543Y0009988D01*
X0009395Y0009988D01*
X0009247Y0009992D01*
X0009099Y0010000D01*
X0008952Y0010012D01*
X0008805Y0010028D01*
X0008658Y0010048D01*
X0008512Y0010072D01*
X0008366Y0010099D01*
X0008222Y0010131D01*
X0008078Y0010166D01*
X0007935Y0010206D01*
X0007794Y0010249D01*
X0007653Y0010296D01*
X0007514Y0010346D01*
X0007377Y0010401D01*
X0007241Y0010459D01*
X0007106Y0010520D01*
X0006973Y0010585D01*
X0006842Y0010654D01*
X0006713Y0010726D01*
X0006586Y0010802D01*
X0006461Y0010881D01*
X0006338Y0010964D01*
X0006217Y0011049D01*
X0006099Y0011138D01*
X0005983Y0011230D01*
X0005870Y0011326D01*
X0005759Y0011424D01*
X0005651Y0011525D01*
X0005545Y0011629D01*
X0005443Y0011735D01*
X0005343Y0011845D01*
X0005247Y0011957D01*
X0005153Y0012072D01*
X0005062Y0012189D01*
X0004975Y0012308D01*
X0004891Y0012430D01*
X0004810Y0012554D01*
X0004733Y0012680D01*
X0004659Y0012808D01*
X0004588Y0012938D01*
X0004521Y0013070D01*
X0004458Y0013204D01*
X0004398Y0013339D01*
X0004342Y0013476D01*
X0004289Y0013615D01*
X0004241Y0013755D01*
X0004196Y0013896D01*
X0004155Y0014038D01*
X0004117Y0014181D01*
X0004084Y0014325D01*
X0004054Y0014470D01*
X0004028Y0014616D01*
X0004007Y0014762D01*
X0003989Y0014909D01*
X0003975Y0015056D01*
X0003965Y0015204D01*
X0003959Y0015352D01*
X0003957Y0015500D01*
X0183957Y0015500D02*
X0183959Y0015648D01*
X0183965Y0015796D01*
X0183975Y0015944D01*
X0183989Y0016091D01*
X0184007Y0016238D01*
X0184028Y0016384D01*
X0184054Y0016530D01*
X0184084Y0016675D01*
X0184117Y0016819D01*
X0184155Y0016962D01*
X0184196Y0017104D01*
X0184241Y0017245D01*
X0184289Y0017385D01*
X0184342Y0017524D01*
X0184398Y0017661D01*
X0184458Y0017796D01*
X0184521Y0017930D01*
X0184588Y0018062D01*
X0184659Y0018192D01*
X0184733Y0018320D01*
X0184810Y0018446D01*
X0184891Y0018570D01*
X0184975Y0018692D01*
X0185062Y0018811D01*
X0185153Y0018928D01*
X0185247Y0019043D01*
X0185343Y0019155D01*
X0185443Y0019265D01*
X0185545Y0019371D01*
X0185651Y0019475D01*
X0185759Y0019576D01*
X0185870Y0019674D01*
X0185983Y0019770D01*
X0186099Y0019862D01*
X0186217Y0019951D01*
X0186338Y0020036D01*
X0186461Y0020119D01*
X0186586Y0020198D01*
X0186713Y0020274D01*
X0186842Y0020346D01*
X0186973Y0020415D01*
X0187106Y0020480D01*
X0187241Y0020541D01*
X0187377Y0020599D01*
X0187514Y0020654D01*
X0187653Y0020704D01*
X0187794Y0020751D01*
X0187935Y0020794D01*
X0188078Y0020834D01*
X0188222Y0020869D01*
X0188366Y0020901D01*
X0188512Y0020928D01*
X0188658Y0020952D01*
X0188805Y0020972D01*
X0188952Y0020988D01*
X0189099Y0021000D01*
X0189247Y0021008D01*
X0189395Y0021012D01*
X0189543Y0021012D01*
X0189691Y0021008D01*
X0189839Y0021000D01*
X0189986Y0020988D01*
X0190133Y0020972D01*
X0190280Y0020952D01*
X0190426Y0020928D01*
X0190572Y0020901D01*
X0190716Y0020869D01*
X0190860Y0020834D01*
X0191003Y0020794D01*
X0191144Y0020751D01*
X0191285Y0020704D01*
X0191424Y0020654D01*
X0191561Y0020599D01*
X0191697Y0020541D01*
X0191832Y0020480D01*
X0191965Y0020415D01*
X0192096Y0020346D01*
X0192225Y0020274D01*
X0192352Y0020198D01*
X0192477Y0020119D01*
X0192600Y0020036D01*
X0192721Y0019951D01*
X0192839Y0019862D01*
X0192955Y0019770D01*
X0193068Y0019674D01*
X0193179Y0019576D01*
X0193287Y0019475D01*
X0193393Y0019371D01*
X0193495Y0019265D01*
X0193595Y0019155D01*
X0193691Y0019043D01*
X0193785Y0018928D01*
X0193876Y0018811D01*
X0193963Y0018692D01*
X0194047Y0018570D01*
X0194128Y0018446D01*
X0194205Y0018320D01*
X0194279Y0018192D01*
X0194350Y0018062D01*
X0194417Y0017930D01*
X0194480Y0017796D01*
X0194540Y0017661D01*
X0194596Y0017524D01*
X0194649Y0017385D01*
X0194697Y0017245D01*
X0194742Y0017104D01*
X0194783Y0016962D01*
X0194821Y0016819D01*
X0194854Y0016675D01*
X0194884Y0016530D01*
X0194910Y0016384D01*
X0194931Y0016238D01*
X0194949Y0016091D01*
X0194963Y0015944D01*
X0194973Y0015796D01*
X0194979Y0015648D01*
X0194981Y0015500D01*
X0194979Y0015352D01*
X0194973Y0015204D01*
X0194963Y0015056D01*
X0194949Y0014909D01*
X0194931Y0014762D01*
X0194910Y0014616D01*
X0194884Y0014470D01*
X0194854Y0014325D01*
X0194821Y0014181D01*
X0194783Y0014038D01*
X0194742Y0013896D01*
X0194697Y0013755D01*
X0194649Y0013615D01*
X0194596Y0013476D01*
X0194540Y0013339D01*
X0194480Y0013204D01*
X0194417Y0013070D01*
X0194350Y0012938D01*
X0194279Y0012808D01*
X0194205Y0012680D01*
X0194128Y0012554D01*
X0194047Y0012430D01*
X0193963Y0012308D01*
X0193876Y0012189D01*
X0193785Y0012072D01*
X0193691Y0011957D01*
X0193595Y0011845D01*
X0193495Y0011735D01*
X0193393Y0011629D01*
X0193287Y0011525D01*
X0193179Y0011424D01*
X0193068Y0011326D01*
X0192955Y0011230D01*
X0192839Y0011138D01*
X0192721Y0011049D01*
X0192600Y0010964D01*
X0192477Y0010881D01*
X0192352Y0010802D01*
X0192225Y0010726D01*
X0192096Y0010654D01*
X0191965Y0010585D01*
X0191832Y0010520D01*
X0191697Y0010459D01*
X0191561Y0010401D01*
X0191424Y0010346D01*
X0191285Y0010296D01*
X0191144Y0010249D01*
X0191003Y0010206D01*
X0190860Y0010166D01*
X0190716Y0010131D01*
X0190572Y0010099D01*
X0190426Y0010072D01*
X0190280Y0010048D01*
X0190133Y0010028D01*
X0189986Y0010012D01*
X0189839Y0010000D01*
X0189691Y0009992D01*
X0189543Y0009988D01*
X0189395Y0009988D01*
X0189247Y0009992D01*
X0189099Y0010000D01*
X0188952Y0010012D01*
X0188805Y0010028D01*
X0188658Y0010048D01*
X0188512Y0010072D01*
X0188366Y0010099D01*
X0188222Y0010131D01*
X0188078Y0010166D01*
X0187935Y0010206D01*
X0187794Y0010249D01*
X0187653Y0010296D01*
X0187514Y0010346D01*
X0187377Y0010401D01*
X0187241Y0010459D01*
X0187106Y0010520D01*
X0186973Y0010585D01*
X0186842Y0010654D01*
X0186713Y0010726D01*
X0186586Y0010802D01*
X0186461Y0010881D01*
X0186338Y0010964D01*
X0186217Y0011049D01*
X0186099Y0011138D01*
X0185983Y0011230D01*
X0185870Y0011326D01*
X0185759Y0011424D01*
X0185651Y0011525D01*
X0185545Y0011629D01*
X0185443Y0011735D01*
X0185343Y0011845D01*
X0185247Y0011957D01*
X0185153Y0012072D01*
X0185062Y0012189D01*
X0184975Y0012308D01*
X0184891Y0012430D01*
X0184810Y0012554D01*
X0184733Y0012680D01*
X0184659Y0012808D01*
X0184588Y0012938D01*
X0184521Y0013070D01*
X0184458Y0013204D01*
X0184398Y0013339D01*
X0184342Y0013476D01*
X0184289Y0013615D01*
X0184241Y0013755D01*
X0184196Y0013896D01*
X0184155Y0014038D01*
X0184117Y0014181D01*
X0184084Y0014325D01*
X0184054Y0014470D01*
X0184028Y0014616D01*
X0184007Y0014762D01*
X0183989Y0014909D01*
X0183975Y0015056D01*
X0183965Y0015204D01*
X0183959Y0015352D01*
X0183957Y0015500D01*
X0183957Y0100500D02*
X0183959Y0100648D01*
X0183965Y0100796D01*
X0183975Y0100944D01*
X0183989Y0101091D01*
X0184007Y0101238D01*
X0184028Y0101384D01*
X0184054Y0101530D01*
X0184084Y0101675D01*
X0184117Y0101819D01*
X0184155Y0101962D01*
X0184196Y0102104D01*
X0184241Y0102245D01*
X0184289Y0102385D01*
X0184342Y0102524D01*
X0184398Y0102661D01*
X0184458Y0102796D01*
X0184521Y0102930D01*
X0184588Y0103062D01*
X0184659Y0103192D01*
X0184733Y0103320D01*
X0184810Y0103446D01*
X0184891Y0103570D01*
X0184975Y0103692D01*
X0185062Y0103811D01*
X0185153Y0103928D01*
X0185247Y0104043D01*
X0185343Y0104155D01*
X0185443Y0104265D01*
X0185545Y0104371D01*
X0185651Y0104475D01*
X0185759Y0104576D01*
X0185870Y0104674D01*
X0185983Y0104770D01*
X0186099Y0104862D01*
X0186217Y0104951D01*
X0186338Y0105036D01*
X0186461Y0105119D01*
X0186586Y0105198D01*
X0186713Y0105274D01*
X0186842Y0105346D01*
X0186973Y0105415D01*
X0187106Y0105480D01*
X0187241Y0105541D01*
X0187377Y0105599D01*
X0187514Y0105654D01*
X0187653Y0105704D01*
X0187794Y0105751D01*
X0187935Y0105794D01*
X0188078Y0105834D01*
X0188222Y0105869D01*
X0188366Y0105901D01*
X0188512Y0105928D01*
X0188658Y0105952D01*
X0188805Y0105972D01*
X0188952Y0105988D01*
X0189099Y0106000D01*
X0189247Y0106008D01*
X0189395Y0106012D01*
X0189543Y0106012D01*
X0189691Y0106008D01*
X0189839Y0106000D01*
X0189986Y0105988D01*
X0190133Y0105972D01*
X0190280Y0105952D01*
X0190426Y0105928D01*
X0190572Y0105901D01*
X0190716Y0105869D01*
X0190860Y0105834D01*
X0191003Y0105794D01*
X0191144Y0105751D01*
X0191285Y0105704D01*
X0191424Y0105654D01*
X0191561Y0105599D01*
X0191697Y0105541D01*
X0191832Y0105480D01*
X0191965Y0105415D01*
X0192096Y0105346D01*
X0192225Y0105274D01*
X0192352Y0105198D01*
X0192477Y0105119D01*
X0192600Y0105036D01*
X0192721Y0104951D01*
X0192839Y0104862D01*
X0192955Y0104770D01*
X0193068Y0104674D01*
X0193179Y0104576D01*
X0193287Y0104475D01*
X0193393Y0104371D01*
X0193495Y0104265D01*
X0193595Y0104155D01*
X0193691Y0104043D01*
X0193785Y0103928D01*
X0193876Y0103811D01*
X0193963Y0103692D01*
X0194047Y0103570D01*
X0194128Y0103446D01*
X0194205Y0103320D01*
X0194279Y0103192D01*
X0194350Y0103062D01*
X0194417Y0102930D01*
X0194480Y0102796D01*
X0194540Y0102661D01*
X0194596Y0102524D01*
X0194649Y0102385D01*
X0194697Y0102245D01*
X0194742Y0102104D01*
X0194783Y0101962D01*
X0194821Y0101819D01*
X0194854Y0101675D01*
X0194884Y0101530D01*
X0194910Y0101384D01*
X0194931Y0101238D01*
X0194949Y0101091D01*
X0194963Y0100944D01*
X0194973Y0100796D01*
X0194979Y0100648D01*
X0194981Y0100500D01*
X0194979Y0100352D01*
X0194973Y0100204D01*
X0194963Y0100056D01*
X0194949Y0099909D01*
X0194931Y0099762D01*
X0194910Y0099616D01*
X0194884Y0099470D01*
X0194854Y0099325D01*
X0194821Y0099181D01*
X0194783Y0099038D01*
X0194742Y0098896D01*
X0194697Y0098755D01*
X0194649Y0098615D01*
X0194596Y0098476D01*
X0194540Y0098339D01*
X0194480Y0098204D01*
X0194417Y0098070D01*
X0194350Y0097938D01*
X0194279Y0097808D01*
X0194205Y0097680D01*
X0194128Y0097554D01*
X0194047Y0097430D01*
X0193963Y0097308D01*
X0193876Y0097189D01*
X0193785Y0097072D01*
X0193691Y0096957D01*
X0193595Y0096845D01*
X0193495Y0096735D01*
X0193393Y0096629D01*
X0193287Y0096525D01*
X0193179Y0096424D01*
X0193068Y0096326D01*
X0192955Y0096230D01*
X0192839Y0096138D01*
X0192721Y0096049D01*
X0192600Y0095964D01*
X0192477Y0095881D01*
X0192352Y0095802D01*
X0192225Y0095726D01*
X0192096Y0095654D01*
X0191965Y0095585D01*
X0191832Y0095520D01*
X0191697Y0095459D01*
X0191561Y0095401D01*
X0191424Y0095346D01*
X0191285Y0095296D01*
X0191144Y0095249D01*
X0191003Y0095206D01*
X0190860Y0095166D01*
X0190716Y0095131D01*
X0190572Y0095099D01*
X0190426Y0095072D01*
X0190280Y0095048D01*
X0190133Y0095028D01*
X0189986Y0095012D01*
X0189839Y0095000D01*
X0189691Y0094992D01*
X0189543Y0094988D01*
X0189395Y0094988D01*
X0189247Y0094992D01*
X0189099Y0095000D01*
X0188952Y0095012D01*
X0188805Y0095028D01*
X0188658Y0095048D01*
X0188512Y0095072D01*
X0188366Y0095099D01*
X0188222Y0095131D01*
X0188078Y0095166D01*
X0187935Y0095206D01*
X0187794Y0095249D01*
X0187653Y0095296D01*
X0187514Y0095346D01*
X0187377Y0095401D01*
X0187241Y0095459D01*
X0187106Y0095520D01*
X0186973Y0095585D01*
X0186842Y0095654D01*
X0186713Y0095726D01*
X0186586Y0095802D01*
X0186461Y0095881D01*
X0186338Y0095964D01*
X0186217Y0096049D01*
X0186099Y0096138D01*
X0185983Y0096230D01*
X0185870Y0096326D01*
X0185759Y0096424D01*
X0185651Y0096525D01*
X0185545Y0096629D01*
X0185443Y0096735D01*
X0185343Y0096845D01*
X0185247Y0096957D01*
X0185153Y0097072D01*
X0185062Y0097189D01*
X0184975Y0097308D01*
X0184891Y0097430D01*
X0184810Y0097554D01*
X0184733Y0097680D01*
X0184659Y0097808D01*
X0184588Y0097938D01*
X0184521Y0098070D01*
X0184458Y0098204D01*
X0184398Y0098339D01*
X0184342Y0098476D01*
X0184289Y0098615D01*
X0184241Y0098755D01*
X0184196Y0098896D01*
X0184155Y0099038D01*
X0184117Y0099181D01*
X0184084Y0099325D01*
X0184054Y0099470D01*
X0184028Y0099616D01*
X0184007Y0099762D01*
X0183989Y0099909D01*
X0183975Y0100056D01*
X0183965Y0100204D01*
X0183959Y0100352D01*
X0183957Y0100500D01*
X0003957Y0100500D02*
X0003959Y0100648D01*
X0003965Y0100796D01*
X0003975Y0100944D01*
X0003989Y0101091D01*
X0004007Y0101238D01*
X0004028Y0101384D01*
X0004054Y0101530D01*
X0004084Y0101675D01*
X0004117Y0101819D01*
X0004155Y0101962D01*
X0004196Y0102104D01*
X0004241Y0102245D01*
X0004289Y0102385D01*
X0004342Y0102524D01*
X0004398Y0102661D01*
X0004458Y0102796D01*
X0004521Y0102930D01*
X0004588Y0103062D01*
X0004659Y0103192D01*
X0004733Y0103320D01*
X0004810Y0103446D01*
X0004891Y0103570D01*
X0004975Y0103692D01*
X0005062Y0103811D01*
X0005153Y0103928D01*
X0005247Y0104043D01*
X0005343Y0104155D01*
X0005443Y0104265D01*
X0005545Y0104371D01*
X0005651Y0104475D01*
X0005759Y0104576D01*
X0005870Y0104674D01*
X0005983Y0104770D01*
X0006099Y0104862D01*
X0006217Y0104951D01*
X0006338Y0105036D01*
X0006461Y0105119D01*
X0006586Y0105198D01*
X0006713Y0105274D01*
X0006842Y0105346D01*
X0006973Y0105415D01*
X0007106Y0105480D01*
X0007241Y0105541D01*
X0007377Y0105599D01*
X0007514Y0105654D01*
X0007653Y0105704D01*
X0007794Y0105751D01*
X0007935Y0105794D01*
X0008078Y0105834D01*
X0008222Y0105869D01*
X0008366Y0105901D01*
X0008512Y0105928D01*
X0008658Y0105952D01*
X0008805Y0105972D01*
X0008952Y0105988D01*
X0009099Y0106000D01*
X0009247Y0106008D01*
X0009395Y0106012D01*
X0009543Y0106012D01*
X0009691Y0106008D01*
X0009839Y0106000D01*
X0009986Y0105988D01*
X0010133Y0105972D01*
X0010280Y0105952D01*
X0010426Y0105928D01*
X0010572Y0105901D01*
X0010716Y0105869D01*
X0010860Y0105834D01*
X0011003Y0105794D01*
X0011144Y0105751D01*
X0011285Y0105704D01*
X0011424Y0105654D01*
X0011561Y0105599D01*
X0011697Y0105541D01*
X0011832Y0105480D01*
X0011965Y0105415D01*
X0012096Y0105346D01*
X0012225Y0105274D01*
X0012352Y0105198D01*
X0012477Y0105119D01*
X0012600Y0105036D01*
X0012721Y0104951D01*
X0012839Y0104862D01*
X0012955Y0104770D01*
X0013068Y0104674D01*
X0013179Y0104576D01*
X0013287Y0104475D01*
X0013393Y0104371D01*
X0013495Y0104265D01*
X0013595Y0104155D01*
X0013691Y0104043D01*
X0013785Y0103928D01*
X0013876Y0103811D01*
X0013963Y0103692D01*
X0014047Y0103570D01*
X0014128Y0103446D01*
X0014205Y0103320D01*
X0014279Y0103192D01*
X0014350Y0103062D01*
X0014417Y0102930D01*
X0014480Y0102796D01*
X0014540Y0102661D01*
X0014596Y0102524D01*
X0014649Y0102385D01*
X0014697Y0102245D01*
X0014742Y0102104D01*
X0014783Y0101962D01*
X0014821Y0101819D01*
X0014854Y0101675D01*
X0014884Y0101530D01*
X0014910Y0101384D01*
X0014931Y0101238D01*
X0014949Y0101091D01*
X0014963Y0100944D01*
X0014973Y0100796D01*
X0014979Y0100648D01*
X0014981Y0100500D01*
X0014979Y0100352D01*
X0014973Y0100204D01*
X0014963Y0100056D01*
X0014949Y0099909D01*
X0014931Y0099762D01*
X0014910Y0099616D01*
X0014884Y0099470D01*
X0014854Y0099325D01*
X0014821Y0099181D01*
X0014783Y0099038D01*
X0014742Y0098896D01*
X0014697Y0098755D01*
X0014649Y0098615D01*
X0014596Y0098476D01*
X0014540Y0098339D01*
X0014480Y0098204D01*
X0014417Y0098070D01*
X0014350Y0097938D01*
X0014279Y0097808D01*
X0014205Y0097680D01*
X0014128Y0097554D01*
X0014047Y0097430D01*
X0013963Y0097308D01*
X0013876Y0097189D01*
X0013785Y0097072D01*
X0013691Y0096957D01*
X0013595Y0096845D01*
X0013495Y0096735D01*
X0013393Y0096629D01*
X0013287Y0096525D01*
X0013179Y0096424D01*
X0013068Y0096326D01*
X0012955Y0096230D01*
X0012839Y0096138D01*
X0012721Y0096049D01*
X0012600Y0095964D01*
X0012477Y0095881D01*
X0012352Y0095802D01*
X0012225Y0095726D01*
X0012096Y0095654D01*
X0011965Y0095585D01*
X0011832Y0095520D01*
X0011697Y0095459D01*
X0011561Y0095401D01*
X0011424Y0095346D01*
X0011285Y0095296D01*
X0011144Y0095249D01*
X0011003Y0095206D01*
X0010860Y0095166D01*
X0010716Y0095131D01*
X0010572Y0095099D01*
X0010426Y0095072D01*
X0010280Y0095048D01*
X0010133Y0095028D01*
X0009986Y0095012D01*
X0009839Y0095000D01*
X0009691Y0094992D01*
X0009543Y0094988D01*
X0009395Y0094988D01*
X0009247Y0094992D01*
X0009099Y0095000D01*
X0008952Y0095012D01*
X0008805Y0095028D01*
X0008658Y0095048D01*
X0008512Y0095072D01*
X0008366Y0095099D01*
X0008222Y0095131D01*
X0008078Y0095166D01*
X0007935Y0095206D01*
X0007794Y0095249D01*
X0007653Y0095296D01*
X0007514Y0095346D01*
X0007377Y0095401D01*
X0007241Y0095459D01*
X0007106Y0095520D01*
X0006973Y0095585D01*
X0006842Y0095654D01*
X0006713Y0095726D01*
X0006586Y0095802D01*
X0006461Y0095881D01*
X0006338Y0095964D01*
X0006217Y0096049D01*
X0006099Y0096138D01*
X0005983Y0096230D01*
X0005870Y0096326D01*
X0005759Y0096424D01*
X0005651Y0096525D01*
X0005545Y0096629D01*
X0005443Y0096735D01*
X0005343Y0096845D01*
X0005247Y0096957D01*
X0005153Y0097072D01*
X0005062Y0097189D01*
X0004975Y0097308D01*
X0004891Y0097430D01*
X0004810Y0097554D01*
X0004733Y0097680D01*
X0004659Y0097808D01*
X0004588Y0097938D01*
X0004521Y0098070D01*
X0004458Y0098204D01*
X0004398Y0098339D01*
X0004342Y0098476D01*
X0004289Y0098615D01*
X0004241Y0098755D01*
X0004196Y0098896D01*
X0004155Y0099038D01*
X0004117Y0099181D01*
X0004084Y0099325D01*
X0004054Y0099470D01*
X0004028Y0099616D01*
X0004007Y0099762D01*
X0003989Y0099909D01*
X0003975Y0100056D01*
X0003965Y0100204D01*
X0003959Y0100352D01*
X0003957Y0100500D01*
D11*
X0032441Y0085559D03*
X0032441Y0077685D03*
X0032441Y0069811D03*
X0032441Y0061937D03*
X0032441Y0038315D03*
X0032441Y0030441D03*
X0091496Y0030441D03*
X0091496Y0046189D03*
X0091496Y0054063D03*
X0091496Y0061937D03*
X0091496Y0069811D03*
X0091496Y0077685D03*
X0091496Y0085559D03*
M02*
