%
M48
M72
T01C0.01181
T02C0.01969
T03C0.03500
T04C0.04000
T05C0.11024
%
T01
X23844Y13000
X33844Y13000
X33844Y25500
X59156Y33625
X59156Y41125
X66969Y45500
X49469Y44250
X33844Y44250
X23844Y44250
X23844Y51750
X33844Y51750
X40719Y53000
X13844Y51750
X47594Y68000
X70094Y76750
X56969Y84250
X56969Y89250
X67594Y90500
X77594Y90500
X101656Y83625
X108219Y80500
X110719Y83000
X119469Y88000
X139469Y88000
X148219Y88000
X151656Y86437
X155719Y85500
X159469Y88000
X180719Y91750
X180719Y78000
X151969Y74250
X144469Y74250
X154469Y60500
X154469Y49250
X154469Y44250
X138219Y41750
X126969Y41750
X123844Y46437
X116969Y45500
X128219Y50500
X125719Y55500
X110719Y55500
X108219Y53000
X103219Y53000
X99469Y53000
X105719Y60500
X110719Y60500
X106656Y66125
X111344Y74250
X108219Y76750
X74781Y69563
X45719Y89250
X23844Y91750
X23844Y103000
X33844Y103000
X14469Y78000
X8219Y78000
X23844Y70500
X98549Y40830
X95719Y36750
X124469Y34250
X134469Y34250
X154469Y35500
X154469Y29250
X170719Y39250
X174469Y36750
X180719Y24250
X165719Y16750
X115719Y23000
T02
X114469Y36750
X67594Y51125
X53219Y65500
T03
X51969Y103000
X41969Y103000
X61969Y103000
X71969Y103000
X81969Y103000
X91969Y103000
X101969Y103000
X111969Y103000
X121969Y103000
X131969Y103000
X141969Y103000
X151969Y103000
X191969Y83000
X191969Y73000
X191969Y63000
X191969Y53000
X191969Y43000
X191969Y33000
X151969Y13000
X141969Y13000
X131969Y13000
X121969Y13000
X111969Y13000
X101969Y13000
X91969Y13000
X81969Y13000
X71969Y13000
X61969Y13000
X51969Y13000
X41969Y13000
T04
X21461Y33290
T05
X9469Y15500
X189469Y15500
X189469Y100500
X9469Y100500
M30
