G75*
%MOIN*%
%OFA0B0*%
%FSLAX25Y25*%
%IPPOS*%
%LPD*%
%AMOC8*
5,1,8,0,0,1.08239X$1,22.5*
%
%ADD10C,0.07400*%
%ADD11R,0.11811X0.04724*%
%ADD12R,0.02500X0.05000*%
%ADD13R,0.06500X0.06500*%
%ADD14C,0.06500*%
%ADD15C,0.01000*%
%ADD16C,0.02381*%
%ADD17C,0.03169*%
%ADD18C,0.02400*%
%ADD19C,0.01200*%
%ADD20C,0.04000*%
D10*
X0021461Y0033290D03*
D11*
X0032441Y0030441D03*
X0032441Y0038315D03*
X0032441Y0061937D03*
X0032441Y0069811D03*
X0032441Y0077685D03*
X0032441Y0085559D03*
X0091496Y0085559D03*
X0091496Y0077685D03*
X0091496Y0069811D03*
X0091496Y0061937D03*
X0091496Y0054063D03*
X0091496Y0046189D03*
X0091496Y0030441D03*
D12*
X0101447Y0046125D03*
X0104990Y0046125D03*
X0022490Y0077688D03*
X0018947Y0077688D03*
X0018947Y0085500D03*
X0022490Y0085500D03*
D13*
X0151969Y0103000D03*
X0191969Y0033000D03*
X0151969Y0013000D03*
D14*
X0141969Y0013000D03*
X0131969Y0013000D03*
X0121969Y0013000D03*
X0111969Y0013000D03*
X0101969Y0013000D03*
X0091969Y0013000D03*
X0081969Y0013000D03*
X0071969Y0013000D03*
X0061969Y0013000D03*
X0051969Y0013000D03*
X0041969Y0013000D03*
X0191969Y0043000D03*
X0191969Y0053000D03*
X0191969Y0063000D03*
X0191969Y0073000D03*
X0191969Y0083000D03*
X0141969Y0103000D03*
X0131969Y0103000D03*
X0121969Y0103000D03*
X0111969Y0103000D03*
X0101969Y0103000D03*
X0091969Y0103000D03*
X0081969Y0103000D03*
X0071969Y0103000D03*
X0061969Y0103000D03*
X0051969Y0103000D03*
X0041969Y0103000D03*
D15*
X0004600Y0009301D02*
X0006340Y0008580D01*
X0007281Y0008487D01*
X0193437Y0008487D01*
X0194113Y0008674D01*
X0195366Y0009465D01*
X0196220Y0010676D01*
X0196547Y0012121D01*
X0196509Y0012641D01*
X0196481Y0012669D01*
X0196481Y0012932D01*
X0196436Y0013191D01*
X0196481Y0013254D01*
X0196481Y0028937D01*
X0196419Y0028829D01*
X0196140Y0028550D01*
X0195797Y0028352D01*
X0195416Y0028250D01*
X0192344Y0028250D01*
X0192344Y0032625D01*
X0191593Y0032625D01*
X0187219Y0032625D01*
X0187219Y0029553D01*
X0187321Y0029171D01*
X0187518Y0028829D01*
X0187797Y0028550D01*
X0188140Y0028352D01*
X0188521Y0028250D01*
X0191593Y0028250D01*
X0191593Y0032625D01*
X0191593Y0033375D01*
X0187219Y0033375D01*
X0187219Y0036447D01*
X0187321Y0036829D01*
X0187518Y0037171D01*
X0187797Y0037450D01*
X0188140Y0037648D01*
X0188521Y0037750D01*
X0191593Y0037750D01*
X0191593Y0033375D01*
X0192344Y0033375D01*
X0192344Y0037750D01*
X0195416Y0037750D01*
X0195797Y0037648D01*
X0196140Y0037450D01*
X0196419Y0037171D01*
X0196481Y0037063D01*
X0196481Y0102980D01*
X0196366Y0103885D01*
X0195620Y0105549D01*
X0194295Y0106800D01*
X0192592Y0107449D01*
X0191684Y0107512D01*
X0191667Y0107512D01*
X0191348Y0107503D01*
X0191338Y0107512D01*
X0043452Y0107512D01*
X0043792Y0107402D01*
X0044458Y0107063D01*
X0045063Y0106623D01*
X0045592Y0106094D01*
X0046031Y0105490D01*
X0046370Y0104823D01*
X0046602Y0104112D01*
X0046718Y0103375D01*
X0042344Y0103375D01*
X0042344Y0102625D01*
X0046718Y0102625D01*
X0046602Y0101888D01*
X0046370Y0101177D01*
X0046031Y0100510D01*
X0045592Y0099906D01*
X0045063Y0099377D01*
X0044458Y0098937D01*
X0043792Y0098598D01*
X0043081Y0098367D01*
X0042344Y0098250D01*
X0042344Y0102625D01*
X0041593Y0102625D01*
X0037219Y0102625D01*
X0037335Y0101888D01*
X0037567Y0101177D01*
X0037906Y0100510D01*
X0038345Y0099906D01*
X0038874Y0099377D01*
X0039479Y0098937D01*
X0040145Y0098598D01*
X0040856Y0098367D01*
X0041593Y0098250D01*
X0041593Y0102625D01*
X0041593Y0103375D01*
X0037219Y0103375D01*
X0037335Y0104112D01*
X0037567Y0104823D01*
X0037906Y0105490D01*
X0038345Y0106094D01*
X0038874Y0106623D01*
X0039479Y0107063D01*
X0040145Y0107402D01*
X0040485Y0107512D01*
X0006656Y0107512D01*
X0005837Y0107432D01*
X0004323Y0106805D01*
X0003164Y0105646D01*
X0002537Y0104132D01*
X0002456Y0103312D01*
X0002456Y0013312D01*
X0002549Y0012371D01*
X0003269Y0010632D01*
X0004600Y0009301D01*
X0004400Y0009501D02*
X0007457Y0009501D01*
X0008213Y0009188D02*
X0005893Y0010149D01*
X0004118Y0011925D01*
X0003157Y0014244D01*
X0003157Y0016755D01*
X0004118Y0019075D01*
X0005893Y0020851D01*
X0008213Y0021812D01*
X0010724Y0021812D01*
X0013044Y0020851D01*
X0014819Y0019075D01*
X0015780Y0016755D01*
X0015780Y0014244D01*
X0014819Y0011925D01*
X0013044Y0010149D01*
X0010724Y0009188D01*
X0008213Y0009188D01*
X0007124Y0008503D02*
X0193493Y0008503D01*
X0193044Y0010149D02*
X0194819Y0011925D01*
X0195780Y0014244D01*
X0195780Y0016755D01*
X0194819Y0019075D01*
X0193044Y0020851D01*
X0190724Y0021812D01*
X0188213Y0021812D01*
X0185893Y0020851D01*
X0184118Y0019075D01*
X0183157Y0016755D01*
X0183157Y0014244D01*
X0184118Y0011925D01*
X0185893Y0010149D01*
X0188213Y0009188D01*
X0190724Y0009188D01*
X0193044Y0010149D01*
X0193395Y0010500D02*
X0196096Y0010500D01*
X0196406Y0011499D02*
X0194393Y0011499D01*
X0195056Y0012497D02*
X0196519Y0012497D01*
X0196481Y0013496D02*
X0195470Y0013496D01*
X0195780Y0014494D02*
X0196481Y0014494D01*
X0196481Y0015493D02*
X0195780Y0015493D01*
X0195780Y0016491D02*
X0196481Y0016491D01*
X0196481Y0017490D02*
X0195476Y0017490D01*
X0195063Y0018488D02*
X0196481Y0018488D01*
X0196481Y0019487D02*
X0194408Y0019487D01*
X0193410Y0020485D02*
X0196481Y0020485D01*
X0196481Y0021484D02*
X0191516Y0021484D01*
X0196481Y0022482D02*
X0179918Y0022482D01*
X0179918Y0021484D02*
X0187421Y0021484D01*
X0185527Y0020485D02*
X0179918Y0020485D01*
X0179918Y0019487D02*
X0184529Y0019487D01*
X0183874Y0018488D02*
X0179918Y0018488D01*
X0179918Y0017490D02*
X0183461Y0017490D01*
X0183157Y0016491D02*
X0179918Y0016491D01*
X0179918Y0015493D02*
X0183157Y0015493D01*
X0183157Y0014494D02*
X0179918Y0014494D01*
X0179918Y0013496D02*
X0183467Y0013496D01*
X0183881Y0012497D02*
X0179918Y0012497D01*
X0179918Y0012296D02*
X0179918Y0039954D01*
X0178923Y0040950D01*
X0172258Y0040950D01*
X0171667Y0041541D01*
X0169770Y0041541D01*
X0168428Y0040199D01*
X0168428Y0038301D01*
X0169770Y0036959D01*
X0171667Y0036959D01*
X0172178Y0037470D01*
X0172178Y0035801D01*
X0172769Y0035211D01*
X0172769Y0027200D01*
X0131264Y0027200D01*
X0131168Y0027104D01*
X0131168Y0027550D01*
X0138923Y0027550D01*
X0139918Y0028546D01*
X0139918Y0040211D01*
X0140509Y0040801D01*
X0140509Y0042699D01*
X0139167Y0044041D01*
X0137270Y0044041D01*
X0135928Y0042699D01*
X0135928Y0040801D01*
X0136519Y0040211D01*
X0136519Y0035439D01*
X0135417Y0036541D01*
X0133520Y0036541D01*
X0132929Y0035950D01*
X0126264Y0035950D01*
X0125269Y0034954D01*
X0125269Y0032396D01*
X0116205Y0022200D01*
X0109823Y0022200D01*
X0127082Y0039459D01*
X0127917Y0039459D01*
X0129259Y0040801D01*
X0129259Y0042699D01*
X0127917Y0044041D01*
X0126020Y0044041D01*
X0124678Y0042699D01*
X0124678Y0041864D01*
X0105014Y0022200D01*
X0075173Y0022200D01*
X0074173Y0023200D01*
X0104171Y0023200D01*
X0115061Y0034090D01*
X0115989Y0034474D01*
X0116744Y0035229D01*
X0117153Y0036216D01*
X0117153Y0037284D01*
X0116744Y0038270D01*
X0115989Y0039026D01*
X0115002Y0039434D01*
X0113935Y0039434D01*
X0112948Y0039026D01*
X0112193Y0038270D01*
X0111809Y0037343D01*
X0102266Y0027800D01*
X0098880Y0027800D01*
X0098902Y0027881D01*
X0098902Y0029941D01*
X0091996Y0029941D01*
X0091996Y0030941D01*
X0098902Y0030941D01*
X0098902Y0032550D01*
X0106423Y0032550D01*
X0107418Y0033546D01*
X0117082Y0043209D01*
X0117917Y0043209D01*
X0119259Y0044551D01*
X0119259Y0046449D01*
X0117917Y0047791D01*
X0116020Y0047791D01*
X0114678Y0046449D01*
X0114678Y0045614D01*
X0105014Y0035950D01*
X0098009Y0035950D01*
X0098009Y0037699D01*
X0096667Y0039041D01*
X0094770Y0039041D01*
X0093554Y0037825D01*
X0081168Y0037825D01*
X0081168Y0039103D01*
X0081411Y0039113D01*
X0097011Y0039129D01*
X0097600Y0038540D01*
X0099497Y0038540D01*
X0100839Y0039881D01*
X0100839Y0041779D01*
X0100093Y0042525D01*
X0103152Y0042525D01*
X0103218Y0042591D01*
X0103285Y0042525D01*
X0106696Y0042525D01*
X0107340Y0043169D01*
X0107340Y0049081D01*
X0107022Y0049399D01*
X0107418Y0049796D01*
X0107418Y0058961D01*
X0108009Y0059551D01*
X0108009Y0061449D01*
X0106667Y0062791D01*
X0104918Y0062791D01*
X0104918Y0067454D01*
X0100862Y0071511D01*
X0098502Y0071511D01*
X0098502Y0072629D01*
X0097857Y0073273D01*
X0085135Y0073273D01*
X0084491Y0072629D01*
X0084491Y0066993D01*
X0085135Y0066349D01*
X0097857Y0066349D01*
X0098502Y0066993D01*
X0098502Y0068111D01*
X0099453Y0068111D01*
X0101519Y0066046D01*
X0101519Y0054539D01*
X0101343Y0054364D01*
X0101168Y0054539D01*
X0101168Y0054767D01*
X0100173Y0055763D01*
X0098502Y0055763D01*
X0098502Y0056881D01*
X0097857Y0057525D01*
X0085135Y0057525D01*
X0084491Y0056881D01*
X0084491Y0051245D01*
X0085135Y0050601D01*
X0097857Y0050601D01*
X0098243Y0050986D01*
X0098520Y0050709D01*
X0100417Y0050709D01*
X0101343Y0051636D01*
X0102270Y0050709D01*
X0103524Y0050709D01*
X0103290Y0050476D01*
X0103290Y0049725D01*
X0103285Y0049725D01*
X0103218Y0049659D01*
X0103152Y0049725D01*
X0099741Y0049725D01*
X0099097Y0049081D01*
X0099097Y0047903D01*
X0098860Y0047911D01*
X0098836Y0047889D01*
X0098502Y0047889D01*
X0098502Y0049007D01*
X0097857Y0049651D01*
X0085135Y0049651D01*
X0084491Y0049007D01*
X0084491Y0043371D01*
X0085135Y0042727D01*
X0097206Y0042727D01*
X0097008Y0042529D01*
X0083043Y0042514D01*
X0083043Y0060237D01*
X0084491Y0060237D01*
X0084491Y0059119D01*
X0085135Y0058475D01*
X0097857Y0058475D01*
X0098502Y0059119D01*
X0098502Y0064755D01*
X0097857Y0065399D01*
X0085135Y0065399D01*
X0084491Y0064755D01*
X0084491Y0063637D01*
X0081168Y0063637D01*
X0081168Y0074796D01*
X0082358Y0075985D01*
X0084491Y0075985D01*
X0084491Y0074867D01*
X0085135Y0074223D01*
X0097857Y0074223D01*
X0098502Y0074867D01*
X0098502Y0080503D01*
X0097857Y0081147D01*
X0085135Y0081147D01*
X0084491Y0080503D01*
X0084491Y0079385D01*
X0080949Y0079385D01*
X0079954Y0078389D01*
X0079293Y0077729D01*
X0079293Y0088961D01*
X0079884Y0089551D01*
X0079884Y0091449D01*
X0078542Y0092791D01*
X0076645Y0092791D01*
X0075303Y0091449D01*
X0075303Y0089551D01*
X0075894Y0088961D01*
X0075894Y0046078D01*
X0070253Y0051718D01*
X0069869Y0052645D01*
X0069114Y0053401D01*
X0068186Y0053785D01*
X0055878Y0066093D01*
X0055494Y0067020D01*
X0054739Y0067776D01*
X0053752Y0068184D01*
X0052685Y0068184D01*
X0051698Y0067776D01*
X0050943Y0067020D01*
X0050626Y0066256D01*
X0048395Y0064237D01*
X0039446Y0064237D01*
X0039446Y0064755D01*
X0038802Y0065399D01*
X0026080Y0065399D01*
X0025435Y0064755D01*
X0025435Y0059119D01*
X0026080Y0058475D01*
X0038802Y0058475D01*
X0039446Y0059119D01*
X0039446Y0059637D01*
X0049224Y0059637D01*
X0050118Y0059592D01*
X0050168Y0059637D01*
X0050234Y0059637D01*
X0050867Y0060270D01*
X0053139Y0062326D01*
X0064934Y0050532D01*
X0065318Y0049604D01*
X0066073Y0048849D01*
X0067001Y0048465D01*
X0072794Y0042672D01*
X0072794Y0024579D01*
X0071168Y0026204D01*
X0070173Y0027200D01*
X0060173Y0027200D01*
X0042418Y0044954D01*
X0042418Y0051461D01*
X0043009Y0052051D01*
X0043009Y0053949D01*
X0041667Y0055291D01*
X0039770Y0055291D01*
X0038428Y0053949D01*
X0038428Y0052051D01*
X0039019Y0051461D01*
X0039019Y0043546D01*
X0040014Y0042550D01*
X0040014Y0042550D01*
X0057769Y0024796D01*
X0057864Y0024700D01*
X0025173Y0024700D01*
X0021383Y0028490D01*
X0022094Y0028490D01*
X0022712Y0027872D01*
X0023852Y0027400D01*
X0025659Y0027400D01*
X0026080Y0026979D01*
X0038802Y0026979D01*
X0039446Y0027623D01*
X0039446Y0033259D01*
X0038802Y0033903D01*
X0026261Y0033903D01*
X0026261Y0034245D01*
X0026154Y0034502D01*
X0026338Y0034453D01*
X0031941Y0034453D01*
X0031941Y0037815D01*
X0032941Y0037815D01*
X0032941Y0038815D01*
X0039846Y0038815D01*
X0039846Y0040875D01*
X0039744Y0041256D01*
X0039547Y0041598D01*
X0039267Y0041877D01*
X0038925Y0042075D01*
X0038544Y0042177D01*
X0032941Y0042177D01*
X0032941Y0038815D01*
X0031941Y0038815D01*
X0031941Y0042177D01*
X0026338Y0042177D01*
X0025956Y0042075D01*
X0025614Y0041877D01*
X0025335Y0041598D01*
X0025138Y0041256D01*
X0025035Y0040875D01*
X0025035Y0038815D01*
X0031941Y0038815D01*
X0031941Y0037815D01*
X0025035Y0037815D01*
X0025035Y0036504D01*
X0024180Y0037359D01*
X0022416Y0038090D01*
X0020506Y0038090D01*
X0018742Y0037359D01*
X0017392Y0036009D01*
X0016661Y0034245D01*
X0016661Y0033212D01*
X0012418Y0037454D01*
X0012418Y0076811D01*
X0013520Y0075709D01*
X0015417Y0075709D01*
X0015695Y0075988D01*
X0016597Y0075988D01*
X0016597Y0074732D01*
X0017241Y0074088D01*
X0020652Y0074088D01*
X0020718Y0074154D01*
X0020785Y0074088D01*
X0024196Y0074088D01*
X0024840Y0074732D01*
X0024840Y0075987D01*
X0025435Y0075987D01*
X0025435Y0074867D01*
X0026080Y0074223D01*
X0038802Y0074223D01*
X0039446Y0074867D01*
X0039446Y0080503D01*
X0038802Y0081147D01*
X0026080Y0081147D01*
X0025435Y0080503D01*
X0025435Y0079387D01*
X0024840Y0079387D01*
X0024840Y0080643D01*
X0024196Y0081287D01*
X0020785Y0081287D01*
X0020718Y0081221D01*
X0020652Y0081287D01*
X0017241Y0081287D01*
X0016597Y0080643D01*
X0016597Y0079387D01*
X0016320Y0079387D01*
X0015417Y0080291D01*
X0013520Y0080291D01*
X0012418Y0079189D01*
X0012418Y0083800D01*
X0016597Y0083800D01*
X0016597Y0082544D01*
X0017241Y0081900D01*
X0020652Y0081900D01*
X0020718Y0081966D01*
X0020785Y0081900D01*
X0024196Y0081900D01*
X0024840Y0082544D01*
X0024840Y0083814D01*
X0025435Y0083817D01*
X0025435Y0082741D01*
X0026080Y0082097D01*
X0038802Y0082097D01*
X0039446Y0082741D01*
X0039446Y0088377D01*
X0038802Y0089021D01*
X0026080Y0089021D01*
X0025435Y0088377D01*
X0025435Y0087217D01*
X0024840Y0087214D01*
X0024840Y0088456D01*
X0024196Y0089100D01*
X0020785Y0089100D01*
X0020718Y0089034D01*
X0020652Y0089100D01*
X0017241Y0089100D01*
X0016597Y0088456D01*
X0016597Y0087200D01*
X0010014Y0087200D01*
X0009019Y0086204D01*
X0009019Y0080291D01*
X0007270Y0080291D01*
X0005928Y0078949D01*
X0005928Y0077051D01*
X0006519Y0076461D01*
X0006519Y0034796D01*
X0007514Y0033800D01*
X0021519Y0019796D01*
X0022514Y0018800D01*
X0053764Y0018800D01*
X0057935Y0014629D01*
X0057619Y0013865D01*
X0057619Y0012135D01*
X0058281Y0010536D01*
X0059504Y0009312D01*
X0061103Y0008650D01*
X0062834Y0008650D01*
X0064433Y0009312D01*
X0065656Y0010536D01*
X0066318Y0012135D01*
X0066318Y0013865D01*
X0065656Y0015464D01*
X0064433Y0016688D01*
X0062834Y0017350D01*
X0061103Y0017350D01*
X0060339Y0017033D01*
X0056073Y0021300D01*
X0061264Y0021300D01*
X0067935Y0014629D01*
X0067619Y0013865D01*
X0067619Y0012135D01*
X0068281Y0010536D01*
X0069504Y0009312D01*
X0071103Y0008650D01*
X0072834Y0008650D01*
X0074433Y0009312D01*
X0075656Y0010536D01*
X0076318Y0012135D01*
X0076318Y0013865D01*
X0075656Y0015464D01*
X0074433Y0016688D01*
X0072834Y0017350D01*
X0071103Y0017350D01*
X0070339Y0017033D01*
X0063573Y0023800D01*
X0068764Y0023800D01*
X0073764Y0018800D01*
X0105364Y0018800D01*
X0103598Y0017033D01*
X0102834Y0017350D01*
X0101103Y0017350D01*
X0099504Y0016688D01*
X0098281Y0015464D01*
X0097619Y0013865D01*
X0097619Y0012135D01*
X0098281Y0010536D01*
X0099504Y0009312D01*
X0101103Y0008650D01*
X0102834Y0008650D01*
X0104433Y0009312D01*
X0105656Y0010536D01*
X0106318Y0012135D01*
X0106318Y0013865D01*
X0106002Y0014629D01*
X0110173Y0018800D01*
X0116322Y0018800D01*
X0116365Y0018762D01*
X0117018Y0018800D01*
X0117673Y0018800D01*
X0117714Y0018841D01*
X0117771Y0018844D01*
X0118206Y0019333D01*
X0118668Y0019796D01*
X0118668Y0019854D01*
X0128206Y0030583D01*
X0128668Y0031046D01*
X0128668Y0031104D01*
X0128707Y0031147D01*
X0128668Y0031800D01*
X0128668Y0032550D01*
X0132929Y0032550D01*
X0133520Y0031959D01*
X0135417Y0031959D01*
X0136519Y0033061D01*
X0136519Y0030950D01*
X0128764Y0030950D01*
X0127769Y0029954D01*
X0127769Y0021204D01*
X0123598Y0017033D01*
X0122834Y0017350D01*
X0121103Y0017350D01*
X0119504Y0016688D01*
X0118281Y0015464D01*
X0117619Y0013865D01*
X0117619Y0012135D01*
X0118281Y0010536D01*
X0119504Y0009312D01*
X0121103Y0008650D01*
X0122834Y0008650D01*
X0124433Y0009312D01*
X0125656Y0010536D01*
X0126318Y0012135D01*
X0126318Y0013865D01*
X0126002Y0014629D01*
X0130269Y0018896D01*
X0130269Y0017004D01*
X0129504Y0016688D01*
X0128281Y0015464D01*
X0127619Y0013865D01*
X0127619Y0012135D01*
X0128281Y0010536D01*
X0129504Y0009312D01*
X0131103Y0008650D01*
X0132834Y0008650D01*
X0134433Y0009312D01*
X0135656Y0010536D01*
X0136318Y0012135D01*
X0136318Y0013865D01*
X0135656Y0015464D01*
X0134433Y0016688D01*
X0133668Y0017004D01*
X0133668Y0023800D01*
X0175173Y0023800D01*
X0176168Y0024796D01*
X0176168Y0035211D01*
X0176519Y0035561D01*
X0176519Y0014700D01*
X0166908Y0014700D01*
X0168009Y0015801D01*
X0168009Y0017699D01*
X0166667Y0019041D01*
X0164770Y0019041D01*
X0164179Y0018450D01*
X0160173Y0018450D01*
X0157418Y0021204D01*
X0156423Y0022200D01*
X0141264Y0022200D01*
X0140269Y0021204D01*
X0140269Y0017004D01*
X0139504Y0016688D01*
X0138281Y0015464D01*
X0137619Y0013865D01*
X0137619Y0012135D01*
X0138281Y0010536D01*
X0139504Y0009312D01*
X0141103Y0008650D01*
X0142834Y0008650D01*
X0144433Y0009312D01*
X0145656Y0010536D01*
X0146318Y0012135D01*
X0146318Y0013865D01*
X0145656Y0015464D01*
X0144433Y0016688D01*
X0143668Y0017004D01*
X0143668Y0018800D01*
X0155014Y0018800D01*
X0158764Y0015050D01*
X0164179Y0015050D01*
X0164529Y0014700D01*
X0156318Y0014700D01*
X0156318Y0016706D01*
X0155674Y0017350D01*
X0148263Y0017350D01*
X0147619Y0016706D01*
X0147619Y0009294D01*
X0148263Y0008650D01*
X0155674Y0008650D01*
X0156318Y0009294D01*
X0156318Y0011300D01*
X0178923Y0011300D01*
X0179918Y0012296D01*
X0179121Y0011499D02*
X0184544Y0011499D01*
X0185542Y0010500D02*
X0156318Y0010500D01*
X0156318Y0009501D02*
X0187457Y0009501D01*
X0191480Y0009501D02*
X0195391Y0009501D01*
X0176519Y0015493D02*
X0167700Y0015493D01*
X0168009Y0016491D02*
X0176519Y0016491D01*
X0176519Y0017490D02*
X0168009Y0017490D01*
X0167220Y0018488D02*
X0176519Y0018488D01*
X0176519Y0019487D02*
X0159136Y0019487D01*
X0158138Y0020485D02*
X0176519Y0020485D01*
X0176519Y0021484D02*
X0157139Y0021484D01*
X0155326Y0018488D02*
X0143668Y0018488D01*
X0143668Y0017490D02*
X0156325Y0017490D01*
X0156318Y0016491D02*
X0157323Y0016491D01*
X0158322Y0015493D02*
X0156318Y0015493D01*
X0160135Y0018488D02*
X0164217Y0018488D01*
X0176519Y0022482D02*
X0133668Y0022482D01*
X0133668Y0021484D02*
X0140548Y0021484D01*
X0140269Y0020485D02*
X0133668Y0020485D01*
X0133668Y0019487D02*
X0140269Y0019487D01*
X0140269Y0018488D02*
X0133668Y0018488D01*
X0133668Y0017490D02*
X0140269Y0017490D01*
X0139308Y0016491D02*
X0134629Y0016491D01*
X0135628Y0015493D02*
X0138309Y0015493D01*
X0137879Y0014494D02*
X0136058Y0014494D01*
X0136318Y0013496D02*
X0137619Y0013496D01*
X0137619Y0012497D02*
X0136318Y0012497D01*
X0136055Y0011499D02*
X0137882Y0011499D01*
X0138317Y0010500D02*
X0135620Y0010500D01*
X0134622Y0009501D02*
X0139315Y0009501D01*
X0144622Y0009501D02*
X0147619Y0009501D01*
X0147619Y0010500D02*
X0145620Y0010500D01*
X0146055Y0011499D02*
X0147619Y0011499D01*
X0147619Y0012497D02*
X0146318Y0012497D01*
X0146318Y0013496D02*
X0147619Y0013496D01*
X0147619Y0014494D02*
X0146058Y0014494D01*
X0145628Y0015493D02*
X0147619Y0015493D01*
X0147619Y0016491D02*
X0144629Y0016491D01*
X0133668Y0023481D02*
X0176519Y0023481D01*
X0176519Y0024479D02*
X0175852Y0024479D01*
X0176168Y0025478D02*
X0176519Y0025478D01*
X0176519Y0026476D02*
X0176168Y0026476D01*
X0176168Y0027475D02*
X0176519Y0027475D01*
X0176519Y0028473D02*
X0176168Y0028473D01*
X0176168Y0029472D02*
X0176519Y0029472D01*
X0176519Y0030470D02*
X0176168Y0030470D01*
X0176168Y0031469D02*
X0176519Y0031469D01*
X0176519Y0032467D02*
X0176168Y0032467D01*
X0176168Y0033466D02*
X0176519Y0033466D01*
X0176519Y0034464D02*
X0176168Y0034464D01*
X0176421Y0035463D02*
X0176519Y0035463D01*
X0179918Y0035463D02*
X0187219Y0035463D01*
X0187222Y0036461D02*
X0179918Y0036461D01*
X0179918Y0037460D02*
X0187814Y0037460D01*
X0189504Y0039312D02*
X0191103Y0038650D01*
X0192834Y0038650D01*
X0194433Y0039312D01*
X0195656Y0040536D01*
X0196318Y0042135D01*
X0196318Y0043865D01*
X0195656Y0045464D01*
X0194433Y0046688D01*
X0192834Y0047350D01*
X0191103Y0047350D01*
X0189504Y0046688D01*
X0188281Y0045464D01*
X0187619Y0043865D01*
X0187619Y0042135D01*
X0188281Y0040536D01*
X0189504Y0039312D01*
X0189360Y0039457D02*
X0179918Y0039457D01*
X0179918Y0038458D02*
X0196481Y0038458D01*
X0196481Y0037460D02*
X0196123Y0037460D01*
X0196481Y0039457D02*
X0194577Y0039457D01*
X0195576Y0040455D02*
X0196481Y0040455D01*
X0196481Y0041454D02*
X0196036Y0041454D01*
X0196318Y0042452D02*
X0196481Y0042452D01*
X0196481Y0043451D02*
X0196318Y0043451D01*
X0196481Y0044449D02*
X0196077Y0044449D01*
X0196481Y0045448D02*
X0195663Y0045448D01*
X0196481Y0046446D02*
X0194674Y0046446D01*
X0196481Y0047445D02*
X0118263Y0047445D01*
X0119259Y0046446D02*
X0189263Y0046446D01*
X0188274Y0045448D02*
X0119259Y0045448D01*
X0119157Y0044449D02*
X0187860Y0044449D01*
X0187619Y0043451D02*
X0139757Y0043451D01*
X0140509Y0042452D02*
X0187619Y0042452D01*
X0187901Y0041454D02*
X0171754Y0041454D01*
X0169683Y0041454D02*
X0140509Y0041454D01*
X0140163Y0040455D02*
X0168685Y0040455D01*
X0168428Y0039457D02*
X0139918Y0039457D01*
X0139918Y0038458D02*
X0168428Y0038458D01*
X0169269Y0037460D02*
X0139918Y0037460D01*
X0139918Y0036461D02*
X0172178Y0036461D01*
X0172168Y0037460D02*
X0172178Y0037460D01*
X0172516Y0035463D02*
X0139918Y0035463D01*
X0139918Y0034464D02*
X0172769Y0034464D01*
X0172769Y0033466D02*
X0139918Y0033466D01*
X0139918Y0032467D02*
X0172769Y0032467D01*
X0172769Y0031469D02*
X0139918Y0031469D01*
X0139918Y0030470D02*
X0172769Y0030470D01*
X0172769Y0029472D02*
X0139918Y0029472D01*
X0139846Y0028473D02*
X0172769Y0028473D01*
X0172769Y0027475D02*
X0131168Y0027475D01*
X0127769Y0027475D02*
X0125443Y0027475D01*
X0126330Y0028473D02*
X0127769Y0028473D01*
X0127769Y0029472D02*
X0127218Y0029472D01*
X0128105Y0030470D02*
X0128285Y0030470D01*
X0128688Y0031469D02*
X0136519Y0031469D01*
X0136519Y0032467D02*
X0135925Y0032467D01*
X0133012Y0032467D02*
X0128668Y0032467D01*
X0125269Y0032467D02*
X0120090Y0032467D01*
X0119091Y0031469D02*
X0124444Y0031469D01*
X0123556Y0030470D02*
X0118093Y0030470D01*
X0117094Y0029472D02*
X0122669Y0029472D01*
X0121781Y0028473D02*
X0116096Y0028473D01*
X0115097Y0027475D02*
X0120894Y0027475D01*
X0120006Y0026476D02*
X0114099Y0026476D01*
X0113100Y0025478D02*
X0119119Y0025478D01*
X0118231Y0024479D02*
X0112102Y0024479D01*
X0111103Y0023481D02*
X0117343Y0023481D01*
X0116456Y0022482D02*
X0110105Y0022482D01*
X0107294Y0024479D02*
X0105450Y0024479D01*
X0106295Y0023481D02*
X0104452Y0023481D01*
X0105296Y0022482D02*
X0074891Y0022482D01*
X0071081Y0021484D02*
X0065889Y0021484D01*
X0064891Y0022482D02*
X0070082Y0022482D01*
X0069084Y0023481D02*
X0063892Y0023481D01*
X0057769Y0024796D02*
X0057769Y0024796D01*
X0057087Y0025478D02*
X0024395Y0025478D01*
X0023396Y0026476D02*
X0056088Y0026476D01*
X0055090Y0027475D02*
X0039298Y0027475D01*
X0039446Y0028473D02*
X0054091Y0028473D01*
X0053093Y0029472D02*
X0039446Y0029472D01*
X0039446Y0030470D02*
X0052094Y0030470D01*
X0051096Y0031469D02*
X0039446Y0031469D01*
X0039446Y0032467D02*
X0050097Y0032467D01*
X0049099Y0033466D02*
X0039239Y0033466D01*
X0038925Y0034555D02*
X0039267Y0034752D01*
X0039547Y0035032D01*
X0039744Y0035374D01*
X0039846Y0035755D01*
X0039846Y0037815D01*
X0032941Y0037815D01*
X0032941Y0034453D01*
X0038544Y0034453D01*
X0038925Y0034555D01*
X0038587Y0034464D02*
X0048100Y0034464D01*
X0047102Y0035463D02*
X0039768Y0035463D01*
X0039846Y0036461D02*
X0046103Y0036461D01*
X0045105Y0037460D02*
X0039846Y0037460D01*
X0039846Y0039457D02*
X0043108Y0039457D01*
X0044106Y0038458D02*
X0032941Y0038458D01*
X0032941Y0037460D02*
X0031941Y0037460D01*
X0031941Y0038458D02*
X0012418Y0038458D01*
X0012418Y0037460D02*
X0018985Y0037460D01*
X0017844Y0036461D02*
X0013411Y0036461D01*
X0014410Y0035463D02*
X0017166Y0035463D01*
X0016752Y0034464D02*
X0015408Y0034464D01*
X0016407Y0033466D02*
X0016661Y0033466D01*
X0010844Y0030470D02*
X0002456Y0030470D01*
X0002456Y0029472D02*
X0011843Y0029472D01*
X0012841Y0028473D02*
X0002456Y0028473D01*
X0002456Y0027475D02*
X0013840Y0027475D01*
X0014838Y0026476D02*
X0002456Y0026476D01*
X0002456Y0025478D02*
X0015837Y0025478D01*
X0016835Y0024479D02*
X0002456Y0024479D01*
X0002456Y0023481D02*
X0017834Y0023481D01*
X0018832Y0022482D02*
X0002456Y0022482D01*
X0002456Y0021484D02*
X0007421Y0021484D01*
X0005527Y0020485D02*
X0002456Y0020485D01*
X0002456Y0019487D02*
X0004529Y0019487D01*
X0003874Y0018488D02*
X0002456Y0018488D01*
X0002456Y0017490D02*
X0003461Y0017490D01*
X0003157Y0016491D02*
X0002456Y0016491D01*
X0002456Y0015493D02*
X0003157Y0015493D01*
X0003157Y0014494D02*
X0002456Y0014494D01*
X0002456Y0013496D02*
X0003467Y0013496D01*
X0003881Y0012497D02*
X0002536Y0012497D01*
X0002910Y0011499D02*
X0004544Y0011499D01*
X0005542Y0010500D02*
X0003401Y0010500D01*
X0011480Y0009501D02*
X0039315Y0009501D01*
X0039504Y0009312D02*
X0041103Y0008650D01*
X0042834Y0008650D01*
X0044433Y0009312D01*
X0045656Y0010536D01*
X0046318Y0012135D01*
X0046318Y0013865D01*
X0045656Y0015464D01*
X0044433Y0016688D01*
X0042834Y0017350D01*
X0041103Y0017350D01*
X0039504Y0016688D01*
X0038281Y0015464D01*
X0037619Y0013865D01*
X0037619Y0012135D01*
X0038281Y0010536D01*
X0039504Y0009312D01*
X0038317Y0010500D02*
X0013395Y0010500D01*
X0014393Y0011499D02*
X0037882Y0011499D01*
X0037619Y0012497D02*
X0015056Y0012497D01*
X0015470Y0013496D02*
X0037619Y0013496D01*
X0037879Y0014494D02*
X0015780Y0014494D01*
X0015780Y0015493D02*
X0038309Y0015493D01*
X0039308Y0016491D02*
X0015780Y0016491D01*
X0015476Y0017490D02*
X0055075Y0017490D01*
X0054433Y0016688D02*
X0052834Y0017350D01*
X0051103Y0017350D01*
X0049504Y0016688D01*
X0048281Y0015464D01*
X0047619Y0013865D01*
X0047619Y0012135D01*
X0048281Y0010536D01*
X0049504Y0009312D01*
X0051103Y0008650D01*
X0052834Y0008650D01*
X0054433Y0009312D01*
X0055656Y0010536D01*
X0056318Y0012135D01*
X0056318Y0013865D01*
X0055656Y0015464D01*
X0054433Y0016688D01*
X0054629Y0016491D02*
X0056073Y0016491D01*
X0055628Y0015493D02*
X0057072Y0015493D01*
X0057879Y0014494D02*
X0056058Y0014494D01*
X0056318Y0013496D02*
X0057619Y0013496D01*
X0057619Y0012497D02*
X0056318Y0012497D01*
X0056055Y0011499D02*
X0057882Y0011499D01*
X0058317Y0010500D02*
X0055620Y0010500D01*
X0054622Y0009501D02*
X0059315Y0009501D01*
X0064622Y0009501D02*
X0069315Y0009501D01*
X0068317Y0010500D02*
X0065620Y0010500D01*
X0066055Y0011499D02*
X0067882Y0011499D01*
X0067619Y0012497D02*
X0066318Y0012497D01*
X0066318Y0013496D02*
X0067619Y0013496D01*
X0067879Y0014494D02*
X0066058Y0014494D01*
X0065628Y0015493D02*
X0067072Y0015493D01*
X0066073Y0016491D02*
X0064629Y0016491D01*
X0065075Y0017490D02*
X0059883Y0017490D01*
X0058885Y0018488D02*
X0064076Y0018488D01*
X0063078Y0019487D02*
X0057886Y0019487D01*
X0056888Y0020485D02*
X0062079Y0020485D01*
X0066888Y0020485D02*
X0072079Y0020485D01*
X0073078Y0019487D02*
X0067886Y0019487D01*
X0068885Y0018488D02*
X0105052Y0018488D01*
X0104054Y0017490D02*
X0069883Y0017490D01*
X0074629Y0016491D02*
X0079308Y0016491D01*
X0079504Y0016688D02*
X0078281Y0015464D01*
X0077619Y0013865D01*
X0077619Y0012135D01*
X0078281Y0010536D01*
X0079504Y0009312D01*
X0081103Y0008650D01*
X0082834Y0008650D01*
X0084433Y0009312D01*
X0085656Y0010536D01*
X0086318Y0012135D01*
X0086318Y0013865D01*
X0085656Y0015464D01*
X0084433Y0016688D01*
X0082834Y0017350D01*
X0081103Y0017350D01*
X0079504Y0016688D01*
X0078309Y0015493D02*
X0075628Y0015493D01*
X0076058Y0014494D02*
X0077879Y0014494D01*
X0077619Y0013496D02*
X0076318Y0013496D01*
X0076318Y0012497D02*
X0077619Y0012497D01*
X0077882Y0011499D02*
X0076055Y0011499D01*
X0075620Y0010500D02*
X0078317Y0010500D01*
X0079315Y0009501D02*
X0074622Y0009501D01*
X0084622Y0009501D02*
X0089315Y0009501D01*
X0089504Y0009312D02*
X0091103Y0008650D01*
X0092834Y0008650D01*
X0094433Y0009312D01*
X0095656Y0010536D01*
X0096318Y0012135D01*
X0096318Y0013865D01*
X0095656Y0015464D01*
X0094433Y0016688D01*
X0092834Y0017350D01*
X0091103Y0017350D01*
X0089504Y0016688D01*
X0088281Y0015464D01*
X0087619Y0013865D01*
X0087619Y0012135D01*
X0088281Y0010536D01*
X0089504Y0009312D01*
X0088317Y0010500D02*
X0085620Y0010500D01*
X0086055Y0011499D02*
X0087882Y0011499D01*
X0087619Y0012497D02*
X0086318Y0012497D01*
X0086318Y0013496D02*
X0087619Y0013496D01*
X0087879Y0014494D02*
X0086058Y0014494D01*
X0085628Y0015493D02*
X0088309Y0015493D01*
X0089308Y0016491D02*
X0084629Y0016491D01*
X0094629Y0016491D02*
X0099308Y0016491D01*
X0098309Y0015493D02*
X0095628Y0015493D01*
X0096058Y0014494D02*
X0097879Y0014494D01*
X0097619Y0013496D02*
X0096318Y0013496D01*
X0096318Y0012497D02*
X0097619Y0012497D01*
X0097882Y0011499D02*
X0096055Y0011499D01*
X0095620Y0010500D02*
X0098317Y0010500D01*
X0099315Y0009501D02*
X0094622Y0009501D01*
X0104622Y0009501D02*
X0109315Y0009501D01*
X0109504Y0009312D02*
X0111103Y0008650D01*
X0112834Y0008650D01*
X0114433Y0009312D01*
X0115656Y0010536D01*
X0116318Y0012135D01*
X0116318Y0013865D01*
X0115656Y0015464D01*
X0114433Y0016688D01*
X0112834Y0017350D01*
X0111103Y0017350D01*
X0109504Y0016688D01*
X0108281Y0015464D01*
X0107619Y0013865D01*
X0107619Y0012135D01*
X0108281Y0010536D01*
X0109504Y0009312D01*
X0108317Y0010500D02*
X0105620Y0010500D01*
X0106055Y0011499D02*
X0107882Y0011499D01*
X0107619Y0012497D02*
X0106318Y0012497D01*
X0106318Y0013496D02*
X0107619Y0013496D01*
X0107879Y0014494D02*
X0106058Y0014494D01*
X0106865Y0015493D02*
X0108309Y0015493D01*
X0107864Y0016491D02*
X0109308Y0016491D01*
X0108862Y0017490D02*
X0124054Y0017490D01*
X0125052Y0018488D02*
X0109861Y0018488D01*
X0114629Y0016491D02*
X0119308Y0016491D01*
X0118309Y0015493D02*
X0115628Y0015493D01*
X0116058Y0014494D02*
X0117879Y0014494D01*
X0117619Y0013496D02*
X0116318Y0013496D01*
X0116318Y0012497D02*
X0117619Y0012497D01*
X0117882Y0011499D02*
X0116055Y0011499D01*
X0115620Y0010500D02*
X0118317Y0010500D01*
X0119315Y0009501D02*
X0114622Y0009501D01*
X0124622Y0009501D02*
X0129315Y0009501D01*
X0128317Y0010500D02*
X0125620Y0010500D01*
X0126055Y0011499D02*
X0127882Y0011499D01*
X0127619Y0012497D02*
X0126318Y0012497D01*
X0126318Y0013496D02*
X0127619Y0013496D01*
X0127879Y0014494D02*
X0126058Y0014494D01*
X0126865Y0015493D02*
X0128309Y0015493D01*
X0127864Y0016491D02*
X0129308Y0016491D01*
X0128862Y0017490D02*
X0130269Y0017490D01*
X0130269Y0018488D02*
X0129861Y0018488D01*
X0126051Y0019487D02*
X0118359Y0019487D01*
X0119230Y0020485D02*
X0127049Y0020485D01*
X0127769Y0021484D02*
X0120117Y0021484D01*
X0121005Y0022482D02*
X0127769Y0022482D01*
X0127769Y0023481D02*
X0121892Y0023481D01*
X0122780Y0024479D02*
X0127769Y0024479D01*
X0127769Y0025478D02*
X0123668Y0025478D01*
X0124555Y0026476D02*
X0127769Y0026476D01*
X0115282Y0032467D02*
X0113438Y0032467D01*
X0114283Y0031469D02*
X0112440Y0031469D01*
X0113285Y0030470D02*
X0111441Y0030470D01*
X0112286Y0029472D02*
X0110443Y0029472D01*
X0111288Y0028473D02*
X0109444Y0028473D01*
X0110289Y0027475D02*
X0108446Y0027475D01*
X0109291Y0026476D02*
X0107447Y0026476D01*
X0108292Y0025478D02*
X0106449Y0025478D01*
X0102939Y0028473D02*
X0098902Y0028473D01*
X0098902Y0029472D02*
X0103938Y0029472D01*
X0104936Y0030470D02*
X0091996Y0030470D01*
X0090996Y0030470D02*
X0077393Y0030470D01*
X0077393Y0029472D02*
X0084091Y0029472D01*
X0084091Y0029941D02*
X0084091Y0027881D01*
X0084112Y0027800D01*
X0077393Y0027800D01*
X0077393Y0032550D01*
X0084091Y0032550D01*
X0084091Y0030941D01*
X0090996Y0030941D01*
X0090996Y0029941D01*
X0084091Y0029941D01*
X0084091Y0028473D02*
X0077393Y0028473D01*
X0072794Y0028473D02*
X0058899Y0028473D01*
X0057901Y0029472D02*
X0072794Y0029472D01*
X0072794Y0030470D02*
X0056902Y0030470D01*
X0055904Y0031469D02*
X0072794Y0031469D01*
X0072794Y0032467D02*
X0054905Y0032467D01*
X0053907Y0033466D02*
X0072794Y0033466D01*
X0072794Y0034464D02*
X0052908Y0034464D01*
X0051910Y0035463D02*
X0072794Y0035463D01*
X0072794Y0036461D02*
X0050911Y0036461D01*
X0049913Y0037460D02*
X0072794Y0037460D01*
X0072794Y0038458D02*
X0048914Y0038458D01*
X0047916Y0039457D02*
X0072794Y0039457D01*
X0072794Y0040455D02*
X0046917Y0040455D01*
X0045919Y0041454D02*
X0072794Y0041454D01*
X0072794Y0042452D02*
X0044920Y0042452D01*
X0043922Y0043451D02*
X0072015Y0043451D01*
X0071016Y0044449D02*
X0042923Y0044449D01*
X0042418Y0045448D02*
X0070018Y0045448D01*
X0069019Y0046446D02*
X0042418Y0046446D01*
X0042418Y0047445D02*
X0068021Y0047445D01*
X0067022Y0048443D02*
X0042418Y0048443D01*
X0042418Y0049442D02*
X0065480Y0049442D01*
X0064972Y0050440D02*
X0042418Y0050440D01*
X0042418Y0051439D02*
X0064027Y0051439D01*
X0063028Y0052437D02*
X0043009Y0052437D01*
X0043009Y0053436D02*
X0062030Y0053436D01*
X0061031Y0054434D02*
X0042523Y0054434D01*
X0038914Y0054434D02*
X0012418Y0054434D01*
X0012418Y0053436D02*
X0038428Y0053436D01*
X0038428Y0052437D02*
X0012418Y0052437D01*
X0012418Y0051439D02*
X0039019Y0051439D01*
X0039019Y0050440D02*
X0012418Y0050440D01*
X0012418Y0049442D02*
X0039019Y0049442D01*
X0039019Y0048443D02*
X0012418Y0048443D01*
X0012418Y0047445D02*
X0039019Y0047445D01*
X0039019Y0046446D02*
X0012418Y0046446D01*
X0012418Y0045448D02*
X0039019Y0045448D01*
X0039019Y0044449D02*
X0012418Y0044449D01*
X0012418Y0043451D02*
X0039113Y0043451D01*
X0040112Y0042452D02*
X0012418Y0042452D01*
X0012418Y0041454D02*
X0025252Y0041454D01*
X0025035Y0040455D02*
X0012418Y0040455D01*
X0012418Y0039457D02*
X0025035Y0039457D01*
X0025035Y0037460D02*
X0023937Y0037460D01*
X0026170Y0034464D02*
X0026295Y0034464D01*
X0031941Y0034464D02*
X0032941Y0034464D01*
X0032941Y0035463D02*
X0031941Y0035463D01*
X0031941Y0036461D02*
X0032941Y0036461D01*
X0032941Y0039457D02*
X0031941Y0039457D01*
X0031941Y0040455D02*
X0032941Y0040455D01*
X0032941Y0041454D02*
X0031941Y0041454D01*
X0039630Y0041454D02*
X0041110Y0041454D01*
X0042109Y0040455D02*
X0039846Y0040455D01*
X0022111Y0028473D02*
X0021399Y0028473D01*
X0022398Y0027475D02*
X0023672Y0027475D01*
X0019831Y0021484D02*
X0011516Y0021484D01*
X0013410Y0020485D02*
X0020829Y0020485D01*
X0021828Y0019487D02*
X0014408Y0019487D01*
X0015063Y0018488D02*
X0054076Y0018488D01*
X0049308Y0016491D02*
X0044629Y0016491D01*
X0045628Y0015493D02*
X0048309Y0015493D01*
X0047879Y0014494D02*
X0046058Y0014494D01*
X0046318Y0013496D02*
X0047619Y0013496D01*
X0047619Y0012497D02*
X0046318Y0012497D01*
X0046055Y0011499D02*
X0047882Y0011499D01*
X0048317Y0010500D02*
X0045620Y0010500D01*
X0044622Y0009501D02*
X0049315Y0009501D01*
X0071895Y0025478D02*
X0072794Y0025478D01*
X0072794Y0026476D02*
X0070896Y0026476D01*
X0072794Y0027475D02*
X0059898Y0027475D01*
X0077393Y0031469D02*
X0084091Y0031469D01*
X0084091Y0032467D02*
X0077393Y0032467D01*
X0081168Y0038458D02*
X0094187Y0038458D01*
X0097249Y0038458D02*
X0107523Y0038458D01*
X0108521Y0039457D02*
X0100415Y0039457D01*
X0100839Y0040455D02*
X0109520Y0040455D01*
X0110518Y0041454D02*
X0100839Y0041454D01*
X0100166Y0042452D02*
X0111517Y0042452D01*
X0112515Y0043451D02*
X0107340Y0043451D01*
X0107340Y0044449D02*
X0113514Y0044449D01*
X0114512Y0045448D02*
X0107340Y0045448D01*
X0107340Y0046446D02*
X0114678Y0046446D01*
X0115674Y0047445D02*
X0107340Y0047445D01*
X0107340Y0048443D02*
X0127036Y0048443D01*
X0127270Y0048209D02*
X0129167Y0048209D01*
X0130509Y0049551D01*
X0130509Y0051449D01*
X0129918Y0052039D01*
X0129918Y0061204D01*
X0128923Y0062200D01*
X0112258Y0062200D01*
X0111667Y0062791D01*
X0109770Y0062791D01*
X0108428Y0061449D01*
X0108428Y0059551D01*
X0109770Y0058209D01*
X0111667Y0058209D01*
X0112258Y0058800D01*
X0126519Y0058800D01*
X0126519Y0057791D01*
X0124770Y0057791D01*
X0124179Y0057200D01*
X0112258Y0057200D01*
X0111667Y0057791D01*
X0109770Y0057791D01*
X0108428Y0056449D01*
X0108428Y0054551D01*
X0109770Y0053209D01*
X0111667Y0053209D01*
X0112258Y0053800D01*
X0124179Y0053800D01*
X0124770Y0053209D01*
X0126519Y0053209D01*
X0126519Y0052039D01*
X0125928Y0051449D01*
X0125928Y0049551D01*
X0127270Y0048209D01*
X0126037Y0049442D02*
X0107065Y0049442D01*
X0107418Y0050440D02*
X0125928Y0050440D01*
X0125928Y0051439D02*
X0107418Y0051439D01*
X0107418Y0052437D02*
X0126519Y0052437D01*
X0124543Y0053436D02*
X0111894Y0053436D01*
X0109543Y0053436D02*
X0107418Y0053436D01*
X0107418Y0054434D02*
X0108545Y0054434D01*
X0108428Y0055433D02*
X0107418Y0055433D01*
X0107418Y0056432D02*
X0108428Y0056432D01*
X0109409Y0057430D02*
X0107418Y0057430D01*
X0107418Y0058429D02*
X0109551Y0058429D01*
X0108552Y0059427D02*
X0107885Y0059427D01*
X0108009Y0060426D02*
X0108428Y0060426D01*
X0108428Y0061424D02*
X0108009Y0061424D01*
X0107035Y0062423D02*
X0109402Y0062423D01*
X0112035Y0062423D02*
X0187619Y0062423D01*
X0187619Y0062135D02*
X0188281Y0060536D01*
X0189504Y0059312D01*
X0191103Y0058650D01*
X0192834Y0058650D01*
X0194433Y0059312D01*
X0195656Y0060536D01*
X0196318Y0062135D01*
X0196318Y0063865D01*
X0195656Y0065464D01*
X0194433Y0066688D01*
X0192834Y0067350D01*
X0191103Y0067350D01*
X0190339Y0067033D01*
X0178923Y0078450D01*
X0109758Y0078450D01*
X0109583Y0078625D01*
X0109758Y0078800D01*
X0183764Y0078800D01*
X0187935Y0074629D01*
X0187619Y0073865D01*
X0187619Y0072135D01*
X0188281Y0070536D01*
X0189504Y0069312D01*
X0191103Y0068650D01*
X0192834Y0068650D01*
X0194433Y0069312D01*
X0195656Y0070536D01*
X0196318Y0072135D01*
X0196318Y0073865D01*
X0195656Y0075464D01*
X0194433Y0076688D01*
X0192834Y0077350D01*
X0191103Y0077350D01*
X0190339Y0077033D01*
X0186073Y0081300D01*
X0187964Y0081300D01*
X0188281Y0080536D01*
X0189504Y0079312D01*
X0191103Y0078650D01*
X0192834Y0078650D01*
X0194433Y0079312D01*
X0195656Y0080536D01*
X0196318Y0082135D01*
X0196318Y0083865D01*
X0195656Y0085464D01*
X0194433Y0086688D01*
X0192834Y0087350D01*
X0191103Y0087350D01*
X0189504Y0086688D01*
X0188281Y0085464D01*
X0187964Y0084700D01*
X0158009Y0084700D01*
X0158009Y0086220D01*
X0158520Y0085709D01*
X0160417Y0085709D01*
X0161759Y0087051D01*
X0161759Y0088949D01*
X0160417Y0090291D01*
X0159582Y0090291D01*
X0153668Y0096204D01*
X0152673Y0097200D01*
X0120173Y0097200D01*
X0116002Y0101371D01*
X0116318Y0102135D01*
X0116318Y0103865D01*
X0115656Y0105464D01*
X0114433Y0106688D01*
X0112834Y0107350D01*
X0111103Y0107350D01*
X0109504Y0106688D01*
X0108281Y0105464D01*
X0107619Y0103865D01*
X0107619Y0102135D01*
X0108281Y0100536D01*
X0109504Y0099312D01*
X0111103Y0098650D01*
X0112834Y0098650D01*
X0113598Y0098966D01*
X0117864Y0094700D01*
X0112673Y0094700D01*
X0106002Y0101371D01*
X0106318Y0102135D01*
X0106318Y0103865D01*
X0105656Y0105464D01*
X0104433Y0106688D01*
X0102834Y0107350D01*
X0101103Y0107350D01*
X0099504Y0106688D01*
X0098281Y0105464D01*
X0097619Y0103865D01*
X0097619Y0102135D01*
X0098281Y0100536D01*
X0099504Y0099312D01*
X0101103Y0098650D01*
X0102834Y0098650D01*
X0103598Y0098966D01*
X0111264Y0091300D01*
X0148764Y0091300D01*
X0153522Y0086543D01*
X0153428Y0086449D01*
X0153428Y0084700D01*
X0112258Y0084700D01*
X0111667Y0085291D01*
X0109918Y0085291D01*
X0109918Y0086204D01*
X0108923Y0087200D01*
X0108668Y0087454D01*
X0108668Y0092454D01*
X0104918Y0096204D01*
X0103923Y0097200D01*
X0090173Y0097200D01*
X0086002Y0101371D01*
X0086318Y0102135D01*
X0086318Y0103865D01*
X0085656Y0105464D01*
X0084433Y0106688D01*
X0082834Y0107350D01*
X0081103Y0107350D01*
X0079504Y0106688D01*
X0078281Y0105464D01*
X0077619Y0103865D01*
X0077619Y0102135D01*
X0078281Y0100536D01*
X0079504Y0099312D01*
X0081103Y0098650D01*
X0082834Y0098650D01*
X0083598Y0098966D01*
X0087769Y0094796D01*
X0087864Y0094700D01*
X0086423Y0094700D01*
X0083923Y0097200D01*
X0080173Y0097200D01*
X0076002Y0101371D01*
X0076318Y0102135D01*
X0076318Y0103865D01*
X0075656Y0105464D01*
X0074433Y0106688D01*
X0072834Y0107350D01*
X0071103Y0107350D01*
X0069504Y0106688D01*
X0068281Y0105464D01*
X0067619Y0103865D01*
X0067619Y0102135D01*
X0068281Y0100536D01*
X0069504Y0099312D01*
X0071103Y0098650D01*
X0072834Y0098650D01*
X0073598Y0098966D01*
X0077769Y0094796D01*
X0078764Y0093800D01*
X0082514Y0093800D01*
X0084019Y0092296D01*
X0085014Y0091300D01*
X0101264Y0091300D01*
X0102769Y0089796D01*
X0102769Y0084796D01*
X0104019Y0083546D01*
X0104019Y0078546D01*
X0105928Y0076636D01*
X0105928Y0075801D01*
X0107270Y0074459D01*
X0109167Y0074459D01*
X0109758Y0075050D01*
X0177514Y0075050D01*
X0187935Y0064629D01*
X0187619Y0063865D01*
X0187619Y0062135D01*
X0187913Y0061424D02*
X0129699Y0061424D01*
X0129918Y0060426D02*
X0188391Y0060426D01*
X0189390Y0059427D02*
X0129918Y0059427D01*
X0129918Y0058429D02*
X0196481Y0058429D01*
X0196481Y0059427D02*
X0194547Y0059427D01*
X0195546Y0060426D02*
X0196481Y0060426D01*
X0196481Y0061424D02*
X0196024Y0061424D01*
X0196318Y0062423D02*
X0196481Y0062423D01*
X0196481Y0063421D02*
X0196318Y0063421D01*
X0196481Y0064420D02*
X0196089Y0064420D01*
X0196481Y0065418D02*
X0195675Y0065418D01*
X0196481Y0066417D02*
X0194704Y0066417D01*
X0196481Y0067415D02*
X0189958Y0067415D01*
X0188959Y0068414D02*
X0196481Y0068414D01*
X0196481Y0069412D02*
X0194533Y0069412D01*
X0195531Y0070411D02*
X0196481Y0070411D01*
X0196481Y0071409D02*
X0196018Y0071409D01*
X0196318Y0072408D02*
X0196481Y0072408D01*
X0196481Y0073406D02*
X0196318Y0073406D01*
X0196481Y0074405D02*
X0196095Y0074405D01*
X0196481Y0075403D02*
X0195681Y0075403D01*
X0196481Y0076402D02*
X0194719Y0076402D01*
X0196481Y0077400D02*
X0189972Y0077400D01*
X0188974Y0078399D02*
X0196481Y0078399D01*
X0196481Y0079397D02*
X0194518Y0079397D01*
X0195516Y0080396D02*
X0196481Y0080396D01*
X0196481Y0081394D02*
X0196012Y0081394D01*
X0196318Y0082393D02*
X0196481Y0082393D01*
X0196481Y0083391D02*
X0196318Y0083391D01*
X0196481Y0084390D02*
X0196101Y0084390D01*
X0196481Y0085388D02*
X0195688Y0085388D01*
X0196481Y0086387D02*
X0194733Y0086387D01*
X0196481Y0087385D02*
X0161759Y0087385D01*
X0161759Y0088384D02*
X0196481Y0088384D01*
X0196481Y0089382D02*
X0161325Y0089382D01*
X0159492Y0090381D02*
X0196481Y0090381D01*
X0196481Y0091379D02*
X0158493Y0091379D01*
X0157495Y0092378D02*
X0196481Y0092378D01*
X0196481Y0093376D02*
X0156496Y0093376D01*
X0155498Y0094375D02*
X0187762Y0094375D01*
X0188213Y0094188D02*
X0190724Y0094188D01*
X0193044Y0095149D01*
X0194819Y0096925D01*
X0195780Y0099244D01*
X0195780Y0101755D01*
X0194819Y0104075D01*
X0193044Y0105851D01*
X0190724Y0106812D01*
X0188213Y0106812D01*
X0185893Y0105851D01*
X0184118Y0104075D01*
X0183157Y0101755D01*
X0183157Y0099244D01*
X0184118Y0096925D01*
X0185893Y0095149D01*
X0188213Y0094188D01*
X0185669Y0095373D02*
X0154499Y0095373D01*
X0153501Y0096372D02*
X0184670Y0096372D01*
X0183933Y0097370D02*
X0120002Y0097370D01*
X0119004Y0098369D02*
X0183519Y0098369D01*
X0183157Y0099368D02*
X0156318Y0099368D01*
X0156318Y0099294D02*
X0156318Y0106706D01*
X0155674Y0107350D01*
X0148263Y0107350D01*
X0147619Y0106706D01*
X0147619Y0099294D01*
X0148263Y0098650D01*
X0155674Y0098650D01*
X0156318Y0099294D01*
X0156318Y0100366D02*
X0183157Y0100366D01*
X0183157Y0101365D02*
X0156318Y0101365D01*
X0156318Y0102363D02*
X0183408Y0102363D01*
X0183822Y0103362D02*
X0156318Y0103362D01*
X0156318Y0104360D02*
X0184402Y0104360D01*
X0185401Y0105359D02*
X0156318Y0105359D01*
X0156318Y0106357D02*
X0187115Y0106357D01*
X0191822Y0106357D02*
X0194764Y0106357D01*
X0195705Y0105359D02*
X0193536Y0105359D01*
X0194535Y0104360D02*
X0196153Y0104360D01*
X0196432Y0103362D02*
X0195115Y0103362D01*
X0195529Y0102363D02*
X0196481Y0102363D01*
X0196481Y0101365D02*
X0195780Y0101365D01*
X0195780Y0100366D02*
X0196481Y0100366D01*
X0196481Y0099368D02*
X0195780Y0099368D01*
X0195418Y0098369D02*
X0196481Y0098369D01*
X0196481Y0097370D02*
X0195004Y0097370D01*
X0194267Y0096372D02*
X0196481Y0096372D01*
X0196481Y0095373D02*
X0193268Y0095373D01*
X0191175Y0094375D02*
X0196481Y0094375D01*
X0189204Y0086387D02*
X0161095Y0086387D01*
X0158009Y0085388D02*
X0188249Y0085388D01*
X0188421Y0080396D02*
X0186977Y0080396D01*
X0187975Y0079397D02*
X0189419Y0079397D01*
X0185164Y0077400D02*
X0179972Y0077400D01*
X0178974Y0078399D02*
X0184166Y0078399D01*
X0186163Y0076402D02*
X0180971Y0076402D01*
X0181969Y0075403D02*
X0187161Y0075403D01*
X0187842Y0074405D02*
X0182968Y0074405D01*
X0183966Y0073406D02*
X0187619Y0073406D01*
X0187619Y0072408D02*
X0184965Y0072408D01*
X0185963Y0071409D02*
X0187919Y0071409D01*
X0188406Y0070411D02*
X0186962Y0070411D01*
X0187960Y0069412D02*
X0189404Y0069412D01*
X0186148Y0066417D02*
X0104918Y0066417D01*
X0104918Y0067415D02*
X0185149Y0067415D01*
X0184151Y0068414D02*
X0103959Y0068414D01*
X0102960Y0069412D02*
X0183152Y0069412D01*
X0182154Y0070411D02*
X0101962Y0070411D01*
X0100963Y0071409D02*
X0181155Y0071409D01*
X0180157Y0072408D02*
X0098502Y0072408D01*
X0098039Y0074405D02*
X0178160Y0074405D01*
X0179158Y0073406D02*
X0081168Y0073406D01*
X0081168Y0072408D02*
X0084491Y0072408D01*
X0084491Y0071409D02*
X0081168Y0071409D01*
X0081168Y0070411D02*
X0084491Y0070411D01*
X0084491Y0069412D02*
X0081168Y0069412D01*
X0081168Y0068414D02*
X0084491Y0068414D01*
X0084491Y0067415D02*
X0081168Y0067415D01*
X0081168Y0066417D02*
X0085067Y0066417D01*
X0084491Y0064420D02*
X0081168Y0064420D01*
X0081168Y0065418D02*
X0101519Y0065418D01*
X0101519Y0064420D02*
X0098502Y0064420D01*
X0098502Y0063421D02*
X0101519Y0063421D01*
X0101519Y0062423D02*
X0098502Y0062423D01*
X0098502Y0061424D02*
X0101519Y0061424D01*
X0101519Y0060426D02*
X0098502Y0060426D01*
X0098502Y0059427D02*
X0101519Y0059427D01*
X0101519Y0058429D02*
X0083043Y0058429D01*
X0083043Y0059427D02*
X0084491Y0059427D01*
X0085040Y0057430D02*
X0083043Y0057430D01*
X0083043Y0056432D02*
X0084491Y0056432D01*
X0084491Y0055433D02*
X0083043Y0055433D01*
X0083043Y0054434D02*
X0084491Y0054434D01*
X0084491Y0053436D02*
X0083043Y0053436D01*
X0083043Y0052437D02*
X0084491Y0052437D01*
X0084491Y0051439D02*
X0083043Y0051439D01*
X0083043Y0050440D02*
X0103290Y0050440D01*
X0101540Y0051439D02*
X0101147Y0051439D01*
X0099458Y0049442D02*
X0098066Y0049442D01*
X0098502Y0048443D02*
X0099097Y0048443D01*
X0101273Y0054434D02*
X0101414Y0054434D01*
X0101519Y0055433D02*
X0100503Y0055433D01*
X0101519Y0056432D02*
X0098502Y0056432D01*
X0097952Y0057430D02*
X0101519Y0057430D01*
X0111886Y0058429D02*
X0126519Y0058429D01*
X0124409Y0057430D02*
X0112028Y0057430D01*
X0104918Y0063421D02*
X0187619Y0063421D01*
X0187848Y0064420D02*
X0104918Y0064420D01*
X0104918Y0065418D02*
X0187146Y0065418D01*
X0191103Y0057350D02*
X0189504Y0056688D01*
X0188281Y0055464D01*
X0187619Y0053865D01*
X0187619Y0052135D01*
X0188281Y0050536D01*
X0189504Y0049312D01*
X0191103Y0048650D01*
X0192834Y0048650D01*
X0194433Y0049312D01*
X0195656Y0050536D01*
X0196318Y0052135D01*
X0196318Y0053865D01*
X0195656Y0055464D01*
X0194433Y0056688D01*
X0192834Y0057350D01*
X0191103Y0057350D01*
X0189248Y0056432D02*
X0129918Y0056432D01*
X0129918Y0057430D02*
X0196481Y0057430D01*
X0196481Y0056432D02*
X0194689Y0056432D01*
X0195669Y0055433D02*
X0196481Y0055433D01*
X0196481Y0054434D02*
X0196083Y0054434D01*
X0196318Y0053436D02*
X0196481Y0053436D01*
X0196481Y0052437D02*
X0196318Y0052437D01*
X0196481Y0051439D02*
X0196030Y0051439D01*
X0196481Y0050440D02*
X0195561Y0050440D01*
X0196481Y0049442D02*
X0194562Y0049442D01*
X0196481Y0048443D02*
X0129401Y0048443D01*
X0130400Y0049442D02*
X0189375Y0049442D01*
X0188376Y0050440D02*
X0130509Y0050440D01*
X0130509Y0051439D02*
X0187907Y0051439D01*
X0187619Y0052437D02*
X0129918Y0052437D01*
X0129918Y0053436D02*
X0187619Y0053436D01*
X0187854Y0054434D02*
X0129918Y0054434D01*
X0129918Y0055433D02*
X0188268Y0055433D01*
X0188361Y0040455D02*
X0179417Y0040455D01*
X0179918Y0034464D02*
X0187219Y0034464D01*
X0187219Y0033466D02*
X0179918Y0033466D01*
X0179918Y0032467D02*
X0187219Y0032467D01*
X0187219Y0031469D02*
X0179918Y0031469D01*
X0179918Y0030470D02*
X0187219Y0030470D01*
X0187240Y0029472D02*
X0179918Y0029472D01*
X0179918Y0028473D02*
X0187930Y0028473D01*
X0191593Y0028473D02*
X0192344Y0028473D01*
X0192344Y0029472D02*
X0191593Y0029472D01*
X0191593Y0030470D02*
X0192344Y0030470D01*
X0192344Y0031469D02*
X0191593Y0031469D01*
X0191593Y0032467D02*
X0192344Y0032467D01*
X0192344Y0033466D02*
X0191593Y0033466D01*
X0191593Y0034464D02*
X0192344Y0034464D01*
X0192344Y0035463D02*
X0191593Y0035463D01*
X0191593Y0036461D02*
X0192344Y0036461D01*
X0192344Y0037460D02*
X0191593Y0037460D01*
X0196007Y0028473D02*
X0196481Y0028473D01*
X0196481Y0027475D02*
X0179918Y0027475D01*
X0179918Y0026476D02*
X0196481Y0026476D01*
X0196481Y0025478D02*
X0179918Y0025478D01*
X0179918Y0024479D02*
X0196481Y0024479D01*
X0196481Y0023481D02*
X0179918Y0023481D01*
X0136519Y0035463D02*
X0136495Y0035463D01*
X0136519Y0036461D02*
X0135497Y0036461D01*
X0136519Y0037460D02*
X0125082Y0037460D01*
X0124084Y0036461D02*
X0133440Y0036461D01*
X0136519Y0038458D02*
X0126081Y0038458D01*
X0127079Y0039457D02*
X0136519Y0039457D01*
X0136274Y0040455D02*
X0128913Y0040455D01*
X0129259Y0041454D02*
X0135928Y0041454D01*
X0135928Y0042452D02*
X0129259Y0042452D01*
X0128507Y0043451D02*
X0136680Y0043451D01*
X0125430Y0043451D02*
X0118159Y0043451D01*
X0116325Y0042452D02*
X0124678Y0042452D01*
X0124268Y0041454D02*
X0115327Y0041454D01*
X0114328Y0040455D02*
X0123270Y0040455D01*
X0122271Y0039457D02*
X0113329Y0039457D01*
X0112381Y0038458D02*
X0112331Y0038458D01*
X0111857Y0037460D02*
X0111332Y0037460D01*
X0110927Y0036461D02*
X0110334Y0036461D01*
X0109929Y0035463D02*
X0109335Y0035463D01*
X0108930Y0034464D02*
X0108337Y0034464D01*
X0107932Y0033466D02*
X0107338Y0033466D01*
X0106933Y0032467D02*
X0098902Y0032467D01*
X0098902Y0031469D02*
X0105935Y0031469D01*
X0114437Y0033466D02*
X0116280Y0033466D01*
X0115965Y0034464D02*
X0117279Y0034464D01*
X0116841Y0035463D02*
X0118277Y0035463D01*
X0119276Y0036461D02*
X0117153Y0036461D01*
X0117080Y0037460D02*
X0120274Y0037460D01*
X0121273Y0038458D02*
X0116556Y0038458D01*
X0123085Y0035463D02*
X0125777Y0035463D01*
X0125269Y0034464D02*
X0122087Y0034464D01*
X0121088Y0033466D02*
X0125269Y0033466D01*
X0106524Y0037460D02*
X0098009Y0037460D01*
X0098009Y0036461D02*
X0105526Y0036461D01*
X0084491Y0043451D02*
X0083043Y0043451D01*
X0083043Y0044449D02*
X0084491Y0044449D01*
X0084491Y0045448D02*
X0083043Y0045448D01*
X0083043Y0046446D02*
X0084491Y0046446D01*
X0084491Y0047445D02*
X0083043Y0047445D01*
X0083043Y0048443D02*
X0084491Y0048443D01*
X0084926Y0049442D02*
X0083043Y0049442D01*
X0075894Y0049442D02*
X0072529Y0049442D01*
X0071531Y0050440D02*
X0075894Y0050440D01*
X0075894Y0051439D02*
X0070532Y0051439D01*
X0069955Y0052437D02*
X0075894Y0052437D01*
X0075894Y0053436D02*
X0069029Y0053436D01*
X0067537Y0054434D02*
X0075894Y0054434D01*
X0075894Y0055433D02*
X0066538Y0055433D01*
X0065540Y0056432D02*
X0075894Y0056432D01*
X0075894Y0057430D02*
X0064541Y0057430D01*
X0063543Y0058429D02*
X0075894Y0058429D01*
X0075894Y0059427D02*
X0062544Y0059427D01*
X0061546Y0060426D02*
X0075894Y0060426D01*
X0075894Y0061424D02*
X0060547Y0061424D01*
X0059549Y0062423D02*
X0075894Y0062423D01*
X0075894Y0063421D02*
X0058550Y0063421D01*
X0057552Y0064420D02*
X0075894Y0064420D01*
X0075894Y0065418D02*
X0056553Y0065418D01*
X0055744Y0066417D02*
X0075894Y0066417D01*
X0075894Y0067415D02*
X0055099Y0067415D01*
X0051338Y0067415D02*
X0039446Y0067415D01*
X0039446Y0066993D02*
X0039446Y0068111D01*
X0041244Y0068111D01*
X0041913Y0068083D01*
X0041943Y0068111D01*
X0041984Y0068111D01*
X0042457Y0068584D01*
X0056990Y0081959D01*
X0057917Y0081959D01*
X0059259Y0083301D01*
X0059259Y0085199D01*
X0057917Y0086541D01*
X0056020Y0086541D01*
X0054678Y0085199D01*
X0054678Y0084452D01*
X0040616Y0071511D01*
X0039446Y0071511D01*
X0039446Y0072629D01*
X0038802Y0073273D01*
X0026080Y0073273D01*
X0025435Y0072629D01*
X0025435Y0066993D01*
X0026080Y0066349D01*
X0038802Y0066349D01*
X0039446Y0066993D01*
X0038870Y0066417D02*
X0050693Y0066417D01*
X0049700Y0065418D02*
X0012418Y0065418D01*
X0012418Y0064420D02*
X0025435Y0064420D01*
X0025435Y0063421D02*
X0012418Y0063421D01*
X0012418Y0062423D02*
X0025435Y0062423D01*
X0025435Y0061424D02*
X0012418Y0061424D01*
X0012418Y0060426D02*
X0025435Y0060426D01*
X0025435Y0059427D02*
X0012418Y0059427D01*
X0012418Y0058429D02*
X0057037Y0058429D01*
X0056039Y0059427D02*
X0039446Y0059427D01*
X0039446Y0064420D02*
X0048597Y0064420D01*
X0052142Y0061424D02*
X0054042Y0061424D01*
X0055040Y0060426D02*
X0051039Y0060426D01*
X0058036Y0057430D02*
X0012418Y0057430D01*
X0012418Y0056432D02*
X0059034Y0056432D01*
X0060033Y0055433D02*
X0012418Y0055433D01*
X0006519Y0055433D02*
X0002456Y0055433D01*
X0002456Y0054434D02*
X0006519Y0054434D01*
X0006519Y0053436D02*
X0002456Y0053436D01*
X0002456Y0052437D02*
X0006519Y0052437D01*
X0006519Y0051439D02*
X0002456Y0051439D01*
X0002456Y0050440D02*
X0006519Y0050440D01*
X0006519Y0049442D02*
X0002456Y0049442D01*
X0002456Y0048443D02*
X0006519Y0048443D01*
X0006519Y0047445D02*
X0002456Y0047445D01*
X0002456Y0046446D02*
X0006519Y0046446D01*
X0006519Y0045448D02*
X0002456Y0045448D01*
X0002456Y0044449D02*
X0006519Y0044449D01*
X0006519Y0043451D02*
X0002456Y0043451D01*
X0002456Y0042452D02*
X0006519Y0042452D01*
X0006519Y0041454D02*
X0002456Y0041454D01*
X0002456Y0040455D02*
X0006519Y0040455D01*
X0006519Y0039457D02*
X0002456Y0039457D01*
X0002456Y0038458D02*
X0006519Y0038458D01*
X0006519Y0037460D02*
X0002456Y0037460D01*
X0002456Y0036461D02*
X0006519Y0036461D01*
X0006519Y0035463D02*
X0002456Y0035463D01*
X0002456Y0034464D02*
X0006850Y0034464D01*
X0007849Y0033466D02*
X0002456Y0033466D01*
X0002456Y0032467D02*
X0008847Y0032467D01*
X0009846Y0031469D02*
X0002456Y0031469D01*
X0002456Y0056432D02*
X0006519Y0056432D01*
X0006519Y0057430D02*
X0002456Y0057430D01*
X0002456Y0058429D02*
X0006519Y0058429D01*
X0006519Y0059427D02*
X0002456Y0059427D01*
X0002456Y0060426D02*
X0006519Y0060426D01*
X0006519Y0061424D02*
X0002456Y0061424D01*
X0002456Y0062423D02*
X0006519Y0062423D01*
X0006519Y0063421D02*
X0002456Y0063421D01*
X0002456Y0064420D02*
X0006519Y0064420D01*
X0006519Y0065418D02*
X0002456Y0065418D01*
X0002456Y0066417D02*
X0006519Y0066417D01*
X0006519Y0067415D02*
X0002456Y0067415D01*
X0002456Y0068414D02*
X0006519Y0068414D01*
X0006519Y0069412D02*
X0002456Y0069412D01*
X0002456Y0070411D02*
X0006519Y0070411D01*
X0006519Y0071409D02*
X0002456Y0071409D01*
X0002456Y0072408D02*
X0006519Y0072408D01*
X0006519Y0073406D02*
X0002456Y0073406D01*
X0002456Y0074405D02*
X0006519Y0074405D01*
X0006519Y0075403D02*
X0002456Y0075403D01*
X0002456Y0076402D02*
X0006519Y0076402D01*
X0005928Y0077400D02*
X0002456Y0077400D01*
X0002456Y0078399D02*
X0005928Y0078399D01*
X0006376Y0079397D02*
X0002456Y0079397D01*
X0002456Y0080396D02*
X0009019Y0080396D01*
X0009019Y0081394D02*
X0002456Y0081394D01*
X0002456Y0082393D02*
X0009019Y0082393D01*
X0009019Y0083391D02*
X0002456Y0083391D01*
X0002456Y0084390D02*
X0009019Y0084390D01*
X0009019Y0085388D02*
X0002456Y0085388D01*
X0002456Y0086387D02*
X0009201Y0086387D01*
X0012418Y0083391D02*
X0016597Y0083391D01*
X0016748Y0082393D02*
X0012418Y0082393D01*
X0012418Y0081394D02*
X0051355Y0081394D01*
X0050270Y0080396D02*
X0039446Y0080396D01*
X0039446Y0079397D02*
X0049185Y0079397D01*
X0048100Y0078399D02*
X0039446Y0078399D01*
X0039446Y0077400D02*
X0047015Y0077400D01*
X0045930Y0076402D02*
X0039446Y0076402D01*
X0039446Y0075403D02*
X0044845Y0075403D01*
X0043761Y0074405D02*
X0038984Y0074405D01*
X0039446Y0072408D02*
X0041591Y0072408D01*
X0042676Y0073406D02*
X0012418Y0073406D01*
X0012418Y0072408D02*
X0025435Y0072408D01*
X0025435Y0071409D02*
X0012418Y0071409D01*
X0012418Y0070411D02*
X0025435Y0070411D01*
X0025435Y0069412D02*
X0012418Y0069412D01*
X0012418Y0068414D02*
X0025435Y0068414D01*
X0025435Y0067415D02*
X0012418Y0067415D01*
X0012418Y0066417D02*
X0026012Y0066417D01*
X0025898Y0074405D02*
X0024513Y0074405D01*
X0024840Y0075403D02*
X0025435Y0075403D01*
X0016924Y0074405D02*
X0012418Y0074405D01*
X0012418Y0075403D02*
X0016597Y0075403D01*
X0012827Y0076402D02*
X0012418Y0076402D01*
X0012418Y0079397D02*
X0012626Y0079397D01*
X0012418Y0080396D02*
X0016597Y0080396D01*
X0016597Y0079397D02*
X0016311Y0079397D01*
X0024840Y0079397D02*
X0025435Y0079397D01*
X0025435Y0080396D02*
X0024840Y0080396D01*
X0024689Y0082393D02*
X0025784Y0082393D01*
X0025435Y0083391D02*
X0024840Y0083391D01*
X0024840Y0087385D02*
X0025435Y0087385D01*
X0025442Y0088384D02*
X0024840Y0088384D01*
X0016597Y0088384D02*
X0002456Y0088384D01*
X0002456Y0089382D02*
X0075472Y0089382D01*
X0075303Y0090381D02*
X0002456Y0090381D01*
X0002456Y0091379D02*
X0075303Y0091379D01*
X0076232Y0092378D02*
X0002456Y0092378D01*
X0002456Y0093376D02*
X0082938Y0093376D01*
X0083936Y0092378D02*
X0078955Y0092378D01*
X0079884Y0091379D02*
X0084935Y0091379D01*
X0085393Y0089421D02*
X0085012Y0089319D01*
X0084670Y0089122D01*
X0084390Y0088842D01*
X0084193Y0088500D01*
X0084091Y0088119D01*
X0084091Y0086059D01*
X0090996Y0086059D01*
X0090996Y0085059D01*
X0084091Y0085059D01*
X0084091Y0082999D01*
X0084193Y0082618D01*
X0084390Y0082276D01*
X0084670Y0081997D01*
X0085012Y0081799D01*
X0085393Y0081697D01*
X0090996Y0081697D01*
X0090996Y0085059D01*
X0091996Y0085059D01*
X0091996Y0081697D01*
X0097599Y0081697D01*
X0097981Y0081799D01*
X0098323Y0081997D01*
X0098602Y0082276D01*
X0098799Y0082618D01*
X0098902Y0082999D01*
X0098902Y0085059D01*
X0091996Y0085059D01*
X0091996Y0086059D01*
X0090996Y0086059D01*
X0090996Y0089421D01*
X0085393Y0089421D01*
X0085248Y0089382D02*
X0079715Y0089382D01*
X0079884Y0090381D02*
X0102183Y0090381D01*
X0102769Y0089382D02*
X0097744Y0089382D01*
X0097599Y0089421D02*
X0091996Y0089421D01*
X0091996Y0086059D01*
X0098902Y0086059D01*
X0098902Y0088119D01*
X0098799Y0088500D01*
X0098602Y0088842D01*
X0098323Y0089122D01*
X0097981Y0089319D01*
X0097599Y0089421D01*
X0098831Y0088384D02*
X0102769Y0088384D01*
X0102769Y0087385D02*
X0098902Y0087385D01*
X0098902Y0086387D02*
X0102769Y0086387D01*
X0102769Y0085388D02*
X0091996Y0085388D01*
X0091996Y0084390D02*
X0090996Y0084390D01*
X0090996Y0085388D02*
X0079293Y0085388D01*
X0079293Y0084390D02*
X0084091Y0084390D01*
X0084091Y0083391D02*
X0079293Y0083391D01*
X0079293Y0082393D02*
X0084323Y0082393D01*
X0084491Y0080396D02*
X0079293Y0080396D01*
X0079293Y0081394D02*
X0104019Y0081394D01*
X0104019Y0080396D02*
X0098502Y0080396D01*
X0098502Y0079397D02*
X0104019Y0079397D01*
X0104166Y0078399D02*
X0098502Y0078399D01*
X0098502Y0077400D02*
X0105164Y0077400D01*
X0105928Y0076402D02*
X0098502Y0076402D01*
X0098502Y0075403D02*
X0106326Y0075403D01*
X0104019Y0082393D02*
X0098669Y0082393D01*
X0098902Y0083391D02*
X0104019Y0083391D01*
X0103174Y0084390D02*
X0098902Y0084390D01*
X0091996Y0083391D02*
X0090996Y0083391D01*
X0090996Y0082393D02*
X0091996Y0082393D01*
X0084491Y0079397D02*
X0079293Y0079397D01*
X0079293Y0078399D02*
X0079963Y0078399D01*
X0075894Y0078399D02*
X0053121Y0078399D01*
X0054206Y0079397D02*
X0075894Y0079397D01*
X0075894Y0080396D02*
X0055291Y0080396D01*
X0056376Y0081394D02*
X0075894Y0081394D01*
X0075894Y0082393D02*
X0058351Y0082393D01*
X0059259Y0083391D02*
X0075894Y0083391D01*
X0075894Y0084390D02*
X0059259Y0084390D01*
X0059069Y0085388D02*
X0075894Y0085388D01*
X0075894Y0086387D02*
X0058071Y0086387D01*
X0055866Y0086387D02*
X0039446Y0086387D01*
X0039446Y0087385D02*
X0075894Y0087385D01*
X0075894Y0088384D02*
X0039439Y0088384D01*
X0039446Y0085388D02*
X0054868Y0085388D01*
X0054610Y0084390D02*
X0039446Y0084390D01*
X0039446Y0083391D02*
X0053525Y0083391D01*
X0052440Y0082393D02*
X0039098Y0082393D01*
X0050951Y0076402D02*
X0075894Y0076402D01*
X0075894Y0077400D02*
X0052036Y0077400D01*
X0049866Y0075403D02*
X0075894Y0075403D01*
X0075894Y0074405D02*
X0048781Y0074405D01*
X0047696Y0073406D02*
X0075894Y0073406D01*
X0075894Y0072408D02*
X0046611Y0072408D01*
X0045526Y0071409D02*
X0075894Y0071409D01*
X0075894Y0070411D02*
X0044441Y0070411D01*
X0043357Y0069412D02*
X0075894Y0069412D01*
X0075894Y0068414D02*
X0042286Y0068414D01*
X0081168Y0074405D02*
X0084953Y0074405D01*
X0084491Y0075403D02*
X0081776Y0075403D01*
X0098502Y0067415D02*
X0100149Y0067415D01*
X0101148Y0066417D02*
X0097925Y0066417D01*
X0109918Y0085388D02*
X0153428Y0085388D01*
X0153428Y0086387D02*
X0149845Y0086387D01*
X0150509Y0087051D02*
X0150509Y0088949D01*
X0149167Y0090291D01*
X0147270Y0090291D01*
X0146679Y0089700D01*
X0141008Y0089700D01*
X0140417Y0090291D01*
X0138520Y0090291D01*
X0137929Y0089700D01*
X0121008Y0089700D01*
X0120417Y0090291D01*
X0118520Y0090291D01*
X0117178Y0088949D01*
X0117178Y0087051D01*
X0118520Y0085709D01*
X0120417Y0085709D01*
X0121008Y0086300D01*
X0137929Y0086300D01*
X0138520Y0085709D01*
X0140417Y0085709D01*
X0141008Y0086300D01*
X0146679Y0086300D01*
X0147270Y0085709D01*
X0149167Y0085709D01*
X0150509Y0087051D01*
X0150509Y0087385D02*
X0152679Y0087385D01*
X0151680Y0088384D02*
X0150509Y0088384D01*
X0150682Y0089382D02*
X0150075Y0089382D01*
X0149683Y0090381D02*
X0108668Y0090381D01*
X0108668Y0091379D02*
X0111185Y0091379D01*
X0110186Y0092378D02*
X0108668Y0092378D01*
X0109188Y0093376D02*
X0107746Y0093376D01*
X0108189Y0094375D02*
X0106748Y0094375D01*
X0107191Y0095373D02*
X0105749Y0095373D01*
X0106192Y0096372D02*
X0104751Y0096372D01*
X0105194Y0097370D02*
X0090002Y0097370D01*
X0089004Y0098369D02*
X0104195Y0098369D01*
X0107007Y0100366D02*
X0108451Y0100366D01*
X0108005Y0099368D02*
X0109449Y0099368D01*
X0109004Y0098369D02*
X0114195Y0098369D01*
X0115194Y0097370D02*
X0110002Y0097370D01*
X0111001Y0096372D02*
X0116192Y0096372D01*
X0117191Y0095373D02*
X0111999Y0095373D01*
X0118005Y0099368D02*
X0119449Y0099368D01*
X0119504Y0099312D02*
X0121103Y0098650D01*
X0122834Y0098650D01*
X0124433Y0099312D01*
X0125656Y0100536D01*
X0126318Y0102135D01*
X0126318Y0103865D01*
X0125656Y0105464D01*
X0124433Y0106688D01*
X0122834Y0107350D01*
X0121103Y0107350D01*
X0119504Y0106688D01*
X0118281Y0105464D01*
X0117619Y0103865D01*
X0117619Y0102135D01*
X0118281Y0100536D01*
X0119504Y0099312D01*
X0118451Y0100366D02*
X0117007Y0100366D01*
X0117938Y0101365D02*
X0116008Y0101365D01*
X0116318Y0102363D02*
X0117619Y0102363D01*
X0117619Y0103362D02*
X0116318Y0103362D01*
X0116114Y0104360D02*
X0117823Y0104360D01*
X0118237Y0105359D02*
X0115700Y0105359D01*
X0114763Y0106357D02*
X0119174Y0106357D01*
X0124763Y0106357D02*
X0129174Y0106357D01*
X0129504Y0106688D02*
X0128281Y0105464D01*
X0127619Y0103865D01*
X0127619Y0102135D01*
X0128281Y0100536D01*
X0129504Y0099312D01*
X0131103Y0098650D01*
X0132834Y0098650D01*
X0134433Y0099312D01*
X0135656Y0100536D01*
X0136318Y0102135D01*
X0136318Y0103865D01*
X0135656Y0105464D01*
X0134433Y0106688D01*
X0132834Y0107350D01*
X0131103Y0107350D01*
X0129504Y0106688D01*
X0128237Y0105359D02*
X0125700Y0105359D01*
X0126114Y0104360D02*
X0127823Y0104360D01*
X0127619Y0103362D02*
X0126318Y0103362D01*
X0126318Y0102363D02*
X0127619Y0102363D01*
X0127938Y0101365D02*
X0125999Y0101365D01*
X0125486Y0100366D02*
X0128451Y0100366D01*
X0129449Y0099368D02*
X0124488Y0099368D01*
X0134488Y0099368D02*
X0139449Y0099368D01*
X0139504Y0099312D02*
X0141103Y0098650D01*
X0142834Y0098650D01*
X0144433Y0099312D01*
X0145656Y0100536D01*
X0146318Y0102135D01*
X0146318Y0103865D01*
X0145656Y0105464D01*
X0144433Y0106688D01*
X0142834Y0107350D01*
X0141103Y0107350D01*
X0139504Y0106688D01*
X0138281Y0105464D01*
X0137619Y0103865D01*
X0137619Y0102135D01*
X0138281Y0100536D01*
X0139504Y0099312D01*
X0138451Y0100366D02*
X0135486Y0100366D01*
X0135999Y0101365D02*
X0137938Y0101365D01*
X0137619Y0102363D02*
X0136318Y0102363D01*
X0136318Y0103362D02*
X0137619Y0103362D01*
X0137823Y0104360D02*
X0136114Y0104360D01*
X0135700Y0105359D02*
X0138237Y0105359D01*
X0139174Y0106357D02*
X0134763Y0106357D01*
X0144763Y0106357D02*
X0147619Y0106357D01*
X0147619Y0105359D02*
X0145700Y0105359D01*
X0146114Y0104360D02*
X0147619Y0104360D01*
X0147619Y0103362D02*
X0146318Y0103362D01*
X0146318Y0102363D02*
X0147619Y0102363D01*
X0147619Y0101365D02*
X0145999Y0101365D01*
X0145486Y0100366D02*
X0147619Y0100366D01*
X0147619Y0099368D02*
X0144488Y0099368D01*
X0117612Y0089382D02*
X0108668Y0089382D01*
X0108668Y0088384D02*
X0117178Y0088384D01*
X0117178Y0087385D02*
X0108737Y0087385D01*
X0109736Y0086387D02*
X0117842Y0086387D01*
X0091996Y0086387D02*
X0090996Y0086387D01*
X0090996Y0087385D02*
X0091996Y0087385D01*
X0091996Y0088384D02*
X0090996Y0088384D01*
X0090996Y0089382D02*
X0091996Y0089382D01*
X0084162Y0088384D02*
X0079293Y0088384D01*
X0079293Y0087385D02*
X0084091Y0087385D01*
X0084091Y0086387D02*
X0079293Y0086387D01*
X0078189Y0094375D02*
X0011175Y0094375D01*
X0010724Y0094188D02*
X0013044Y0095149D01*
X0014819Y0096925D01*
X0015780Y0099244D01*
X0015780Y0101755D01*
X0014819Y0104075D01*
X0013044Y0105851D01*
X0010724Y0106812D01*
X0008213Y0106812D01*
X0005893Y0105851D01*
X0004118Y0104075D01*
X0003157Y0101755D01*
X0003157Y0099244D01*
X0004118Y0096925D01*
X0005893Y0095149D01*
X0008213Y0094188D01*
X0010724Y0094188D01*
X0013268Y0095373D02*
X0077191Y0095373D01*
X0076192Y0096372D02*
X0014267Y0096372D01*
X0015004Y0097370D02*
X0075194Y0097370D01*
X0074195Y0098369D02*
X0043087Y0098369D01*
X0042344Y0098369D02*
X0041593Y0098369D01*
X0040850Y0098369D02*
X0015418Y0098369D01*
X0015780Y0099368D02*
X0038887Y0099368D01*
X0038011Y0100366D02*
X0015780Y0100366D01*
X0015780Y0101365D02*
X0037505Y0101365D01*
X0037260Y0102363D02*
X0015529Y0102363D01*
X0015115Y0103362D02*
X0041593Y0103362D01*
X0042344Y0103362D02*
X0047619Y0103362D01*
X0047619Y0103865D02*
X0047619Y0102135D01*
X0048281Y0100536D01*
X0049504Y0099312D01*
X0051103Y0098650D01*
X0052834Y0098650D01*
X0054433Y0099312D01*
X0055656Y0100536D01*
X0056318Y0102135D01*
X0056318Y0103865D01*
X0055656Y0105464D01*
X0054433Y0106688D01*
X0052834Y0107350D01*
X0051103Y0107350D01*
X0049504Y0106688D01*
X0048281Y0105464D01*
X0047619Y0103865D01*
X0047823Y0104360D02*
X0046521Y0104360D01*
X0046098Y0105359D02*
X0048237Y0105359D01*
X0049174Y0106357D02*
X0045329Y0106357D01*
X0043883Y0107356D02*
X0192838Y0107356D01*
X0109174Y0106357D02*
X0104763Y0106357D01*
X0105700Y0105359D02*
X0108237Y0105359D01*
X0107823Y0104360D02*
X0106114Y0104360D01*
X0106318Y0103362D02*
X0107619Y0103362D01*
X0107619Y0102363D02*
X0106318Y0102363D01*
X0106008Y0101365D02*
X0107938Y0101365D01*
X0099449Y0099368D02*
X0094488Y0099368D01*
X0094433Y0099312D02*
X0095656Y0100536D01*
X0096318Y0102135D01*
X0096318Y0103865D01*
X0095656Y0105464D01*
X0094433Y0106688D01*
X0092834Y0107350D01*
X0091103Y0107350D01*
X0089504Y0106688D01*
X0088281Y0105464D01*
X0087619Y0103865D01*
X0087619Y0102135D01*
X0088281Y0100536D01*
X0089504Y0099312D01*
X0091103Y0098650D01*
X0092834Y0098650D01*
X0094433Y0099312D01*
X0095486Y0100366D02*
X0098451Y0100366D01*
X0097938Y0101365D02*
X0095999Y0101365D01*
X0096318Y0102363D02*
X0097619Y0102363D01*
X0097619Y0103362D02*
X0096318Y0103362D01*
X0096114Y0104360D02*
X0097823Y0104360D01*
X0098237Y0105359D02*
X0095700Y0105359D01*
X0094763Y0106357D02*
X0099174Y0106357D01*
X0089174Y0106357D02*
X0084763Y0106357D01*
X0085700Y0105359D02*
X0088237Y0105359D01*
X0087823Y0104360D02*
X0086114Y0104360D01*
X0086318Y0103362D02*
X0087619Y0103362D01*
X0087619Y0102363D02*
X0086318Y0102363D01*
X0086008Y0101365D02*
X0087938Y0101365D01*
X0088451Y0100366D02*
X0087007Y0100366D01*
X0088005Y0099368D02*
X0089449Y0099368D01*
X0085194Y0097370D02*
X0080002Y0097370D01*
X0079004Y0098369D02*
X0084195Y0098369D01*
X0084751Y0096372D02*
X0086192Y0096372D01*
X0085749Y0095373D02*
X0087191Y0095373D01*
X0079449Y0099368D02*
X0078005Y0099368D01*
X0078451Y0100366D02*
X0077007Y0100366D01*
X0077938Y0101365D02*
X0076008Y0101365D01*
X0076318Y0102363D02*
X0077619Y0102363D01*
X0077619Y0103362D02*
X0076318Y0103362D01*
X0076114Y0104360D02*
X0077823Y0104360D01*
X0078237Y0105359D02*
X0075700Y0105359D01*
X0074763Y0106357D02*
X0079174Y0106357D01*
X0069174Y0106357D02*
X0064763Y0106357D01*
X0064433Y0106688D02*
X0062834Y0107350D01*
X0061103Y0107350D01*
X0059504Y0106688D01*
X0058281Y0105464D01*
X0057619Y0103865D01*
X0057619Y0102135D01*
X0058281Y0100536D01*
X0059504Y0099312D01*
X0061103Y0098650D01*
X0062834Y0098650D01*
X0064433Y0099312D01*
X0065656Y0100536D01*
X0066318Y0102135D01*
X0066318Y0103865D01*
X0065656Y0105464D01*
X0064433Y0106688D01*
X0065700Y0105359D02*
X0068237Y0105359D01*
X0067823Y0104360D02*
X0066114Y0104360D01*
X0066318Y0103362D02*
X0067619Y0103362D01*
X0067619Y0102363D02*
X0066318Y0102363D01*
X0065999Y0101365D02*
X0067938Y0101365D01*
X0068451Y0100366D02*
X0065486Y0100366D01*
X0064488Y0099368D02*
X0069449Y0099368D01*
X0059449Y0099368D02*
X0054488Y0099368D01*
X0055486Y0100366D02*
X0058451Y0100366D01*
X0057938Y0101365D02*
X0055999Y0101365D01*
X0056318Y0102363D02*
X0057619Y0102363D01*
X0057619Y0103362D02*
X0056318Y0103362D01*
X0056114Y0104360D02*
X0057823Y0104360D01*
X0058237Y0105359D02*
X0055700Y0105359D01*
X0054763Y0106357D02*
X0059174Y0106357D01*
X0047619Y0102363D02*
X0046677Y0102363D01*
X0046432Y0101365D02*
X0047938Y0101365D01*
X0048451Y0100366D02*
X0045926Y0100366D01*
X0045050Y0099368D02*
X0049449Y0099368D01*
X0042344Y0099368D02*
X0041593Y0099368D01*
X0041593Y0100366D02*
X0042344Y0100366D01*
X0042344Y0101365D02*
X0041593Y0101365D01*
X0041593Y0102363D02*
X0042344Y0102363D01*
X0037416Y0104360D02*
X0014535Y0104360D01*
X0013536Y0105359D02*
X0037839Y0105359D01*
X0038608Y0106357D02*
X0011822Y0106357D01*
X0007115Y0106357D02*
X0003875Y0106357D01*
X0003045Y0105359D02*
X0005401Y0105359D01*
X0004402Y0104360D02*
X0002631Y0104360D01*
X0002461Y0103362D02*
X0003822Y0103362D01*
X0003408Y0102363D02*
X0002456Y0102363D01*
X0002456Y0101365D02*
X0003157Y0101365D01*
X0003157Y0100366D02*
X0002456Y0100366D01*
X0002456Y0099368D02*
X0003157Y0099368D01*
X0003519Y0098369D02*
X0002456Y0098369D01*
X0002456Y0097370D02*
X0003933Y0097370D01*
X0004670Y0096372D02*
X0002456Y0096372D01*
X0002456Y0095373D02*
X0005669Y0095373D01*
X0007762Y0094375D02*
X0002456Y0094375D01*
X0002456Y0087385D02*
X0016597Y0087385D01*
X0005653Y0107356D02*
X0040054Y0107356D01*
X0073528Y0048443D02*
X0075894Y0048443D01*
X0075894Y0047445D02*
X0074526Y0047445D01*
X0075525Y0046446D02*
X0075894Y0046446D01*
D16*
X0066969Y0045500D03*
X0059156Y0041125D03*
X0049469Y0044250D03*
X0033844Y0044250D03*
X0023844Y0044250D03*
X0023844Y0051750D03*
X0033844Y0051750D03*
X0040719Y0053000D03*
X0013844Y0051750D03*
X0047594Y0068000D03*
X0070094Y0076750D03*
X0056969Y0084250D03*
X0056969Y0089250D03*
X0067594Y0090500D03*
X0077594Y0090500D03*
X0101656Y0083625D03*
X0108219Y0080500D03*
X0110719Y0083000D03*
X0119469Y0088000D03*
X0139469Y0088000D03*
X0148219Y0088000D03*
X0151656Y0086437D03*
X0155719Y0085500D03*
X0159469Y0088000D03*
X0180719Y0091750D03*
X0180719Y0078000D03*
X0151969Y0074250D03*
X0144469Y0074250D03*
X0154469Y0060500D03*
X0154469Y0049250D03*
X0154469Y0044250D03*
X0138219Y0041750D03*
X0126969Y0041750D03*
X0123844Y0046437D03*
X0116969Y0045500D03*
X0128219Y0050500D03*
X0125719Y0055500D03*
X0110719Y0055500D03*
X0108219Y0053000D03*
X0103219Y0053000D03*
X0099469Y0053000D03*
X0105719Y0060500D03*
X0110719Y0060500D03*
X0106656Y0066125D03*
X0111344Y0074250D03*
X0108219Y0076750D03*
X0074781Y0069563D03*
X0045719Y0089250D03*
X0023844Y0091750D03*
X0023844Y0103000D03*
X0033844Y0103000D03*
X0014469Y0078000D03*
X0008219Y0078000D03*
X0023844Y0070500D03*
X0098549Y0040830D03*
X0095719Y0036750D03*
X0124469Y0034250D03*
X0134469Y0034250D03*
X0154469Y0035500D03*
X0154469Y0029250D03*
X0170719Y0039250D03*
X0174469Y0036750D03*
X0180719Y0024250D03*
X0165719Y0016750D03*
X0115719Y0023000D03*
X0059156Y0033625D03*
X0033844Y0025500D03*
X0033844Y0013000D03*
X0023844Y0013000D03*
D17*
X0067594Y0051125D03*
X0053219Y0065500D03*
X0114469Y0036750D03*
D18*
X0103219Y0025500D01*
X0075094Y0025500D01*
X0075094Y0043625D01*
X0067594Y0051125D01*
X0053219Y0065500D01*
X0049281Y0061937D01*
X0032441Y0061937D01*
X0021679Y0033290D02*
X0021461Y0033290D01*
X0032382Y0030500D02*
X0032441Y0030441D01*
D19*
X0024469Y0023000D02*
X0061969Y0023000D01*
X0071969Y0013000D01*
X0061969Y0013000D02*
X0054469Y0020500D01*
X0023219Y0020500D01*
X0008219Y0035500D01*
X0008219Y0078000D01*
X0014469Y0078000D02*
X0014781Y0077688D01*
X0018947Y0077688D01*
X0022490Y0077688D02*
X0032441Y0077685D01*
X0032441Y0069811D02*
X0041280Y0069811D01*
X0056969Y0084250D01*
X0077594Y0090500D02*
X0077594Y0034250D01*
X0105719Y0034250D01*
X0116969Y0045500D01*
X0126969Y0041750D02*
X0105719Y0020500D01*
X0074469Y0020500D01*
X0069469Y0025500D01*
X0059469Y0025500D01*
X0040719Y0044250D01*
X0040719Y0053000D01*
X0010719Y0036750D02*
X0024469Y0023000D01*
X0010719Y0036750D02*
X0010719Y0085500D01*
X0018947Y0085500D01*
X0022490Y0085500D02*
X0032441Y0085559D01*
X0071969Y0103000D02*
X0079469Y0095500D01*
X0083219Y0095500D01*
X0085719Y0093000D01*
X0101969Y0093000D01*
X0104469Y0090500D01*
X0104469Y0085500D01*
X0105719Y0084250D01*
X0105719Y0079250D01*
X0108219Y0076750D01*
X0178219Y0076750D01*
X0191969Y0063000D01*
X0191969Y0073000D02*
X0184469Y0080500D01*
X0108219Y0080500D01*
X0108219Y0085500D01*
X0106969Y0086750D01*
X0106969Y0091750D01*
X0103219Y0095500D01*
X0089469Y0095500D01*
X0081969Y0103000D01*
X0101969Y0103000D02*
X0111969Y0093000D01*
X0149469Y0093000D01*
X0155719Y0086750D01*
X0155719Y0085500D01*
X0159469Y0088000D02*
X0151969Y0095500D01*
X0119469Y0095500D01*
X0111969Y0103000D01*
X0119469Y0088000D02*
X0139469Y0088000D01*
X0148219Y0088000D01*
X0110719Y0083000D02*
X0191969Y0083000D01*
X0128219Y0060500D02*
X0128219Y0050500D01*
X0125719Y0055500D02*
X0110719Y0055500D01*
X0103219Y0053000D02*
X0103219Y0066750D01*
X0100157Y0069811D01*
X0091496Y0069811D01*
X0081654Y0077685D02*
X0079469Y0075500D01*
X0079469Y0036125D01*
X0095094Y0036125D01*
X0095719Y0036750D01*
X0098549Y0040830D02*
X0081379Y0040813D01*
X0081344Y0041750D01*
X0081344Y0061937D01*
X0091496Y0061937D01*
X0105719Y0060500D02*
X0105719Y0050500D01*
X0104990Y0049772D01*
X0104990Y0046125D01*
X0101447Y0046125D02*
X0099508Y0046189D01*
X0091496Y0046189D01*
X0099469Y0053000D02*
X0099469Y0054063D01*
X0091496Y0054063D01*
X0110719Y0060500D02*
X0128219Y0060500D01*
X0091496Y0077685D02*
X0081654Y0077685D01*
X0138219Y0041750D02*
X0138219Y0029250D01*
X0129469Y0029250D01*
X0129469Y0020500D01*
X0121969Y0013000D01*
X0131969Y0013000D02*
X0131969Y0025500D01*
X0174469Y0025500D01*
X0174469Y0036750D01*
X0170719Y0039250D02*
X0178219Y0039250D01*
X0178219Y0013000D01*
X0151969Y0013000D01*
X0159469Y0016750D02*
X0155719Y0020500D01*
X0141969Y0020500D01*
X0141969Y0013000D01*
X0159469Y0016750D02*
X0165719Y0016750D01*
X0134469Y0034250D02*
X0126969Y0034250D01*
X0126969Y0031750D01*
X0116969Y0020500D01*
X0109469Y0020500D01*
X0101969Y0013000D01*
D20*
X0032382Y0030500D02*
X0024469Y0030500D01*
X0021679Y0033290D01*
M02*
